NotoSansThaana-SemiBold.ufo
<glyph name="exclam" format="2">
  <advance width="414.45901639344265"/>
  <unicode hex="0021"/>
  <outline>
    <contour>
      <point x="189.36065573770492" y="209.8688524590164" type="curve" smooth="yes"/>
      <point x="227.31147540983608" y="209.8688524590164"/>
      <point x="241.45901639344262" y="233.70491803278688"/>
      <point x="250.19672131147541" y="272.5245901639344" type="curve" smooth="yes"/>
      <point x="264.0655737704918" y="332.11475409836066"/>
      <point x="281.91803278688525" y="391.21311475409834"/>
      <point x="312.59016393442624" y="487.0983606557377" type="curve" smooth="yes"/>
      <point x="338.0983606557377" y="567.360655737705"/>
      <point x="356.21311475409834" y="616.2295081967213"/>
      <point x="367.08196721311475" y="645.7049180327868" type="curve" smooth="yes"/>
      <point x="378.4590163934426" y="676.7049180327868"/>
      <point x="383.8360655737705" y="694.4590163934427"/>
      <point x="383.8360655737705" y="710.9508196721312" type="curve" smooth="yes"/>
      <point x="383.8360655737705" y="729.0819672131148"/>
      <point x="374.0983606557377" y="740.4426229508197"/>
      <point x="352.60655737704917" y="740.4426229508197" type="curve" smooth="yes"/>
      <point x="331.4918032786885" y="740.4426229508197"/>
      <point x="311.8688524590164" y="722.4426229508197"/>
      <point x="290.0" y="681.9508196721312" type="curve" smooth="yes"/>
      <point x="266.26229508196724" y="638.7213114754098"/>
      <point x="237.39344262295083" y="566.0"/>
      <point x="196.65573770491804" y="455.78688524590166" type="curve" smooth="yes"/>
      <point x="159.0327868852459" y="354.91803278688525"/>
      <point x="133.1311475409836" y="275.3606557377049"/>
      <point x="133.1311475409836" y="250.49180327868854" type="curve" smooth="yes"/>
      <point x="133.1311475409836" y="223.0983606557377"/>
      <point x="149.14754098360655" y="209.8688524590164"/>
    </contour>
    <contour>
      <point x="149.7377049180328" y="-10.0" type="curve" smooth="yes"/>
      <point x="199.60655737704917" y="-10.0"/>
      <point x="245.9672131147541" y="36.114754098360656"/>
      <point x="245.9672131147541" y="84.22950819672131" type="curve" smooth="yes"/>
      <point x="245.9672131147541" y="122.8360655737705"/>
      <point x="217.22950819672133" y="152.45901639344262"/>
      <point x="177.36065573770492" y="152.45901639344262" type="curve" smooth="yes"/>
      <point x="126.49180327868852" y="152.45901639344262"/>
      <point x="81.50819672131148" y="105.59016393442623"/>
      <point x="81.50819672131148" y="56.85245901639344" type="curve" smooth="yes"/>
      <point x="81.50819672131148" y="17.491803278688526"/>
      <point x="108.0" y="-10.0"/>
    </contour>
  </outline>
</glyph>
<glyph name="parenleft" format="2">
  <advance width="503.57377049180326"/>
  <unicode hex="0028"/>
  <outline>
    <contour>
      <point x="253.60655737704917" y="-226.8688524590164" type="curve" smooth="yes"/>
      <point x="285.8524590163934" y="-226.8688524590164"/>
      <point x="308.8360655737705" y="-201.62295081967213"/>
      <point x="308.8360655737705" y="-177.63934426229508" type="curve" smooth="yes"/>
      <point x="308.8360655737705" y="-160.52459016393442"/>
      <point x="298.344262295082" y="-141.0327868852459"/>
      <point x="275.8524590163934" y="-118.1639344262295" type="curve" smooth="yes"/>
      <point x="229.81967213114754" y="-71.37704918032787"/>
      <point x="197.21311475409837" y="10.114754098360663"/>
      <point x="197.21311475409837" y="95.85245901639344" type="curve" smooth="yes"/>
      <point x="197.21311475409837" y="324.0163934426229"/>
      <point x="305.1475409836066" y="546.9344262295082"/>
      <point x="498.3114754098361" y="624.311475409836" type="curve" smooth="yes"/>
      <point x="531.1803278688525" y="637.5573770491803"/>
      <point x="560.6229508196722" y="651.9180327868853"/>
      <point x="560.6229508196722" y="679.7704918032787" type="curve" smooth="yes"/>
      <point x="560.6229508196722" y="699.5081967213115"/>
      <point x="544.7540983606557" y="715.0"/>
      <point x="520.639344262295" y="715.0" type="curve" smooth="yes"/>
      <point x="468.27868852459017" y="715.0"/>
      <point x="404.655737704918" y="684.2459016393443"/>
      <point x="338.21311475409834" y="634.0491803278688" type="curve" smooth="yes"/>
      <point x="178.672131147541" y="515.9180327868853"/>
      <point x="86.1311475409836" y="309.60655737704917"/>
      <point x="86.1311475409836" y="95.85245901639344" type="curve" smooth="yes"/>
      <point x="86.1311475409836" y="-2.868852459016395"/>
      <point x="118.49180327868852" y="-114.11475409836066"/>
      <point x="184.98360655737704" y="-185.11475409836066" type="curve" smooth="yes"/>
      <point x="209.7377049180328" y="-211.8688524590164"/>
      <point x="233.98360655737704" y="-226.8688524590164"/>
    </contour>
  </outline>
</glyph>
<glyph name="parenright" format="2">
  <advance width="503.57377049180326"/>
  <unicode hex="0029"/>
  <outline>
    <contour>
      <point x="-20.262295081967213" y="-226.8688524590164" type="curve" smooth="yes"/>
      <point x="8.344262295081968" y="-226.8688524590164"/>
      <point x="37.459016393442624" y="-220.86885245901638"/>
      <point x="66.70491803278688" y="-208.49180327868854" type="curve" smooth="yes"/>
      <point x="268.39344262295083" y="-124.19672131147541"/>
      <point x="414.24590163934425" y="155.49180327868854"/>
      <point x="414.24590163934425" y="392.27868852459017" type="curve" smooth="yes"/>
      <point x="414.24590163934425" y="490.37704918032784"/>
      <point x="383.37704918032784" y="595.7704918032787"/>
      <point x="319.1311475409836" y="669.7540983606557" type="curve" smooth="yes"/>
      <point x="293.75409836065575" y="699.3770491803278"/>
      <point x="267.6393442622951" y="715.0"/>
      <point x="246.77049180327867" y="715.0" type="curve" smooth="yes"/>
      <point x="214.52459016393442" y="715.0"/>
      <point x="191.54098360655738" y="689.7540983606557"/>
      <point x="191.54098360655738" y="665.7704918032787" type="curve" smooth="yes"/>
      <point x="191.54098360655738" y="648.655737704918"/>
      <point x="202.0327868852459" y="629.1639344262295"/>
      <point x="224.52459016393442" y="606.2950819672132" type="curve" smooth="yes"/>
      <point x="270.55737704918033" y="559.5081967213115"/>
      <point x="303.1639344262295" y="478.016393442623"/>
      <point x="303.1639344262295" y="392.27868852459017" type="curve" smooth="yes"/>
      <point x="303.1639344262295" y="163.7377049180328"/>
      <point x="191.7377049180328" y="-61.295081967213115"/>
      <point x="2.0655737704918042" y="-136.18032786885246" type="curve" smooth="yes"/>
      <point x="-33.67213114754098" y="-150.04918032786884"/>
      <point x="-60.24590163934426" y="-164.1639344262295"/>
      <point x="-60.24590163934426" y="-191.63934426229508" type="curve" smooth="yes"/>
      <point x="-60.24590163934426" y="-211.37704918032787"/>
      <point x="-44.377049180327866" y="-226.8688524590164"/>
    </contour>
  </outline>
</glyph>
<glyph name="comma" format="2">
  <advance width="375.21311475409834"/>
  <unicode hex="002C"/>
  <outline>
    <contour>
      <point x="102.11475409836066" y="-129.24590163934425" type="curve" smooth="yes"/>
      <point x="118.49180327868852" y="-129.24590163934425"/>
      <point x="136.60655737704917" y="-116.24590163934427"/>
      <point x="156.327868852459" y="-96.90163934426229" type="curve" smooth="yes"/>
      <point x="189.81967213114754" y="-65.29508196721312"/>
      <point x="252.9672131147541" y="18.60655737704918"/>
      <point x="252.9672131147541" y="72.85245901639344" type="curve" smooth="yes"/>
      <point x="252.9672131147541" y="120.09836065573771"/>
      <point x="223.34426229508196" y="144.0983606557377"/>
      <point x="182.11475409836066" y="144.0983606557377" type="curve" smooth="yes"/>
      <point x="134.8688524590164" y="144.0983606557377"/>
      <point x="88.88524590163934" y="107.8360655737705"/>
      <point x="88.88524590163934" y="59.22950819672131" type="curve" smooth="yes"/>
      <point x="88.88524590163934" y="27.60655737704918"/>
      <point x="110.01639344262296" y="1.360655737704917"/>
      <point x="142.39344262295083" y="-4.377049180327869" type="curve"/>
      <point x="132.5081967213115" y="-25.163934426229506"/>
      <point x="117.85245901639345" y="-40.68852459016394"/>
      <point x="82.77049180327869" y="-76.01639344262296" type="curve" smooth="yes"/>
      <point x="75.01639344262296" y="-84.39344262295081"/>
      <point x="71.26229508196721" y="-91.26229508196721"/>
      <point x="71.26229508196721" y="-101.63934426229508" type="curve" smooth="yes"/>
      <point x="71.26229508196721" y="-112.49180327868852"/>
      <point x="80.11475409836065" y="-129.24590163934425"/>
    </contour>
  </outline>
</glyph>
<glyph name="period" format="2">
  <advance width="375.21311475409834"/>
  <unicode hex="002E"/>
  <outline>
    <contour>
      <point x="143.49180327868854" y="-10.0" type="curve" smooth="yes"/>
      <point x="193.98360655737704" y="-10.0"/>
      <point x="240.9672131147541" y="31.75409836065574"/>
      <point x="240.9672131147541" y="80.49180327868852" type="curve" smooth="yes"/>
      <point x="240.9672131147541" y="118.47540983606558"/>
      <point x="210.98360655737704" y="145.60655737704917"/>
      <point x="171.11475409836066" y="145.60655737704917" type="curve" smooth="yes"/>
      <point x="121.49180327868852" y="145.60655737704917"/>
      <point x="75.88524590163934" y="103.72131147540983"/>
      <point x="75.88524590163934" y="54.98360655737705" type="curve" smooth="yes"/>
      <point x="75.88524590163934" y="16.24590163934426"/>
      <point x="102.37704918032787" y="-10.0"/>
    </contour>
  </outline>
</glyph>
<glyph name="colon" format="2">
  <advance width="375.21311475409834"/>
  <unicode hex="003A"/>
  <outline>
    <contour>
      <point x="174.49180327868854" y="244.7377049180328" type="curve" smooth="yes"/>
      <point x="225.98360655737704" y="244.7377049180328"/>
      <point x="272.344262295082" y="286.4918032786885"/>
      <point x="272.344262295082" y="334.60655737704917" type="curve" smooth="yes"/>
      <point x="272.344262295082" y="372.59016393442624"/>
      <point x="242.36065573770492" y="399.72131147540983"/>
      <point x="202.49180327868854" y="399.72131147540983" type="curve" smooth="yes"/>
      <point x="152.8688524590164" y="399.72131147540983"/>
      <point x="107.26229508196721" y="358.45901639344265"/>
      <point x="107.26229508196721" y="309.0983606557377" type="curve" smooth="yes"/>
      <point x="107.26229508196721" y="270.3606557377049"/>
      <point x="133.75409836065575" y="244.7377049180328"/>
    </contour>
    <contour>
      <point x="143.49180327868854" y="-10.0" type="curve" smooth="yes"/>
      <point x="193.98360655737704" y="-10.0"/>
      <point x="240.9672131147541" y="31.75409836065574"/>
      <point x="240.9672131147541" y="80.49180327868852" type="curve" smooth="yes"/>
      <point x="240.9672131147541" y="118.47540983606558"/>
      <point x="210.98360655737704" y="145.60655737704917"/>
      <point x="171.11475409836066" y="145.60655737704917" type="curve" smooth="yes"/>
      <point x="121.49180327868852" y="145.60655737704917"/>
      <point x="75.88524590163934" y="103.72131147540983"/>
      <point x="75.88524590163934" y="54.98360655737705" type="curve" smooth="yes"/>
      <point x="75.88524590163934" y="16.24590163934426"/>
      <point x="102.37704918032787" y="-10.0"/>
    </contour>
  </outline>
</glyph>
<glyph name="semicolon" format="2">
  <advance width="375.21311475409834"/>
  <unicode hex="003B"/>
  <outline>
    <contour>
      <point x="98.34426229508196" y="-129.24590163934425" type="curve" smooth="yes"/>
      <point x="114.72131147540983" y="-129.24590163934425"/>
      <point x="132.8360655737705" y="-115.8688524590164"/>
      <point x="152.55737704918033" y="-96.90163934426229" type="curve" smooth="yes"/>
      <point x="186.04918032786884" y="-65.67213114754098"/>
      <point x="249.19672131147541" y="18.60655737704918"/>
      <point x="249.19672131147541" y="72.85245901639344" type="curve" smooth="yes"/>
      <point x="249.19672131147541" y="120.09836065573771"/>
      <point x="219.5737704918033" y="144.0983606557377"/>
      <point x="178.34426229508196" y="144.0983606557377" type="curve" smooth="yes"/>
      <point x="131.47540983606558" y="144.0983606557377"/>
      <point x="85.49180327868852" y="107.8360655737705"/>
      <point x="85.49180327868852" y="59.22950819672131" type="curve" smooth="yes"/>
      <point x="85.49180327868852" y="27.60655737704918"/>
      <point x="106.24590163934425" y="1.360655737704917"/>
      <point x="138.62295081967213" y="-4.377049180327869" type="curve"/>
      <point x="128.7377049180328" y="-24.786885245901637"/>
      <point x="114.8360655737705" y="-40.31147540983606"/>
      <point x="79.37704918032787" y="-76.01639344262296" type="curve" smooth="yes"/>
      <point x="71.24590163934427" y="-84.77049180327869"/>
      <point x="67.49180327868852" y="-91.26229508196721"/>
      <point x="67.49180327868852" y="-101.63934426229508" type="curve" smooth="yes"/>
      <point x="67.49180327868852" y="-112.49180327868852"/>
      <point x="76.34426229508196" y="-129.24590163934425"/>
    </contour>
    <contour>
      <point x="180.72131147540983" y="244.7377049180328" type="curve" smooth="yes"/>
      <point x="231.59016393442624" y="244.7377049180328"/>
      <point x="278.57377049180326" y="286.4918032786885"/>
      <point x="278.57377049180326" y="334.60655737704917" type="curve" smooth="yes"/>
      <point x="278.57377049180326" y="372.59016393442624"/>
      <point x="248.59016393442624" y="399.72131147540983"/>
      <point x="208.72131147540983" y="399.72131147540983" type="curve" smooth="yes"/>
      <point x="159.0983606557377" y="399.72131147540983"/>
      <point x="113.49180327868852" y="358.45901639344265"/>
      <point x="113.49180327868852" y="309.0983606557377" type="curve" smooth="yes"/>
      <point x="113.49180327868852" y="270.3606557377049"/>
      <point x="139.98360655737704" y="244.7377049180328"/>
    </contour>
  </outline>
</glyph>
<glyph name="uni060C" format="2">
  <advance width="377.7049180327869"/>
  <unicode hex="060C"/>
  <outline>
    <contour>
      <point x="161.85245901639342" y="-8.754098360655737" type="curve" smooth="yes"/>
      <point x="209.0983606557377" y="-8.754098360655737"/>
      <point x="255.08196721311475" y="27.885245901639344"/>
      <point x="255.08196721311475" y="76.11475409836066" type="curve" smooth="yes"/>
      <point x="255.08196721311475" y="107.73770491803279"/>
      <point x="233.95081967213116" y="134.98360655737704"/>
      <point x="201.5737704918033" y="140.72131147540983" type="curve"/>
      <point x="211.45901639344262" y="161.5081967213115"/>
      <point x="227.36065573770492" y="175.78688524590163"/>
      <point x="261.1967213114754" y="212.36065573770492" type="curve" smooth="yes"/>
      <point x="268.95081967213116" y="220.7377049180328"/>
      <point x="272.7049180327869" y="227.60655737704917"/>
      <point x="272.7049180327869" y="237.98360655737704" type="curve" smooth="yes"/>
      <point x="272.7049180327869" y="248.8360655737705"/>
      <point x="263.8524590163934" y="265.59016393442624"/>
      <point x="241.85245901639342" y="265.59016393442624" type="curve" smooth="yes"/>
      <point x="226.60655737704917" y="265.59016393442624"/>
      <point x="207.4918032786885" y="252.59016393442624"/>
      <point x="187.63934426229508" y="232.24590163934425" type="curve" smooth="yes"/>
      <point x="155.14754098360655" y="200.77049180327867"/>
      <point x="91.0" y="117.11475409836066"/>
      <point x="91.0" y="62.49180327868852" type="curve" smooth="yes"/>
      <point x="91.0" y="15.245901639344261"/>
      <point x="120.62295081967213" y="-8.754098360655737"/>
    </contour>
  </outline>
</glyph>
<glyph name="uni061B" format="2">
  <advance width="375.21311475409834"/>
  <unicode hex="061B"/>
  <outline>
    <contour>
      <point x="190.68852459016392" y="264.672131147541" type="curve" smooth="yes"/>
      <point x="237.9344262295082" y="264.672131147541"/>
      <point x="283.91803278688525" y="301.3114754098361"/>
      <point x="283.91803278688525" y="349.54098360655735" type="curve" smooth="yes"/>
      <point x="283.91803278688525" y="381.1639344262295"/>
      <point x="262.78688524590166" y="408.40983606557376"/>
      <point x="230.40983606557376" y="414.1475409836066" type="curve"/>
      <point x="240.29508196721312" y="434.9344262295082"/>
      <point x="256.1967213114754" y="449.21311475409834"/>
      <point x="290.0327868852459" y="485.40983606557376" type="curve" smooth="yes"/>
      <point x="298.1639344262295" y="494.1639344262295"/>
      <point x="301.54098360655735" y="501.0327868852459"/>
      <point x="301.54098360655735" y="511.40983606557376" type="curve" smooth="yes"/>
      <point x="301.54098360655735" y="522.2622950819672"/>
      <point x="292.6885245901639" y="539.016393442623"/>
      <point x="270.6885245901639" y="539.016393442623" type="curve" smooth="yes"/>
      <point x="255.44262295081967" y="539.016393442623"/>
      <point x="235.95081967213116" y="525.639344262295"/>
      <point x="216.47540983606558" y="505.672131147541" type="curve" smooth="yes"/>
      <point x="183.98360655737704" y="474.1967213114754"/>
      <point x="119.8360655737705" y="390.54098360655735"/>
      <point x="119.8360655737705" y="335.91803278688525" type="curve" smooth="yes"/>
      <point x="119.8360655737705" y="288.672131147541"/>
      <point x="149.45901639344262" y="264.672131147541"/>
    </contour>
    <contour>
      <point x="143.49180327868854" y="-10.0" type="curve" smooth="yes"/>
      <point x="193.98360655737704" y="-10.0"/>
      <point x="240.9672131147541" y="31.75409836065574"/>
      <point x="240.9672131147541" y="80.49180327868852" type="curve" smooth="yes"/>
      <point x="240.9672131147541" y="118.47540983606558"/>
      <point x="210.98360655737704" y="145.60655737704917"/>
      <point x="171.11475409836066" y="145.60655737704917" type="curve" smooth="yes"/>
      <point x="121.49180327868852" y="145.60655737704917"/>
      <point x="75.88524590163934" y="103.72131147540983"/>
      <point x="75.88524590163934" y="54.98360655737705" type="curve" smooth="yes"/>
      <point x="75.88524590163934" y="16.24590163934426"/>
      <point x="102.37704918032787" y="-10.0"/>
    </contour>
  </outline>
</glyph>
<glyph name="uni061F" format="2">
  <advance width="479.0"/>
  <unicode hex="061F"/>
  <outline>
    <contour>
      <point x="219.0" y="211.0" type="curve" smooth="yes"/>
      <point x="236.0" y="211.0"/>
      <point x="255.0" y="219.0"/>
      <point x="269.0" y="236.0" type="curve" smooth="yes"/>
      <point x="291.3606557377049" y="262.9836065573771"/>
      <point x="302.2295081967213" y="291.344262295082"/>
      <point x="302.2295081967213" y="328.344262295082" type="curve" smooth="yes"/>
      <point x="302.2295081967213" y="368.3606557377049"/>
      <point x="283.8360655737705" y="399.0"/>
      <point x="260.45901639344265" y="434.0" type="curve" smooth="yes"/>
      <point x="242.08196721311475" y="462.0"/>
      <point x="228.68852459016392" y="487.0163934426229"/>
      <point x="228.68852459016392" y="521.639344262295" type="curve" smooth="yes"/>
      <point x="228.68852459016392" y="580.2950819672132"/>
      <point x="278.9672131147541" y="619.5409836065573"/>
      <point x="335.0" y="619.5409836065573" type="curve" smooth="yes"/>
      <point x="362.0" y="619.5409836065573"/>
      <point x="385.0" y="606.5409836065573"/>
      <point x="405.0" y="593.5409836065573" type="curve" smooth="yes"/>
      <point x="426.0" y="579.5409836065573"/>
      <point x="444.0" y="566.5409836065573"/>
      <point x="461.0" y="566.5409836065573" type="curve" smooth="yes"/>
      <point x="479.0" y="566.5409836065573"/>
      <point x="512.0" y="600.7704918032787"/>
      <point x="512.0" y="635.0" type="curve" smooth="yes"/>
      <point x="512.0" y="644.0"/>
      <point x="510.0" y="656.0"/>
      <point x="493.11475409836066" y="670.5081967213115" type="curve" smooth="yes"/>
      <point x="457.0" y="702.0"/>
      <point x="411.0" y="714.0"/>
      <point x="349.0" y="714.0" type="curve" smooth="yes"/>
      <point x="217.0" y="714.0"/>
      <point x="124.26229508196721" y="619.1311475409836"/>
      <point x="124.26229508196721" y="523.1311475409836" type="curve" smooth="yes"/>
      <point x="124.26229508196721" y="470.1475409836066"/>
      <point x="140.63934426229508" y="441.62295081967216"/>
      <point x="159.5081967213115" y="408.39344262295083" type="curve" smooth="yes"/>
      <point x="175.52459016393442" y="381.0"/>
      <point x="195.77049180327867" y="354.11475409836066"/>
      <point x="195.77049180327867" y="325.0" type="curve" smooth="yes"/>
      <point x="195.77049180327867" y="301.0"/>
      <point x="189.88524590163934" y="283.62295081967216"/>
      <point x="183.1311475409836" y="266.37704918032784" type="curve" smooth="yes"/>
      <point x="179.0" y="255.62295081967213"/>
      <point x="174.0" y="243.0"/>
      <point x="174.0" y="230.0" type="curve" smooth="yes"/>
      <point x="174.0" y="212.0"/>
      <point x="203.0" y="211.0"/>
    </contour>
    <contour>
      <point x="155.63934426229508" y="-14.98360655737705" type="curve" smooth="yes"/>
      <point x="209.8688524590164" y="-14.98360655737705"/>
      <point x="259.9672131147541" y="29.262295081967213"/>
      <point x="259.9672131147541" y="81.11475409836066" type="curve" smooth="yes"/>
      <point x="259.9672131147541" y="121.59016393442623"/>
      <point x="227.8688524590164" y="150.59016393442624"/>
      <point x="185.50819672131146" y="150.59016393442624" type="curve" smooth="yes"/>
      <point x="132.77049180327867" y="150.59016393442624"/>
      <point x="84.04918032786885" y="106.21311475409836"/>
      <point x="84.04918032786885" y="54.36065573770492" type="curve" smooth="yes"/>
      <point x="84.04918032786885" y="13.131147540983607"/>
      <point x="112.40983606557377" y="-14.98360655737705"/>
    </contour>
  </outline>
</glyph>
<glyph name="uni0660" format="2">
  <advance width="300.91803278688525"/>
  <unicode hex="0660"/>
  <outline>
    <contour>
      <point x="85.1639344262295" y="393.4918032786885" type="curve" smooth="yes"/>
      <point x="85.1639344262295" y="353.5081967213115"/>
      <point x="119.90163934426229" y="291.655737704918"/>
      <point x="146.63934426229508" y="291.655737704918" type="curve" smooth="yes"/>
      <point x="170.13114754098362" y="291.655737704918"/>
      <point x="213.7377049180328" y="307.1475409836066"/>
      <point x="213.7377049180328" y="333.26229508196724" type="curve" smooth="yes"/>
      <point x="213.7377049180328" y="382.8688524590164"/>
      <point x="186.0" y="444.344262295082"/>
      <point x="153.2622950819672" y="444.344262295082" type="curve" smooth="yes"/>
      <point x="124.14754098360656" y="444.344262295082"/>
      <point x="85.1639344262295" y="425.8524590163934"/>
    </contour>
  </outline>
</glyph>
<glyph name="uni0661" format="2">
  <advance width="344.0327868852459"/>
  <unicode hex="0661"/>
  <outline>
    <contour>
      <point x="176.62295081967213" y="129.50819672131146" type="curve" smooth="yes"/>
      <point x="201.7377049180328" y="129.50819672131146"/>
      <point x="219.22950819672133" y="141.75409836065575"/>
      <point x="229.85245901639345" y="162.62295081967213" type="curve" smooth="yes"/>
      <point x="243.0983606557377" y="188.11475409836066"/>
      <point x="250.0983606557377" y="243.11475409836066"/>
      <point x="250.0983606557377" y="292.8688524590164" type="curve" smooth="yes"/>
      <point x="250.0983606557377" y="377.73770491803276"/>
      <point x="243.0983606557377" y="454.4918032786885"/>
      <point x="225.72131147540983" y="537.2459016393443" type="curve" smooth="yes"/>
      <point x="211.34426229508196" y="605.2459016393443"/>
      <point x="192.34426229508196" y="661.3770491803278"/>
      <point x="168.72131147540983" y="696.2459016393443" type="curve" smooth="yes"/>
      <point x="155.0983606557377" y="716.4918032786885"/>
      <point x="138.22950819672133" y="719.4918032786885"/>
      <point x="119.98360655737704" y="719.4918032786885" type="curve" smooth="yes"/>
      <point x="89.8688524590164" y="719.4918032786885"/>
      <point x="53.131147540983605" y="696.0"/>
      <point x="53.131147540983605" y="662.8852459016393" type="curve" smooth="yes"/>
      <point x="53.131147540983605" y="646.639344262295"/>
      <point x="58.131147540983605" y="631.3934426229508"/>
      <point x="67.75409836065573" y="614.1475409836065" type="curve" smooth="yes"/>
      <point x="93.75409836065573" y="567.5245901639345"/>
      <point x="109.37704918032787" y="514.0327868852459"/>
      <point x="123.1311475409836" y="454.5245901639344" type="curve" smooth="yes"/>
      <point x="135.88524590163934" y="399.26229508196724"/>
      <point x="146.88524590163934" y="331.37704918032784"/>
      <point x="146.88524590163934" y="281.8688524590164" type="curve" smooth="yes"/>
      <point x="146.88524590163934" y="253.11475409836066"/>
      <point x="145.88524590163934" y="224.24590163934425"/>
      <point x="143.88524590163934" y="206.24590163934425" type="curve" smooth="yes"/>
      <point x="141.88524590163934" y="191.24590163934425"/>
      <point x="139.88524590163934" y="175.86885245901638"/>
      <point x="139.88524590163934" y="162.62295081967213" type="curve" smooth="yes"/>
      <point x="139.88524590163934" y="142.75409836065575"/>
      <point x="154.1311475409836" y="129.50819672131146"/>
    </contour>
  </outline>
</glyph>
<glyph name="uni0662" format="2">
  <advance width="482.75409836065575"/>
  <unicode hex="0662"/>
  <outline>
    <contour>
      <point x="427.2295081967213" y="704.1147540983607" type="curve" smooth="yes"/>
      <point x="411.983606557377" y="704.1147540983607"/>
      <point x="397.2295081967213" y="696.360655737705"/>
      <point x="384.7377049180328" y="679.4918032786885" type="curve" smooth="yes"/>
      <point x="355.8688524590164" y="639.7377049180328"/>
      <point x="326.7377049180328" y="616.983606557377"/>
      <point x="279.3606557377049" y="616.983606557377" type="curve" smooth="yes"/>
      <point x="243.98360655737704" y="616.983606557377"/>
      <point x="200.22950819672133" y="628.983606557377"/>
      <point x="173.22950819672133" y="655.4918032786885" type="curve"/>
      <point x="164.22950819672133" y="671.8688524590164"/>
      <point x="155.85245901639342" y="686.2459016393443"/>
      <point x="146.47540983606558" y="697.6229508196722" type="curve" smooth="yes"/>
      <point x="134.22950819672133" y="713.4918032786885"/>
      <point x="117.36065573770492" y="719.4918032786885"/>
      <point x="103.11475409836066" y="719.4918032786885" type="curve" smooth="yes"/>
      <point x="70.0" y="719.4918032786885"/>
      <point x="37.26229508196721" y="696.0"/>
      <point x="37.26229508196721" y="666.5081967213115" type="curve" smooth="yes"/>
      <point x="37.26229508196721" y="647.016393442623"/>
      <point x="41.26229508196721" y="632.7704918032787"/>
      <point x="51.50819672131148" y="616.9016393442623" type="curve" smooth="yes"/>
      <point x="116.88524590163934" y="518.2786885245902"/>
      <point x="150.52459016393442" y="406.4918032786885"/>
      <point x="151.77049180327867" y="281.8688524590164" type="curve" smooth="yes"/>
      <point x="151.77049180327867" y="250.98360655737704"/>
      <point x="150.77049180327867" y="224.24590163934425"/>
      <point x="149.14754098360658" y="206.24590163934425" type="curve" smooth="yes"/>
      <point x="147.52459016393442" y="191.24590163934425"/>
      <point x="146.14754098360658" y="175.86885245901638"/>
      <point x="146.14754098360658" y="162.62295081967213" type="curve" smooth="yes"/>
      <point x="146.14754098360658" y="142.75409836065575"/>
      <point x="163.63934426229508" y="129.50819672131146"/>
      <point x="186.13114754098362" y="129.50819672131146" type="curve" smooth="yes"/>
      <point x="210.0" y="129.50819672131146"/>
      <point x="223.8688524590164" y="141.75409836065575"/>
      <point x="235.11475409836066" y="162.62295081967213" type="curve" smooth="yes"/>
      <point x="248.36065573770492" y="187.49180327868854"/>
      <point x="255.36065573770492" y="243.11475409836066"/>
      <point x="255.36065573770492" y="291.8688524590164" type="curve" smooth="yes"/>
      <point x="255.36065573770492" y="372.62295081967216"/>
      <point x="237.60655737704917" y="476.1311475409836"/>
      <point x="210.47540983606558" y="561.8852459016393" type="curve"/>
      <point x="242.0983606557377" y="537.2622950819672"/>
      <point x="276.72131147540983" y="527.016393442623"/>
      <point x="314.72131147540983" y="527.016393442623" type="curve" smooth="yes"/>
      <point x="365.72131147540983" y="527.016393442623"/>
      <point x="410.344262295082" y="549.639344262295"/>
      <point x="445.0983606557377" y="596.1475409836065" type="curve" smooth="yes"/>
      <point x="457.344262295082" y="612.016393442623"/>
      <point x="465.9672131147541" y="626.016393442623"/>
      <point x="465.9672131147541" y="655.5081967213115" type="curve" smooth="yes"/>
      <point x="465.9672131147541" y="685.2459016393443"/>
      <point x="449.0983606557377" y="704.1147540983607"/>
    </contour>
  </outline>
</glyph>
<glyph name="uni0663" format="2">
  <advance width="548.2622950819672"/>
  <unicode hex="0663"/>
  <outline>
    <contour>
      <point x="207.24590163934425" y="129.50819672131146" type="curve" smooth="yes"/>
      <point x="230.7377049180328" y="129.50819672131146"/>
      <point x="244.98360655737704" y="141.75409836065575"/>
      <point x="255.85245901639342" y="162.62295081967213" type="curve" smooth="yes"/>
      <point x="268.72131147540983" y="187.49180327868854"/>
      <point x="276.0983606557377" y="243.11475409836066"/>
      <point x="276.0983606557377" y="294.24590163934425" type="curve" smooth="yes"/>
      <point x="276.0983606557377" y="361.75409836065575"/>
      <point x="261.9672131147541" y="440.6393442622951"/>
      <point x="240.21311475409834" y="512.7704918032787" type="curve"/>
      <point x="242.59016393442624" y="512.7704918032787"/>
      <point x="244.21311475409837" y="512.7704918032787"/>
      <point x="246.59016393442624" y="512.7704918032787" type="curve" smooth="yes"/>
      <point x="276.4754098360656" y="515.2622950819672"/>
      <point x="300.0983606557377" y="528.639344262295"/>
      <point x="322.4754098360656" y="550.7704918032787" type="curve"/>
      <point x="344.0983606557377" y="536.3934426229508"/>
      <point x="367.72131147540983" y="531.3934426229508"/>
      <point x="398.9672131147541" y="531.3934426229508" type="curve" smooth="yes"/>
      <point x="451.8360655737705" y="531.3934426229508"/>
      <point x="489.08196721311475" y="571.639344262295"/>
      <point x="512.8360655737705" y="626.7704918032787" type="curve" smooth="yes"/>
      <point x="521.4590163934427" y="646.016393442623"/>
      <point x="528.0819672131147" y="666.8852459016393"/>
      <point x="528.0819672131147" y="678.5081967213115" type="curve" smooth="yes"/>
      <point x="528.0819672131147" y="708.6229508196722"/>
      <point x="500.9672131147541" y="726.4918032786885"/>
      <point x="480.0983606557377" y="726.4918032786885" type="curve" smooth="yes"/>
      <point x="460.8524590163934" y="726.4918032786885"/>
      <point x="447.983606557377" y="713.8688524590164"/>
      <point x="438.3606557377049" y="681.7540983606557" type="curve" smooth="yes"/>
      <point x="424.60655737704917" y="637.0"/>
      <point x="401.983606557377" y="601.6229508196722"/>
      <point x="371.2295081967213" y="601.6229508196722" type="curve" smooth="yes"/>
      <point x="367.4754098360656" y="601.6229508196722"/>
      <point x="363.344262295082" y="602.0"/>
      <point x="358.59016393442624" y="603.3770491803278" type="curve"/>
      <point x="361.344262295082" y="607.5081967213115"/>
      <point x="363.8524590163934" y="612.5245901639345"/>
      <point x="366.3606557377049" y="617.9180327868853" type="curve" smooth="yes"/>
      <point x="376.344262295082" y="638.639344262295"/>
      <point x="380.72131147540983" y="653.8852459016393"/>
      <point x="380.72131147540983" y="675.0" type="curve" smooth="yes"/>
      <point x="380.72131147540983" y="699.6229508196722"/>
      <point x="354.60655737704917" y="717.4918032786885"/>
      <point x="329.7377049180328" y="717.4918032786885" type="curve" smooth="yes"/>
      <point x="311.8688524590164" y="717.4918032786885"/>
      <point x="295.24590163934425" y="708.8688524590164"/>
      <point x="287.0" y="686.6229508196722" type="curve" smooth="yes"/>
      <point x="268.75409836065575" y="636.1147540983607"/>
      <point x="247.2622950819672" y="595.2459016393443"/>
      <point x="220.22950819672133" y="595.2459016393443" type="curve" smooth="yes"/>
      <point x="216.85245901639342" y="595.2459016393443"/>
      <point x="213.47540983606558" y="595.2459016393443"/>
      <point x="209.72131147540983" y="596.2459016393443" type="curve"/>
      <point x="192.34426229508196" y="637.0"/>
      <point x="171.72131147540983" y="672.6229508196722"/>
      <point x="151.72131147540983" y="697.6229508196722" type="curve" smooth="yes"/>
      <point x="136.85245901639342" y="716.4918032786885"/>
      <point x="121.60655737704917" y="721.1147540983607"/>
      <point x="101.73770491803279" y="721.1147540983607" type="curve" smooth="yes"/>
      <point x="73.24590163934425" y="721.1147540983607"/>
      <point x="36.885245901639344" y="696.0"/>
      <point x="36.885245901639344" y="666.5081967213115" type="curve" smooth="yes"/>
      <point x="36.885245901639344" y="647.016393442623"/>
      <point x="41.50819672131148" y="632.7704918032787"/>
      <point x="57.377049180327866" y="612.9016393442623" type="curve" smooth="yes"/>
      <point x="132.0" y="518.9016393442623"/>
      <point x="172.88524590163934" y="398.0"/>
      <point x="172.88524590163934" y="281.8688524590164" type="curve" smooth="yes"/>
      <point x="172.88524590163934" y="252.49180327868854"/>
      <point x="171.88524590163934" y="224.24590163934425"/>
      <point x="169.88524590163934" y="206.24590163934425" type="curve" smooth="yes"/>
      <point x="167.88524590163934" y="191.24590163934425"/>
      <point x="166.88524590163934" y="175.86885245901638"/>
      <point x="166.88524590163934" y="162.62295081967213" type="curve" smooth="yes"/>
      <point x="166.88524590163934" y="142.75409836065575"/>
      <point x="184.75409836065575" y="129.50819672131146"/>
    </contour>
  </outline>
</glyph>
<glyph name="uni0664" format="2">
  <advance width="420.3606557377049"/>
  <unicode hex="0664"/>
  <outline>
    <contour>
      <point x="309.62295081967216" y="129.75409836065575" type="curve" smooth="yes"/>
      <point x="368.24590163934425" y="129.75409836065575"/>
      <point x="400.3606557377049" y="148.62295081967213"/>
      <point x="400.3606557377049" y="189.36065573770492" type="curve" smooth="yes"/>
      <point x="400.3606557377049" y="222.47540983606558"/>
      <point x="386.4918032786885" y="238.0983606557377"/>
      <point x="364.62295081967216" y="238.0983606557377" type="curve" smooth="yes"/>
      <point x="338.75409836065575" y="238.0983606557377"/>
      <point x="324.75409836065575" y="234.72131147540983"/>
      <point x="295.75409836065575" y="234.72131147540983" type="curve" smooth="yes"/>
      <point x="232.62295081967213" y="234.72131147540983"/>
      <point x="180.47540983606558" y="257.9672131147541"/>
      <point x="180.47540983606558" y="294.9836065573771" type="curve" smooth="yes"/>
      <point x="180.47540983606558" y="325.62295081967216"/>
      <point x="206.36065573770492" y="364.37704918032784"/>
      <point x="254.75409836065575" y="403.0163934426229" type="curve" smooth="yes"/>
      <point x="280.24590163934425" y="423.88524590163934"/>
      <point x="306.7377049180328" y="437.75409836065575"/>
      <point x="306.7377049180328" y="458.0" type="curve" smooth="yes"/>
      <point x="306.7377049180328" y="477.24590163934425"/>
      <point x="300.11475409836066" y="487.8688524590164"/>
      <point x="271.11475409836066" y="498.8688524590164" type="curve" smooth="yes"/>
      <point x="234.62295081967213" y="512.4918032786885"/>
      <point x="187.85245901639345" y="533.0"/>
      <point x="163.9672131147541" y="551.8852459016393" type="curve"/>
      <point x="194.59016393442624" y="575.8852459016393"/>
      <point x="250.22950819672133" y="606.1475409836065"/>
      <point x="299.72131147540983" y="629.7704918032787" type="curve" smooth="yes"/>
      <point x="322.9672131147541" y="640.7704918032787"/>
      <point x="332.59016393442624" y="654.2622950819672"/>
      <point x="332.59016393442624" y="670.5081967213115" type="curve" smooth="yes"/>
      <point x="332.59016393442624" y="690.3770491803278"/>
      <point x="313.0983606557377" y="722.7377049180328"/>
      <point x="285.60655737704917" y="722.7377049180328" type="curve" smooth="yes"/>
      <point x="268.983606557377" y="722.7377049180328"/>
      <point x="243.4918032786885" y="714.4918032786885"/>
      <point x="212.24590163934425" y="694.8688524590164" type="curve" smooth="yes"/>
      <point x="172.0" y="669.6229508196722"/>
      <point x="125.24590163934425" y="634.1147540983607"/>
      <point x="82.1311475409836" y="599.0" type="curve" smooth="yes"/>
      <point x="63.50819672131148" y="583.3770491803278"/>
      <point x="52.50819672131148" y="569.7540983606557"/>
      <point x="52.50819672131148" y="549.5081967213115" type="curve" smooth="yes"/>
      <point x="52.50819672131148" y="533.8852459016393"/>
      <point x="65.50819672131148" y="518.3934426229508"/>
      <point x="79.37704918032787" y="508.7704918032787" type="curve" smooth="yes"/>
      <point x="113.37704918032787" y="485.0163934426229"/>
      <point x="169.63934426229508" y="461.5081967213115"/>
      <point x="190.65573770491804" y="453.37704918032784" type="curve"/>
      <point x="119.39344262295083" y="405.8688524590164"/>
      <point x="63.016393442622956" y="347.73770491803276"/>
      <point x="63.016393442622956" y="275.4918032786885" type="curve" smooth="yes"/>
      <point x="63.016393442622956" y="184.62295081967213"/>
      <point x="188.2622950819672" y="129.75409836065575"/>
    </contour>
  </outline>
</glyph>
<glyph name="uni0665" format="2">
  <advance width="482.8688524590164"/>
  <unicode hex="0665"/>
  <outline>
    <contour>
      <point x="235.62295081967213" y="153.01639344262296" type="curve" smooth="yes"/>
      <point x="385.2295081967213" y="153.01639344262296"/>
      <point x="449.0983606557377" y="236.2622950819672"/>
      <point x="449.0983606557377" y="339.37704918032784" type="curve" smooth="yes"/>
      <point x="449.0983606557377" y="495.24590163934425"/>
      <point x="350.983606557377" y="677.7377049180328"/>
      <point x="240.8688524590164" y="677.7377049180328" type="curve" smooth="yes"/>
      <point x="147.13114754098362" y="677.7377049180328"/>
      <point x="33.77049180327869" y="484.24590163934425"/>
      <point x="33.77049180327869" y="332.37704918032784" type="curve" smooth="yes"/>
      <point x="33.77049180327869" y="209.2622950819672"/>
      <point x="111.26229508196721" y="153.01639344262296"/>
    </contour>
    <contour>
      <point x="236.62295081967213" y="256.9836065573771" type="curve" smooth="yes"/>
      <point x="167.4918032786885" y="256.9836065573771"/>
      <point x="125.73770491803279" y="286.73770491803276"/>
      <point x="125.73770491803279" y="341.62295081967216" type="curve" smooth="yes"/>
      <point x="125.73770491803279" y="438.5081967213115"/>
      <point x="189.4918032786885" y="571.5245901639345"/>
      <point x="236.8688524590164" y="571.5245901639345" type="curve" smooth="yes"/>
      <point x="304.37704918032784" y="571.5245901639345"/>
      <point x="354.75409836065575" y="439.88524590163934"/>
      <point x="354.75409836065575" y="345.0" type="curve" smooth="yes"/>
      <point x="354.75409836065575" y="293.11475409836066"/>
      <point x="316.37704918032784" y="256.9836065573771"/>
    </contour>
  </outline>
</glyph>
<glyph name="uni0666" format="2">
  <advance width="493.983606557377"/>
  <unicode hex="0666"/>
  <outline>
    <contour>
      <point x="401.24590163934425" y="129.50819672131146" type="curve" smooth="yes"/>
      <point x="433.983606557377" y="129.50819672131146"/>
      <point x="467.0983606557377" y="153.0"/>
      <point x="467.0983606557377" y="183.11475409836066" type="curve" smooth="yes"/>
      <point x="467.0983606557377" y="200.7377049180328"/>
      <point x="463.0983606557377" y="217.60655737704917"/>
      <point x="451.4754098360656" y="237.22950819672133" type="curve" smooth="yes"/>
      <point x="431.4754098360656" y="270.60655737704917"/>
      <point x="416.344262295082" y="304.8688524590164"/>
      <point x="402.72131147540983" y="344.24590163934425" type="curve" smooth="yes"/>
      <point x="378.4754098360656" y="413.75409836065575"/>
      <point x="363.4754098360656" y="504.8688524590164"/>
      <point x="363.4754098360656" y="569.0" type="curve" smooth="yes"/>
      <point x="363.4754098360656" y="599.0"/>
      <point x="364.4754098360656" y="624.7540983606557"/>
      <point x="366.4754098360656" y="642.7540983606557" type="curve" smooth="yes"/>
      <point x="368.4754098360656" y="657.7540983606557"/>
      <point x="369.4754098360656" y="673.1311475409836"/>
      <point x="369.4754098360656" y="687.0" type="curve" smooth="yes"/>
      <point x="369.4754098360656" y="706.2459016393443"/>
      <point x="351.60655737704917" y="719.4918032786885"/>
      <point x="329.11475409836066" y="719.4918032786885" type="curve" smooth="yes"/>
      <point x="302.5081967213115" y="719.4918032786885"/>
      <point x="289.75409836065575" y="705.3770491803278"/>
      <point x="279.75409836065575" y="684.7540983606557" type="curve"/>
      <point x="255.14754098360655" y="671.2622950819672"/>
      <point x="228.50819672131146" y="665.3770491803278"/>
      <point x="197.37704918032787" y="665.3770491803278" type="curve" smooth="yes"/>
      <point x="159.7377049180328" y="665.3770491803278"/>
      <point x="133.34426229508196" y="671.8852459016393"/>
      <point x="105.98360655737704" y="686.6229508196722" type="curve" smooth="yes"/>
      <point x="82.98360655737704" y="698.8688524590164"/>
      <point x="69.47540983606558" y="706.360655737705"/>
      <point x="52.98360655737705" y="706.360655737705" type="curve" smooth="yes"/>
      <point x="30.24590163934426" y="706.360655737705"/>
      <point x="11.508196721311476" y="685.5081967213115"/>
      <point x="11.508196721311476" y="658.7540983606557" type="curve" smooth="yes"/>
      <point x="11.508196721311476" y="634.2459016393443"/>
      <point x="19.639344262295083" y="613.3770491803278"/>
      <point x="43.63934426229508" y="597.639344262295" type="curve" smooth="yes"/>
      <point x="71.26229508196721" y="579.655737704918"/>
      <point x="118.1311475409836" y="568.7868852459017"/>
      <point x="165.0" y="568.7868852459017" type="curve" smooth="yes"/>
      <point x="198.13114754098362" y="568.7868852459017"/>
      <point x="228.39344262295083" y="571.1639344262295"/>
      <point x="259.6393442622951" y="581.7868852459017" type="curve"/>
      <point x="259.26229508196724" y="574.016393442623"/>
      <point x="259.26229508196724" y="564.3934426229508"/>
      <point x="259.26229508196724" y="559.5081967213115" type="curve" smooth="yes"/>
      <point x="259.26229508196724" y="484.37704918032784"/>
      <point x="273.0163934426229" y="378.0983606557377"/>
      <point x="298.1475409836066" y="287.8360655737705" type="curve" smooth="yes"/>
      <point x="313.39344262295083" y="232.85245901639345"/>
      <point x="332.6393442622951" y="183.8688524590164"/>
      <point x="355.1311475409836" y="152.75409836065575" type="curve" smooth="yes"/>
      <point x="367.75409836065575" y="135.13114754098362"/>
      <point x="386.0" y="129.50819672131146"/>
    </contour>
  </outline>
</glyph>
<glyph name="uni0667" format="2">
  <advance width="489.9672131147541"/>
  <unicode hex="0667"/>
  <outline>
    <contour>
      <point x="313.21311475409834" y="206.36065573770492" type="curve" smooth="yes"/>
      <point x="352.344262295082" y="351.0163934426229"/>
      <point x="416.344262295082" y="518.1475409836065"/>
      <point x="460.9672131147541" y="608.639344262295" type="curve" smooth="yes"/>
      <point x="466.9672131147541" y="621.2622950819672"/>
      <point x="475.21311475409834" y="636.8852459016393"/>
      <point x="475.21311475409834" y="648.5081967213115" type="curve" smooth="yes"/>
      <point x="475.21311475409834" y="666.3770491803278"/>
      <point x="449.72131147540983" y="690.4918032786885"/>
      <point x="403.73770491803276" y="690.4918032786885" type="curve" smooth="yes"/>
      <point x="381.8688524590164" y="690.4918032786885"/>
      <point x="368.24590163934425" y="674.2459016393443"/>
      <point x="359.0" y="655.0" type="curve" smooth="yes"/>
      <point x="318.8688524590164" y="571.360655737705"/>
      <point x="278.11475409836066" y="442.8524590163934"/>
      <point x="249.36065573770492" y="290.45901639344265" type="curve"/>
      <point x="205.98360655737704" y="489.2295081967213"/>
      <point x="154.72131147540983" y="638.7377049180328"/>
      <point x="127.72131147540983" y="668.4918032786885" type="curve" smooth="yes"/>
      <point x="116.47540983606558" y="680.1147540983607"/>
      <point x="106.09836065573771" y="686.1147540983607"/>
      <point x="80.98360655737704" y="686.1147540983607" type="curve" smooth="yes"/>
      <point x="46.868852459016395" y="686.1147540983607"/>
      <point x="14.754098360655739" y="666.2459016393443"/>
      <point x="14.754098360655739" y="646.3770491803278" type="curve" smooth="yes"/>
      <point x="14.754098360655739" y="635.7540983606557"/>
      <point x="18.75409836065574" y="628.5081967213115"/>
      <point x="27.37704918032787" y="614.2622950819672" type="curve" smooth="yes"/>
      <point x="55.377049180327866" y="567.639344262295"/>
      <point x="125.26229508196721" y="403.5081967213115"/>
      <point x="183.1311475409836" y="196.86885245901638" type="curve" smooth="yes"/>
      <point x="194.0" y="157.88524590163934"/>
      <point x="214.24590163934425" y="143.75409836065575"/>
      <point x="241.7377049180328" y="143.75409836065575" type="curve" smooth="yes"/>
      <point x="277.8524590163934" y="143.75409836065575"/>
      <point x="298.72131147540983" y="153.13114754098362"/>
    </contour>
  </outline>
</glyph>
<glyph name="uni0668" format="2">
  <advance width="489.9672131147541"/>
  <unicode hex="0668"/>
  <outline>
    <contour>
      <point x="86.22950819672131" y="143.75409836065575" type="curve" smooth="yes"/>
      <point x="108.09836065573771" y="143.75409836065575"/>
      <point x="122.72131147540983" y="160.37704918032787"/>
      <point x="131.34426229508196" y="179.62295081967213" type="curve" smooth="yes"/>
      <point x="170.47540983606558" y="263.88524590163934"/>
      <point x="211.22950819672133" y="391.7704918032787"/>
      <point x="240.98360655737704" y="544.7868852459017" type="curve"/>
      <point x="283.9836065573771" y="345.39344262295083"/>
      <point x="336.24590163934425" y="195.88524590163934"/>
      <point x="362.0" y="166.37704918032787" type="curve" smooth="yes"/>
      <point x="373.24590163934425" y="153.13114754098362"/>
      <point x="383.8688524590164" y="148.50819672131146"/>
      <point x="409.3606557377049" y="148.50819672131146" type="curve" smooth="yes"/>
      <point x="443.4754098360656" y="148.50819672131146"/>
      <point x="475.21311475409834" y="168.37704918032787"/>
      <point x="475.21311475409834" y="188.24590163934425" type="curve" smooth="yes"/>
      <point x="475.21311475409834" y="198.24590163934425"/>
      <point x="471.21311475409834" y="206.49180327868854"/>
      <point x="462.9672131147541" y="220.36065573770492" type="curve" smooth="yes"/>
      <point x="434.21311475409834" y="267.11475409836066"/>
      <point x="365.45901639344265" y="428.60655737704917"/>
      <point x="306.8360655737705" y="637.3770491803278" type="curve" smooth="yes"/>
      <point x="295.59016393442624" y="677.8688524590164"/>
      <point x="276.72131147540983" y="690.4918032786885"/>
      <point x="248.22950819672133" y="690.4918032786885" type="curve" smooth="yes"/>
      <point x="211.7377049180328" y="690.4918032786885"/>
      <point x="190.24590163934425" y="679.7377049180328"/>
      <point x="176.0" y="626.8688524590164" type="curve" smooth="yes"/>
      <point x="137.37704918032787" y="483.60655737704917"/>
      <point x="78.0" y="311.9836065573771"/>
      <point x="28.37704918032787" y="225.60655737704917" type="curve" smooth="yes"/>
      <point x="21.37704918032787" y="213.60655737704917"/>
      <point x="14.754098360655739" y="197.60655737704917"/>
      <point x="14.754098360655739" y="186.11475409836066" type="curve" smooth="yes"/>
      <point x="14.754098360655739" y="168.24590163934425"/>
      <point x="40.24590163934426" y="143.75409836065575"/>
    </contour>
  </outline>
</glyph>
<glyph name="uni0669" format="2">
  <advance width="488.11475409836066"/>
  <unicode hex="0669"/>
  <outline>
    <contour>
      <point x="413.62295081967216" y="124.88524590163934" type="curve" smooth="yes"/>
      <point x="448.3606557377049" y="124.88524590163934"/>
      <point x="474.344262295082" y="141.75409836065575"/>
      <point x="474.344262295082" y="175.8688524590164" type="curve" smooth="yes"/>
      <point x="474.344262295082" y="184.11475409836066"/>
      <point x="471.8524590163934" y="193.11475409836066"/>
      <point x="465.8524590163934" y="201.7377049180328" type="curve" smooth="yes"/>
      <point x="451.8524590163935" y="222.60655737704917"/>
      <point x="445.45901639344265" y="234.63934426229508"/>
      <point x="430.344262295082" y="269.5081967213115" type="curve" smooth="yes"/>
      <point x="406.2295081967213" y="325.6393442622951"/>
      <point x="392.8524590163935" y="375.75409836065575"/>
      <point x="379.60655737704917" y="490.11475409836066" type="curve" smooth="yes"/>
      <point x="359.3606557377049" y="664.8688524590164"/>
      <point x="254.24590163934425" y="709.1147540983607"/>
      <point x="179.1311475409836" y="709.1147540983607" type="curve" smooth="yes"/>
      <point x="99.63934426229508" y="709.1147540983607"/>
      <point x="23.770491803278688" y="649.1147540983607"/>
      <point x="23.770491803278688" y="552.2459016393443" type="curve" smooth="yes"/>
      <point x="23.770491803278688" y="447.1311475409836"/>
      <point x="99.01639344262296" y="385.88524590163934"/>
      <point x="187.2622950819672" y="385.88524590163934" type="curve" smooth="yes"/>
      <point x="232.2622950819672" y="385.88524590163934"/>
      <point x="262.26229508196724" y="398.1311475409836"/>
      <point x="287.26229508196724" y="413.1311475409836" type="curve"/>
      <point x="292.88524590163934" y="355.75409836065575"/>
      <point x="301.6393442622951" y="292.37704918032784"/>
      <point x="312.88524590163934" y="249.75409836065575" type="curve" smooth="yes"/>
      <point x="324.1311475409836" y="207.75409836065575"/>
      <point x="345.26229508196724" y="164.0"/>
      <point x="362.26229508196724" y="147.75409836065575" type="curve" smooth="yes"/>
      <point x="376.1311475409836" y="134.2622950819672"/>
      <point x="392.37704918032784" y="124.88524590163934"/>
    </contour>
    <contour>
      <point x="203.75409836065575" y="474.8524590163934" type="curve" smooth="yes"/>
      <point x="147.62295081967213" y="474.8524590163934"/>
      <point x="115.11475409836065" y="505.3606557377049"/>
      <point x="115.11475409836065" y="551.8688524590164" type="curve" smooth="yes"/>
      <point x="115.11475409836065" y="590.5081967213115"/>
      <point x="138.0" y="623.3934426229508"/>
      <point x="176.1311475409836" y="623.3934426229508" type="curve" smooth="yes"/>
      <point x="206.2622950819672" y="623.3934426229508"/>
      <point x="266.0163934426229" y="606.639344262295"/>
      <point x="275.0163934426229" y="493.2295081967213" type="curve"/>
      <point x="261.6393442622951" y="484.2295081967213"/>
      <point x="229.2622950819672" y="474.8524590163934"/>
    </contour>
  </outline>
</glyph>
<glyph name="uni066A" format="2">
  <advance width="556.7049180327868"/>
  <unicode hex="066A"/>
  <outline>
    <contour>
      <point x="186.59016393442624" y="153.88524590163934" type="curve" smooth="yes"/>
      <point x="199.8360655737705" y="153.88524590163934"/>
      <point x="212.08196721311475" y="161.50819672131146"/>
      <point x="216.70491803278688" y="175.13114754098362" type="curve" smooth="yes"/>
      <point x="225.95081967213116" y="201.24590163934425"/>
      <point x="231.08196721311475" y="242.1311475409836"/>
      <point x="251.32786885245903" y="290.0" type="curve" smooth="yes"/>
      <point x="270.08196721311475" y="334.88524590163934"/>
      <point x="300.8360655737705" y="396.0163934426229"/>
      <point x="331.9672131147541" y="444.27868852459017" type="curve" smooth="yes"/>
      <point x="367.72131147540983" y="499.78688524590166"/>
      <point x="411.21311475409834" y="553.5245901639344"/>
      <point x="452.21311475409834" y="588.7704918032787" type="curve" smooth="yes"/>
      <point x="467.8360655737705" y="602.3934426229508"/>
      <point x="483.7049180327869" y="620.639344262295"/>
      <point x="483.7049180327869" y="633.1311475409836" type="curve" smooth="yes"/>
      <point x="483.7049180327869" y="646.5081967213115"/>
      <point x="480.0655737704918" y="663.5081967213115"/>
      <point x="471.08196721311475" y="675.7377049180328" type="curve" smooth="yes"/>
      <point x="456.08196721311475" y="696.2459016393443"/>
      <point x="435.45901639344265" y="708.8524590163935"/>
      <point x="411.0983606557377" y="709.2295081967213" type="curve" smooth="yes"/>
      <point x="396.327868852459" y="705.4590163934427"/>
      <point x="375.21311475409834" y="684.5901639344262"/>
      <point x="351.95081967213116" y="659.8196721311475" type="curve" smooth="yes"/>
      <point x="311.327868852459" y="617.311475409836"/>
      <point x="266.1967213114754" y="557.7868852459017"/>
      <point x="229.7049180327869" y="489.29508196721315" type="curve" smooth="yes"/>
      <point x="183.9672131147541" y="403.9344262295082"/>
      <point x="130.36065573770492" y="282.21311475409834"/>
      <point x="130.36065573770492" y="217.7377049180328" type="curve" smooth="yes"/>
      <point x="130.36065573770492" y="181.37704918032787"/>
      <point x="154.47540983606558" y="153.88524590163934"/>
    </contour>
    <contour>
      <point x="121.62295081967213" y="529.639344262295" type="curve" smooth="yes"/>
      <point x="146.11475409836066" y="529.639344262295"/>
      <point x="190.22950819672133" y="546.8852459016393"/>
      <point x="190.22950819672133" y="574.7540983606557" type="curve" smooth="yes"/>
      <point x="190.22950819672133" y="627.4918032786885"/>
      <point x="160.98360655737704" y="692.8524590163935"/>
      <point x="126.49180327868852" y="692.8524590163935" type="curve" smooth="yes"/>
      <point x="94.62295081967213" y="692.8524590163935"/>
      <point x="53.50819672131148" y="672.983606557377"/>
      <point x="53.50819672131148" y="638.4918032786885" type="curve" smooth="yes"/>
      <point x="53.50819672131148" y="596.0"/>
      <point x="91.37704918032787" y="529.639344262295"/>
    </contour>
    <contour>
      <point x="424.7049180327869" y="211.5081967213115" type="curve" smooth="yes"/>
      <point x="448.95081967213116" y="211.5081967213115"/>
      <point x="493.3114754098361" y="228.13114754098362"/>
      <point x="493.3114754098361" y="256.0" type="curve" smooth="yes"/>
      <point x="493.3114754098361" y="308.73770491803276"/>
      <point x="463.8196721311475" y="374.0983606557377"/>
      <point x="428.95081967213116" y="374.0983606557377" type="curve" smooth="yes"/>
      <point x="397.45901639344265" y="374.0983606557377"/>
      <point x="356.9672131147541" y="354.8524590163934"/>
      <point x="356.9672131147541" y="320.3606557377049" type="curve" smooth="yes"/>
      <point x="356.9672131147541" y="277.24590163934425"/>
      <point x="394.8360655737705" y="211.5081967213115"/>
    </contour>
  </outline>
</glyph>
<glyph name="uni066B" format="2">
  <advance width="315.7049180327869"/>
  <unicode hex="066B"/>
  <outline>
    <contour>
      <point x="103.85245901639344" y="25.85245901639344" type="curve" smooth="yes"/>
      <point x="120.22950819672131" y="25.85245901639344"/>
      <point x="138.59016393442624" y="39.22950819672131"/>
      <point x="158.06557377049182" y="58.196721311475414" type="curve" smooth="yes"/>
      <point x="190.9344262295082" y="89.29508196721312"/>
      <point x="254.7049180327869" y="173.70491803278688"/>
      <point x="254.7049180327869" y="227.95081967213116" type="curve" smooth="yes"/>
      <point x="254.7049180327869" y="275.1967213114754"/>
      <point x="225.08196721311475" y="299.1967213114754"/>
      <point x="183.85245901639342" y="299.1967213114754" type="curve" smooth="yes"/>
      <point x="136.60655737704917" y="299.1967213114754"/>
      <point x="90.62295081967213" y="262.9344262295082"/>
      <point x="90.62295081967213" y="214.327868852459" type="curve" smooth="yes"/>
      <point x="90.62295081967213" y="182.70491803278688"/>
      <point x="111.75409836065575" y="156.45901639344262"/>
      <point x="144.1311475409836" y="150.72131147540983" type="curve"/>
      <point x="134.24590163934425" y="129.9344262295082"/>
      <point x="118.34426229508196" y="116.0327868852459"/>
      <point x="84.50819672131148" y="79.08196721311475" type="curve" smooth="yes"/>
      <point x="76.75409836065573" y="70.70491803278688"/>
      <point x="73.0" y="63.83606557377049"/>
      <point x="73.0" y="53.459016393442624" type="curve" smooth="yes"/>
      <point x="73.0" y="42.60655737704918"/>
      <point x="81.85245901639344" y="25.85245901639344"/>
    </contour>
  </outline>
</glyph>
<glyph name="uni066C" format="2">
  <advance width="315.7049180327869"/>
  <unicode hex="066C"/>
  <outline>
    <contour>
      <point x="211.85245901639342" y="401.8688524590164" type="curve" smooth="yes"/>
      <point x="195.47540983606558" y="401.8688524590164"/>
      <point x="177.11475409836066" y="388.4918032786885"/>
      <point x="157.63934426229508" y="369.5245901639344" type="curve" smooth="yes"/>
      <point x="124.77049180327869" y="338.4262295081967"/>
      <point x="61.0" y="254.01639344262296"/>
      <point x="61.0" y="199.77049180327867" type="curve" smooth="yes"/>
      <point x="61.0" y="152.52459016393442"/>
      <point x="90.62295081967213" y="128.52459016393442"/>
      <point x="131.85245901639342" y="128.52459016393442" type="curve" smooth="yes"/>
      <point x="179.0983606557377" y="128.52459016393442"/>
      <point x="225.08196721311475" y="164.78688524590163"/>
      <point x="225.08196721311475" y="213.39344262295083" type="curve" smooth="yes"/>
      <point x="225.08196721311475" y="245.01639344262296"/>
      <point x="203.95081967213116" y="271.2622950819672"/>
      <point x="171.5737704918033" y="277.0" type="curve"/>
      <point x="181.45901639344262" y="297.78688524590166"/>
      <point x="197.36065573770492" y="311.6885245901639"/>
      <point x="231.19672131147541" y="348.6393442622951" type="curve" smooth="yes"/>
      <point x="238.95081967213116" y="357.0163934426229"/>
      <point x="242.7049180327869" y="363.88524590163934"/>
      <point x="242.7049180327869" y="374.2622950819672" type="curve" smooth="yes"/>
      <point x="242.7049180327869" y="385.11475409836066"/>
      <point x="233.85245901639342" y="401.8688524590164"/>
    </contour>
  </outline>
</glyph>
<glyph name="uni0780" format="2">
  <advance width="537.7213114754098"/>
  <unicode hex="0780"/>
  <outline>
    <contour>
      <point x="84.34426229508196" y="-10.0" type="curve" smooth="yes"/>
      <point x="139.0983606557377" y="-10.0"/>
      <point x="212.27868852459017" y="36.39344262295082"/>
      <point x="308.9344262295082" y="113.03278688524591" type="curve" smooth="yes"/>
      <point x="394.1311475409836" y="176.91803278688525"/>
      <point x="462.04918032786884" y="239.91803278688525"/>
      <point x="490.0983606557377" y="282.37704918032784" type="curve" smooth="yes"/>
      <point x="506.4590163934426" y="305.9836065573771"/>
      <point x="508.72131147540983" y="320.3606557377049"/>
      <point x="508.72131147540983" y="331.11475409836066" type="curve" smooth="yes"/>
      <point x="508.72131147540983" y="352.9672131147541"/>
      <point x="497.11475409836066" y="370.344262295082"/>
      <point x="468.37704918032784" y="370.344262295082" type="curve" smooth="yes"/>
      <point x="449.0163934426229" y="370.344262295082"/>
      <point x="424.54098360655735" y="359.0983606557377"/>
      <point x="398.8196721311475" y="329.5081967213115" type="curve" smooth="yes"/>
      <point x="360.24590163934425" y="285.1803278688525"/>
      <point x="314.42622950819674" y="245.344262295082"/>
      <point x="231.65573770491804" y="195.5737704918033" type="curve" smooth="yes"/>
      <point x="173.36065573770492" y="156.2622950819672"/>
      <point x="121.27868852459017" y="125.44262295081967"/>
      <point x="68.32786885245902" y="111.32786885245902" type="curve" smooth="yes"/>
      <point x="33.36065573770492" y="101.8360655737705"/>
      <point x="15.0" y="77.70491803278689"/>
      <point x="15.0" y="46.22950819672131" type="curve" smooth="yes"/>
      <point x="15.0" y="10.868852459016393"/>
      <point x="40.114754098360656" y="-10.0"/>
    </contour>
  </outline>
</glyph>
<glyph name="uni0781" format="2">
  <advance width="681.7377049180328"/>
  <unicode hex="0781"/>
  <outline>
    <contour>
      <point x="8.344262295081968" y="-78.0" type="curve" smooth="yes"/>
      <point x="27.59016393442623" y="-78.0"/>
      <point x="68.39344262295083" y="-66.60655737704917"/>
      <point x="119.08196721311475" y="-31.18032786885246" type="curve" smooth="yes"/>
      <point x="208.13114754098362" y="29.278688524590166"/>
      <point x="273.54098360655735" y="98.67213114754098"/>
      <point x="354.24590163934425" y="197.24590163934425" type="curve"/>
      <point x="359.24590163934425" y="196.8688524590164"/>
      <point x="365.24590163934425" y="196.8688524590164"/>
      <point x="370.62295081967216" y="196.8688524590164" type="curve" smooth="yes"/>
      <point x="453.3114754098361" y="198.11475409836066"/>
      <point x="532.2295081967213" y="221.1639344262295"/>
      <point x="592.7049180327868" y="263.42622950819674" type="curve" smooth="yes"/>
      <point x="645.1311475409836" y="298.1475409836066"/>
      <point x="667.1147540983607" y="326.7704918032787"/>
      <point x="667.1147540983607" y="361.11475409836066" type="curve" smooth="yes"/>
      <point x="667.1147540983607" y="379.344262295082"/>
      <point x="652.5081967213115" y="399.72131147540983"/>
      <point x="623.016393442623" y="399.72131147540983" type="curve" smooth="yes"/>
      <point x="603.7540983606557" y="399.72131147540983"/>
      <point x="579.8524590163935" y="378.78688524590166"/>
      <point x="560.1147540983607" y="361.55737704918033" type="curve" smooth="yes"/>
      <point x="521.2295081967213" y="329.44262295081967"/>
      <point x="483.3606557377049" y="314.1967213114754"/>
      <point x="441.11475409836066" y="312.327868852459" type="curve"/>
      <point x="420.62295081967216" y="343.95081967213116"/>
      <point x="390.37704918032784" y="366.95081967213116"/>
      <point x="342.0327868852459" y="366.95081967213116" type="curve" smooth="yes"/>
      <point x="281.5245901639344" y="366.95081967213116"/>
      <point x="242.29508196721312" y="330.7049180327869"/>
      <point x="242.29508196721312" y="282.0983606557377" type="curve" smooth="yes"/>
      <point x="242.29508196721312" y="265.4754098360656"/>
      <point x="248.91803278688525" y="244.62295081967213"/>
      <point x="259.2950819672131" y="233.49180327868854" type="curve"/>
      <point x="224.2622950819672" y="190.34426229508196"/>
      <point x="168.1311475409836" y="133.22950819672133"/>
      <point x="82.04918032786885" y="81.8688524590164" type="curve" smooth="yes"/>
      <point x="57.016393442622956" y="66.34426229508196"/>
      <point x="22.491803278688526" y="53.59016393442623"/>
      <point x="-9.278688524590164" y="43.459016393442624" type="curve" smooth="yes"/>
      <point x="-41.885245901639344" y="32.59016393442623"/>
      <point x="-58.37704918032787" y="13.344262295081975"/>
      <point x="-58.37704918032787" y="-15.393442622950815" type="curve" smooth="yes"/>
      <point x="-58.37704918032787" y="-55.131147540983605"/>
      <point x="-35.26229508196721" y="-78.0"/>
    </contour>
  </outline>
</glyph>
<glyph name="uni0782" format="2">
  <advance width="815.8524590163935"/>
  <unicode hex="0782"/>
  <outline>
    <contour>
      <point x="9.59016393442623" y="-78.0" type="curve" smooth="yes"/>
      <point x="29.459016393442624" y="-78.0"/>
      <point x="67.26229508196721" y="-66.60655737704919"/>
      <point x="122.19672131147541" y="-30.557377049180328" type="curve" smooth="yes"/>
      <point x="191.55737704918033" y="14.44262295081967"/>
      <point x="285.75409836065575" y="105.90163934426229"/>
      <point x="352.37704918032784" y="198.11475409836066" type="curve"/>
      <point x="358.0" y="197.49180327868854"/>
      <point x="366.3606557377049" y="195.62295081967213"/>
      <point x="381.327868852459" y="195.62295081967213" type="curve" smooth="yes"/>
      <point x="423.88524590163934" y="195.62295081967213"/>
      <point x="463.39344262295083" y="206.0"/>
      <point x="498.6393442622951" y="221.11475409836066" type="curve"/>
      <point x="525.5245901639345" y="198.24590163934425"/>
      <point x="552.0327868852459" y="187.62295081967213"/>
      <point x="594.1311475409836" y="187.62295081967213" type="curve" smooth="yes"/>
      <point x="673.1147540983607" y="187.62295081967213"/>
      <point x="741.983606557377" y="229.5081967213115"/>
      <point x="779.7213114754098" y="290.2295081967213" type="curve" smooth="yes"/>
      <point x="792.8524590163935" y="310.9836065573771"/>
      <point x="800.8524590163935" y="332.11475409836066"/>
      <point x="800.8524590163935" y="352.4918032786885" type="curve" smooth="yes"/>
      <point x="800.8524590163935" y="383.21311475409834"/>
      <point x="787.0" y="399.72131147540983"/>
      <point x="757.1311475409836" y="399.72131147540983" type="curve" smooth="yes"/>
      <point x="736.3770491803278" y="399.72131147540983"/>
      <point x="721.5081967213115" y="387.8196721311475"/>
      <point x="702.0" y="362.0655737704918" type="curve" smooth="yes"/>
      <point x="664.2459016393443" y="312.1967213114754"/>
      <point x="643.2295081967213" y="284.7049180327869"/>
      <point x="614.983606557377" y="284.7049180327869" type="curve" smooth="yes"/>
      <point x="609.8524590163935" y="284.7049180327869"/>
      <point x="601.6065573770492" y="285.08196721311475"/>
      <point x="595.7213114754098" y="285.8360655737705" type="curve"/>
      <point x="599.8524590163935" y="296.21311475409834"/>
      <point x="603.983606557377" y="312.9836065573771"/>
      <point x="603.983606557377" y="329.9836065573771" type="curve" smooth="yes"/>
      <point x="603.983606557377" y="366.8360655737705"/>
      <point x="586.8852459016393" y="385.344262295082"/>
      <point x="555.2622950819672" y="385.344262295082" type="curve" smooth="yes"/>
      <point x="535.1475409836065" y="385.344262295082"/>
      <point x="520.5245901639345" y="370.0983606557377"/>
      <point x="504.1475409836066" y="350.344262295082" type="curve" smooth="yes"/>
      <point x="487.7704918032787" y="330.9672131147541"/>
      <point x="471.6393442622951" y="310.344262295082"/>
      <point x="447.24590163934425" y="305.0983606557377" type="curve"/>
      <point x="431.7377049180328" y="337.72131147540983"/>
      <point x="391.75409836065575" y="366.95081967213116"/>
      <point x="344.655737704918" y="366.95081967213116" type="curve" smooth="yes"/>
      <point x="282.0327868852459" y="366.95081967213116"/>
      <point x="242.91803278688525" y="326.59016393442624"/>
      <point x="242.91803278688525" y="281.72131147540983" type="curve" smooth="yes"/>
      <point x="242.91803278688525" y="266.344262295082"/>
      <point x="248.2950819672131" y="245.49180327868854"/>
      <point x="258.672131147541" y="232.24590163934425" type="curve"/>
      <point x="180.14754098360658" y="147.95081967213116"/>
      <point x="97.88524590163934" y="82.95081967213115"/>
      <point x="4.42622950819672" y="48.44262295081967" type="curve" smooth="yes"/>
      <point x="-40.63934426229508" y="30.47540983606558"/>
      <point x="-57.75409836065574" y="13.344262295081975"/>
      <point x="-57.75409836065574" y="-15.393442622950815" type="curve" smooth="yes"/>
      <point x="-57.75409836065574" y="-55.131147540983605"/>
      <point x="-34.63934426229508" y="-78.0"/>
    </contour>
  </outline>
</glyph>
<glyph name="uni0784" format="2">
  <advance width="732.5573770491803"/>
  <unicode hex="0784"/>
  <outline>
    <contour>
      <point x="288.57377049180326" y="-13.114754098360656" type="curve" smooth="yes"/>
      <point x="490.88524590163934" y="-13.114754098360656"/>
      <point x="673.5573770491803" y="108.1639344262295"/>
      <point x="673.5573770491803" y="266.4918032786885" type="curve" smooth="yes"/>
      <point x="673.5573770491803" y="322.344262295082"/>
      <point x="635.4426229508197" y="370.344262295082"/>
      <point x="554.5901639344262" y="370.344262295082" type="curve" smooth="yes"/>
      <point x="492.344262295082" y="370.344262295082"/>
      <point x="429.11475409836066" y="339.11475409836066"/>
      <point x="389.95081967213116" y="308.344262295082" type="curve"/>
      <point x="364.6885245901639" y="326.0983606557377"/>
      <point x="321.9672131147541" y="340.344262295082"/>
      <point x="277.21311475409834" y="340.344262295082" type="curve" smooth="yes"/>
      <point x="139.0" y="340.344262295082"/>
      <point x="56.50819672131148" y="258.3606557377049"/>
      <point x="56.50819672131148" y="147.86885245901638" type="curve" smooth="yes"/>
      <point x="56.50819672131148" y="51.49180327868852"/>
      <point x="153.49180327868854" y="-13.114754098360656"/>
    </contour>
    <contour>
      <point x="217.0655737704918" y="93.36065573770492" type="curve"/>
      <point x="193.0655737704918" y="105.60655737704919"/>
      <point x="170.327868852459" y="123.73770491803279"/>
      <point x="170.327868852459" y="156.24590163934425" type="curve" smooth="yes"/>
      <point x="170.327868852459" y="205.11475409836066"/>
      <point x="215.19672131147541" y="241.13114754098362"/>
      <point x="269.9672131147541" y="241.13114754098362" type="curve" smooth="yes"/>
      <point x="279.60655737704917" y="241.13114754098362"/>
      <point x="300.8360655737705" y="237.88524590163934"/>
      <point x="310.2295081967213" y="234.13114754098362" type="curve"/>
      <point x="276.3114754098361" y="200.08196721311475"/>
      <point x="230.0983606557377" y="126.88524590163934"/>
    </contour>
    <contour>
      <point x="313.42622950819674" y="82.98360655737704" type="curve"/>
      <point x="353.8196721311475" y="166.88524590163934"/>
      <point x="455.344262295082" y="271.1311475409836"/>
      <point x="529.4754098360655" y="271.1311475409836" type="curve" smooth="yes"/>
      <point x="547.1147540983607" y="271.1311475409836"/>
      <point x="559.1147540983607" y="263.37704918032784"/>
      <point x="559.1147540983607" y="247.7377049180328" type="curve" smooth="yes"/>
      <point x="559.1147540983607" y="179.65573770491804"/>
      <point x="471.7704918032787" y="96.72131147540983"/>
    </contour>
  </outline>
</glyph>
<glyph name="uni0785" format="2">
  <advance width="549.983606557377"/>
  <unicode hex="0785"/>
  <outline>
    <contour>
      <point x="9.344262295081968" y="-78.0" type="curve" smooth="yes"/>
      <point x="76.36065573770492" y="-78.0"/>
      <point x="183.08196721311475" y="-16.065573770491802"/>
      <point x="323.655737704918" y="83.90163934426229" type="curve" smooth="yes"/>
      <point x="416.3606557377049" y="149.62295081967213"/>
      <point x="480.11475409836066" y="203.62295081967213"/>
      <point x="512.1147540983607" y="246.62295081967213" type="curve" smooth="yes"/>
      <point x="527.983606557377" y="267.4918032786885"/>
      <point x="535.983606557377" y="285.73770491803276"/>
      <point x="535.983606557377" y="300.9836065573771" type="curve" smooth="yes"/>
      <point x="535.983606557377" y="320.21311475409834"/>
      <point x="525.639344262295" y="337.59016393442624"/>
      <point x="497.26229508196724" y="337.59016393442624" type="curve" smooth="yes"/>
      <point x="482.1475409836066" y="337.59016393442624"/>
      <point x="461.54098360655735" y="324.72131147540983"/>
      <point x="436.9344262295082" y="300.8688524590164" type="curve" smooth="yes"/>
      <point x="413.44262295081967" y="278.5081967213115"/>
      <point x="388.6885245901639" y="253.62295081967213"/>
      <point x="366.78688524590166" y="234.85245901639342" type="curve"/>
      <point x="342.6393442622951" y="239.0983606557377"/>
      <point x="326.11475409836066" y="255.9672131147541"/>
      <point x="326.11475409836066" y="281.3606557377049" type="curve" smooth="yes"/>
      <point x="326.11475409836066" y="306.3606557377049"/>
      <point x="334.8688524590164" y="321.11475409836066"/>
      <point x="346.11475409836066" y="332.3606557377049" type="curve" smooth="yes"/>
      <point x="368.59016393442624" y="353.59016393442624"/>
      <point x="374.62295081967216" y="361.8524590163934"/>
      <point x="374.62295081967216" y="373.11475409836066" type="curve" smooth="yes"/>
      <point x="374.62295081967216" y="400.9836065573771"/>
      <point x="353.24590163934425" y="414.344262295082"/>
      <point x="323.7704918032787" y="414.344262295082" type="curve" smooth="yes"/>
      <point x="306.1475409836066" y="414.344262295082"/>
      <point x="289.0163934426229" y="408.59016393442624"/>
      <point x="274.016393442623" y="398.45901639344265" type="curve" smooth="yes"/>
      <point x="238.78688524590163" y="375.45901639344265"/>
      <point x="214.672131147541" y="330.8524590163934"/>
      <point x="214.672131147541" y="284.3606557377049" type="curve" smooth="yes"/>
      <point x="214.672131147541" y="232.60655737704917"/>
      <point x="242.04918032786884" y="193.22950819672133"/>
      <point x="281.1803278688525" y="172.11475409836066" type="curve"/>
      <point x="239.0655737704918" y="145.24590163934425"/>
      <point x="199.54098360655738" y="121.60655737704919"/>
      <point x="151.78688524590166" y="98.85245901639345" type="curve" smooth="yes"/>
      <point x="96.52459016393442" y="72.34426229508196"/>
      <point x="50.22950819672131" y="53.459016393442624"/>
      <point x="7.836065573770492" y="47.08196721311475" type="curve" smooth="yes"/>
      <point x="-34.0" y="40.59016393442623"/>
      <point x="-59.0" y="19.34426229508197"/>
      <point x="-59.0" y="-13.770491803278688" type="curve" smooth="yes"/>
      <point x="-59.0" y="-53.131147540983605"/>
      <point x="-36.50819672131148" y="-78.0"/>
    </contour>
  </outline>
</glyph>
<glyph name="uni0786" format="2">
  <advance width="558.0983606557377"/>
  <unicode hex="0786"/>
  <outline>
    <contour>
      <point x="87.9672131147541" y="-10.0" type="curve" smooth="yes"/>
      <point x="148.91803278688525" y="-10.0"/>
      <point x="243.78688524590166" y="28.360655737704917"/>
      <point x="366.6393442622951" y="130.08196721311475" type="curve" smooth="yes"/>
      <point x="416.04918032786884" y="168.9672131147541"/>
      <point x="472.9344262295082" y="218.18032786885246"/>
      <point x="502.3606557377049" y="260.75409836065575" type="curve" smooth="yes"/>
      <point x="518.6065573770492" y="284.24590163934425"/>
      <point x="527.2295081967213" y="304.8688524590164"/>
      <point x="527.2295081967213" y="322.11475409836066" type="curve" smooth="yes"/>
      <point x="527.2295081967213" y="350.8524590163934"/>
      <point x="514.360655737705" y="370.344262295082"/>
      <point x="482.1311475409836" y="370.344262295082" type="curve" smooth="yes"/>
      <point x="455.6393442622951" y="370.344262295082"/>
      <point x="431.655737704918" y="354.0983606557377"/>
      <point x="411.91803278688525" y="323.4918032786885" type="curve" smooth="yes"/>
      <point x="386.55737704918033" y="284.016393442623"/>
      <point x="306.57377049180326" y="191.2622950819672"/>
      <point x="231.40983606557376" y="144.4918032786885" type="curve" smooth="yes"/>
      <point x="217.39344262295083" y="135.60655737704917"/>
      <point x="200.75409836065575" y="126.85245901639344"/>
      <point x="186.98360655737704" y="121.47540983606558" type="curve"/>
      <point x="231.75409836065575" y="185.327868852459"/>
      <point x="259.45901639344265" y="234.77049180327867"/>
      <point x="259.45901639344265" y="272.3606557377049" type="curve" smooth="yes"/>
      <point x="259.45901639344265" y="313.9836065573771"/>
      <point x="244.7049180327869" y="338.21311475409834"/>
      <point x="203.47540983606558" y="338.21311475409834" type="curve" smooth="yes"/>
      <point x="160.21311475409837" y="338.21311475409834"/>
      <point x="140.0" y="312.1639344262295"/>
      <point x="131.01639344262296" y="257.26229508196724" type="curve" smooth="yes"/>
      <point x="123.50819672131148" y="213.21311475409837"/>
      <point x="113.88524590163934" y="182.47540983606558"/>
      <point x="74.91803278688525" y="123.9672131147541" type="curve" smooth="yes"/>
      <point x="36.49180327868852" y="63.59016393442623"/>
      <point x="29.62295081967213" y="59.57377049180328"/>
      <point x="29.62295081967213" y="33.22950819672131" type="curve" smooth="yes"/>
      <point x="29.62295081967213" y="10.491803278688524"/>
      <point x="54.98360655737705" y="-10.0"/>
    </contour>
  </outline>
</glyph>
<glyph name="uni0787" format="2">
  <advance width="539.8524590163935"/>
  <unicode hex="0787"/>
  <outline>
    <contour>
      <point x="7.983606557377044" y="-10.0" type="curve" smooth="yes"/>
      <point x="42.59016393442623" y="-10.0"/>
      <point x="92.9672131147541" y="17.360655737704917"/>
      <point x="165.29508196721312" y="64.57377049180327" type="curve" smooth="yes"/>
      <point x="226.98360655737704" y="104.60655737704917"/>
      <point x="328.8360655737705" y="192.81967213114754"/>
      <point x="370.29508196721315" y="244.54098360655738" type="curve"/>
      <point x="368.40983606557376" y="196.70491803278688"/>
      <point x="348.1475409836066" y="158.81967213114754"/>
      <point x="318.4918032786885" y="114.54098360655738" type="curve" smooth="yes"/>
      <point x="300.0" y="86.31147540983608"/>
      <point x="285.5245901639344" y="66.59016393442623"/>
      <point x="285.5245901639344" y="44.22950819672131" type="curve" smooth="yes"/>
      <point x="285.5245901639344" y="17.114754098360656"/>
      <point x="307.26229508196724" y="-0.3770491803278688"/>
      <point x="340.8688524590164" y="-0.3770491803278688" type="curve" smooth="yes"/>
      <point x="366.0983606557377" y="-0.3770491803278688"/>
      <point x="390.45901639344265" y="16.98360655737705"/>
      <point x="414.5409836065574" y="55.278688524590166" type="curve" smooth="yes"/>
      <point x="456.57377049180326" y="116.1639344262295"/>
      <point x="481.4754098360656" y="185.327868852459"/>
      <point x="481.4754098360656" y="268.4918032786885" type="curve" smooth="yes"/>
      <point x="481.4754098360656" y="334.1967213114754"/>
      <point x="459.1311475409836" y="370.344262295082"/>
      <point x="406.5081967213115" y="370.344262295082" type="curve" smooth="yes"/>
      <point x="367.7377049180328" y="370.344262295082"/>
      <point x="326.0983606557377" y="337.5409836065574"/>
      <point x="291.016393442623" y="299.21311475409834" type="curve" smooth="yes"/>
      <point x="243.47540983606558" y="247.672131147541"/>
      <point x="186.21311475409834" y="201.91803278688525"/>
      <point x="121.55737704918033" y="165.29508196721312" type="curve" smooth="yes"/>
      <point x="80.32786885245902" y="141.44262295081967"/>
      <point x="36.47540983606557" y="122.45901639344262"/>
      <point x="-6.770491803278688" y="109.45901639344262" type="curve" smooth="yes"/>
      <point x="-40.131147540983605" y="99.21311475409836"/>
      <point x="-59.0" y="78.47540983606558"/>
      <point x="-59.0" y="46.98360655737705" type="curve" smooth="yes"/>
      <point x="-59.0" y="10.245901639344263"/>
      <point x="-36.131147540983605" y="-10.0"/>
    </contour>
  </outline>
</glyph>
<glyph name="uni0788" format="2">
  <advance width="550.4590163934427"/>
  <unicode hex="0788"/>
  <outline>
    <contour>
      <point x="11.721311475409834" y="-78.0" type="curve" smooth="yes"/>
      <point x="36.47540983606557" y="-78.0"/>
      <point x="107.31147540983606" y="-52.32786885245902"/>
      <point x="176.40983606557376" y="-9.836065573770492" type="curve" smooth="yes"/>
      <point x="260.88524590163934" y="42.0327868852459"/>
      <point x="395.5409836065574" y="146.9672131147541"/>
      <point x="448.9344262295082" y="213.8360655737705" type="curve" smooth="yes"/>
      <point x="478.327868852459" y="250.9672131147541"/>
      <point x="495.4590163934426" y="290.8524590163934"/>
      <point x="495.4590163934426" y="331.4918032786885" type="curve" smooth="yes"/>
      <point x="495.4590163934426" y="386.9836065573771"/>
      <point x="448.8524590163934" y="414.344262295082"/>
      <point x="379.88524590163934" y="414.344262295082" type="curve" smooth="yes"/>
      <point x="272.2622950819672" y="414.344262295082"/>
      <point x="151.95081967213116" y="322.3606557377049"/>
      <point x="151.95081967213116" y="229.63934426229508" type="curve" smooth="yes"/>
      <point x="151.95081967213116" y="191.39344262295083"/>
      <point x="170.95081967213116" y="156.9016393442623"/>
      <point x="212.18032786885246" y="139.63934426229508" type="curve"/>
      <point x="191.37704918032787" y="125.98360655737704"/>
      <point x="159.0655737704918" y="107.95081967213115"/>
      <point x="129.8688524590164" y="93.91803278688525" type="curve" smooth="yes"/>
      <point x="78.67213114754098" y="68.57377049180329"/>
      <point x="25.229508196721312" y="48.96721311475409"/>
      <point x="-3.0327868852458977" y="41.34426229508196" type="curve" smooth="yes"/>
      <point x="-38.01639344262295" y="31.229508196721312"/>
      <point x="-59.0" y="14.721311475409834"/>
      <point x="-59.0" y="-17.393442622950815" type="curve" smooth="yes"/>
      <point x="-59.0" y="-54.131147540983605"/>
      <point x="-35.50819672131148" y="-78.0"/>
    </contour>
    <contour>
      <point x="312.39344262295083" y="208.4918032786885" type="curve"/>
      <point x="287.0163934426229" y="211.7377049180328"/>
      <point x="264.2622950819672" y="220.60655737704917"/>
      <point x="264.2622950819672" y="239.75409836065575" type="curve" smooth="yes"/>
      <point x="264.2622950819672" y="280.88524590163934"/>
      <point x="319.0163934426229" y="324.37704918032784"/>
      <point x="360.88524590163934" y="324.37704918032784" type="curve" smooth="yes"/>
      <point x="379.5245901639344" y="324.37704918032784"/>
      <point x="383.27868852459017" y="314.75409836065575"/>
      <point x="383.27868852459017" y="306.8688524590164" type="curve" smooth="yes"/>
      <point x="383.27868852459017" y="275.9836065573771"/>
      <point x="357.11475409836066" y="244.59016393442624"/>
    </contour>
  </outline>
</glyph>
<glyph name="uni0789" format="2">
  <advance width="519.8688524590164"/>
  <unicode hex="0789"/>
  <outline>
    <contour>
      <point x="31.34426229508197" y="-20.0" type="curve" smooth="yes"/>
      <point x="45.9672131147541" y="-20.0"/>
      <point x="70.09836065573771" y="-15.868852459016393"/>
      <point x="100.47540983606558" y="-5.868852459016393" type="curve" smooth="yes"/>
      <point x="136.4918032786885" y="5.885245901639344"/>
      <point x="179.13114754098362" y="24.01639344262295"/>
      <point x="221.7377049180328" y="47.50819672131148" type="curve" smooth="yes"/>
      <point x="291.4918032786885" y="85.63934426229508"/>
      <point x="395.62295081967216" y="158.75409836065575"/>
      <point x="446.37704918032784" y="223.52459016393442" type="curve" smooth="yes"/>
      <point x="471.9836065573771" y="256.1311475409836"/>
      <point x="480.8688524590164" y="285.24590163934425"/>
      <point x="480.8688524590164" y="311.4918032786885" type="curve" smooth="yes"/>
      <point x="480.8688524590164" y="375.1311475409836"/>
      <point x="399.72131147540983" y="399.72131147540983"/>
      <point x="295.5245901639344" y="399.72131147540983" type="curve" smooth="yes"/>
      <point x="236.27868852459017" y="399.72131147540983"/>
      <point x="192.14754098360655" y="394.72131147540983"/>
      <point x="161.39344262295083" y="385.0983606557377" type="curve" smooth="yes"/>
      <point x="119.63934426229508" y="372.4754098360656"/>
      <point x="102.37704918032787" y="351.60655737704917"/>
      <point x="102.37704918032787" y="326.11475409836066" type="curve" smooth="yes"/>
      <point x="102.37704918032787" y="299.5081967213115"/>
      <point x="120.73770491803279" y="276.2622950819672"/>
      <point x="154.72131147540983" y="276.2622950819672" type="curve" smooth="yes"/>
      <point x="173.7377049180328" y="276.2622950819672"/>
      <point x="196.4918032786885" y="284.0163934426229"/>
      <point x="224.24590163934425" y="292.6393442622951" type="curve" smooth="yes"/>
      <point x="249.24590163934425" y="300.26229508196724"/>
      <point x="278.4918032786885" y="306.88524590163934"/>
      <point x="308.75409836065575" y="306.88524590163934" type="curve" smooth="yes"/>
      <point x="332.6393442622951" y="306.88524590163934"/>
      <point x="357.7704918032787" y="303.75409836065575"/>
      <point x="357.7704918032787" y="294.37704918032784" type="curve" smooth="yes"/>
      <point x="357.7704918032787" y="279.88524590163934"/>
      <point x="339.1967213114754" y="257.40983606557376"/>
      <point x="300.4754098360656" y="224.29508196721312" type="curve" smooth="yes"/>
      <point x="227.70491803278688" y="161.62295081967213"/>
      <point x="151.04918032786884" y="132.85245901639342"/>
      <point x="81.09836065573771" y="113.70491803278688" type="curve" smooth="yes"/>
      <point x="58.47540983606557" y="107.70491803278689"/>
      <point x="37.721311475409834" y="102.32786885245902"/>
      <point x="19.081967213114755" y="97.95081967213115" type="curve" smooth="yes"/>
      <point x="-19.639344262295083" y="88.45901639344262"/>
      <point x="-39.62295081967213" y="68.59016393442623"/>
      <point x="-39.62295081967213" y="36.22950819672131" type="curve" smooth="yes"/>
      <point x="-39.62295081967213" y="-1.131147540983605"/>
      <point x="-16.508196721311474" y="-20.0"/>
    </contour>
  </outline>
</glyph>
<glyph name="uni078A" format="2">
  <advance width="454.60655737704917"/>
  <unicode hex="078A"/>
  <outline>
    <contour>
      <point x="11.098360655737707" y="-78.62295081967213" type="curve" smooth="yes"/>
      <point x="37.08196721311475" y="-78.62295081967213"/>
      <point x="93.60655737704919" y="-58.114754098360656"/>
      <point x="153.11475409836066" y="-23.360655737704917" type="curve" smooth="yes"/>
      <point x="229.55737704918033" y="21.852459016393443"/>
      <point x="368.8688524590164" y="114.50819672131148"/>
      <point x="368.8688524590164" y="181.24590163934425" type="curve" smooth="yes"/>
      <point x="368.8688524590164" y="204.4918032786885"/>
      <point x="354.62295081967216" y="213.7377049180328"/>
      <point x="331.0" y="224.49180327868854" type="curve"/>
      <point x="341.7704918032787" y="229.13114754098362"/>
      <point x="356.655737704918" y="237.2622950819672"/>
      <point x="375.39344262295083" y="249.88524590163934" type="curve" smooth="yes"/>
      <point x="404.75409836065575" y="268.88524590163934"/>
      <point x="427.4918032786885" y="292.75409836065575"/>
      <point x="427.4918032786885" y="322.8688524590164" type="curve" smooth="yes"/>
      <point x="427.4918032786885" y="352.62295081967216"/>
      <point x="390.24590163934425" y="363.8688524590164"/>
      <point x="347.8688524590164" y="375.24590163934425" type="curve"/>
      <point x="360.1475409836066" y="381.5081967213115"/>
      <point x="378.6393442622951" y="391.88524590163934"/>
      <point x="395.0" y="402.75409836065575" type="curve" smooth="yes"/>
      <point x="410.62295081967216" y="413.5081967213115"/>
      <point x="423.60655737704917" y="425.88524590163934"/>
      <point x="423.60655737704917" y="439.0" type="curve" smooth="yes"/>
      <point x="423.60655737704917" y="464.73770491803276"/>
      <point x="402.24590163934425" y="484.60655737704917"/>
      <point x="376.2622950819672" y="484.60655737704917" type="curve" smooth="yes"/>
      <point x="348.7704918032787" y="484.60655737704917"/>
      <point x="323.6885245901639" y="457.37704918032784"/>
      <point x="289.655737704918" y="436.8524590163934" type="curve" smooth="yes"/>
      <point x="252.98360655737704" y="414.8196721311475"/>
      <point x="211.78688524590163" y="400.9836065573771"/>
      <point x="211.78688524590163" y="369.3606557377049" type="curve" smooth="yes"/>
      <point x="211.78688524590163" y="349.11475409836066"/>
      <point x="229.88524590163934" y="338.8688524590164"/>
      <point x="251.1311475409836" y="331.24590163934425" type="curve" smooth="yes"/>
      <point x="281.91803278688525" y="319.9836065573771"/>
      <point x="308.7704918032787" y="317.37704918032784"/>
      <point x="308.7704918032787" y="309.11475409836066" type="curve" smooth="yes"/>
      <point x="308.7704918032787" y="300.8688524590164"/>
      <point x="284.9016393442623" y="294.60655737704917"/>
      <point x="251.18032786885246" y="279.4918032786885" type="curve" smooth="yes"/>
      <point x="210.21311475409834" y="260.75409836065575"/>
      <point x="185.55737704918033" y="244.62295081967213"/>
      <point x="185.55737704918033" y="223.8688524590164" type="curve" smooth="yes"/>
      <point x="185.55737704918033" y="208.98360655737704"/>
      <point x="194.55737704918033" y="198.36065573770492"/>
      <point x="205.80327868852459" y="189.49180327868854" type="curve" smooth="yes"/>
      <point x="217.93442622950818" y="180.11475409836066"/>
      <point x="238.672131147541" y="172.37704918032787"/>
      <point x="251.75409836065575" y="167.49180327868854" type="curve" smooth="yes"/>
      <point x="251.75409836065575" y="142.49180327868854"/>
      <point x="196.672131147541" y="110.8688524590164"/>
      <point x="121.75409836065573" y="81.34426229508196" type="curve" smooth="yes"/>
      <point x="85.8688524590164" y="67.21311475409836"/>
      <point x="49.73770491803279" y="58.21311475409837"/>
      <point x="13.57377049180328" y="49.950819672131146" type="curve" smooth="yes"/>
      <point x="-31.0" y="39.8360655737705"/>
      <point x="-59.0" y="15.47540983606558"/>
      <point x="-59.0" y="-16.016393442622956" type="curve" smooth="yes"/>
      <point x="-59.0" y="-53.75409836065574"/>
      <point x="-36.131147540983605" y="-78.62295081967213"/>
    </contour>
  </outline>
</glyph>
<glyph name="uni078D" format="2">
  <advance width="571.639344262295"/>
  <unicode hex="078D"/>
  <outline>
    <contour>
      <point x="11.721311475409834" y="-78.0" type="curve" smooth="yes"/>
      <point x="36.21311475409836" y="-78.0"/>
      <point x="80.22950819672131" y="-65.36065573770492"/>
      <point x="163.04918032786884" y="-16.14754098360656" type="curve" smooth="yes"/>
      <point x="295.0" y="62.0655737704918"/>
      <point x="455.672131147541" y="231.80327868852459"/>
      <point x="498.95081967213116" y="284.95081967213116" type="curve" smooth="yes"/>
      <point x="515.4918032786885" y="305.9836065573771"/>
      <point x="523.2622950819672" y="320.24590163934425"/>
      <point x="523.2622950819672" y="336.39344262295083" type="curve" smooth="yes"/>
      <point x="523.2622950819672" y="361.1311475409836"/>
      <point x="508.0163934426229" y="375.24590163934425"/>
      <point x="482.40983606557376" y="375.24590163934425" type="curve" smooth="yes"/>
      <point x="462.5245901639344" y="375.24590163934425"/>
      <point x="442.0163934426229" y="369.75409836065575"/>
      <point x="416.9016393442623" y="366.5081967213115" type="curve" smooth="yes"/>
      <point x="391.016393442623" y="362.88524590163934"/>
      <point x="360.7704918032787" y="358.6393442622951"/>
      <point x="337.37704918032784" y="357.6393442622951" type="curve"/>
      <point x="361.1311475409836" y="372.39344262295083"/>
      <point x="379.1311475409836" y="387.6393442622951"/>
      <point x="390.75409836065575" y="402.2622950819672" type="curve" smooth="yes"/>
      <point x="401.62295081967216" y="415.1311475409836"/>
      <point x="407.24590163934425" y="428.0"/>
      <point x="407.24590163934425" y="438.0" type="curve" smooth="yes"/>
      <point x="407.24590163934425" y="463.73770491803276"/>
      <point x="387.88524590163934" y="484.60655737704917"/>
      <point x="359.9016393442623" y="484.60655737704917" type="curve" smooth="yes"/>
      <point x="339.78688524590166" y="484.60655737704917"/>
      <point x="321.672131147541" y="476.9836065573771"/>
      <point x="308.4262295081967" y="461.11475409836066" type="curve" smooth="yes"/>
      <point x="280.42622950819674" y="429.11475409836066"/>
      <point x="256.40983606557376" y="402.11475409836066"/>
      <point x="222.14754098360655" y="377.9836065573771" type="curve" smooth="yes"/>
      <point x="202.54098360655738" y="364.24590163934425"/>
      <point x="189.9344262295082" y="346.88524590163934"/>
      <point x="189.9344262295082" y="329.6393442622951" type="curve" smooth="yes"/>
      <point x="189.9344262295082" y="294.9016393442623"/>
      <point x="224.04918032786884" y="270.78688524590166"/>
      <point x="285.27868852459017" y="270.78688524590166" type="curve" smooth="yes"/>
      <point x="314.42622950819674" y="270.78688524590166"/>
      <point x="348.78688524590166" y="272.40983606557376"/>
      <point x="369.44262295081967" y="276.40983606557376" type="curve"/>
      <point x="315.95081967213116" y="228.18032786885246"/>
      <point x="253.44262295081967" y="178.44262295081967"/>
      <point x="204.70491803278688" y="146.34426229508196" type="curve" smooth="yes"/>
      <point x="105.50819672131148" y="79.54098360655738"/>
      <point x="53.1639344262295" y="61.31147540983606"/>
      <point x="-3.0327868852459012" y="45.081967213114766" type="curve" smooth="yes"/>
      <point x="-39.885245901639344" y="34.9672131147541"/>
      <point x="-59.62295081967213" y="16.34426229508196"/>
      <point x="-59.62295081967213" y="-15.393442622950815" type="curve" smooth="yes"/>
      <point x="-59.62295081967213" y="-53.131147540983605"/>
      <point x="-35.50819672131148" y="-78.0"/>
    </contour>
  </outline>
</glyph>
<glyph name="uni078E" format="2">
  <advance width="501.24590163934425"/>
  <unicode hex="078E"/>
  <outline>
    <contour>
      <point x="68.01639344262296" y="-44.0" type="curve" smooth="yes"/>
      <point x="204.11475409836066" y="-44.0"/>
      <point x="361.2295081967213" y="10.0"/>
      <point x="361.2295081967213" y="112.0" type="curve" smooth="yes"/>
      <point x="361.2295081967213" y="137.0"/>
      <point x="340.2295081967213" y="160.0"/>
      <point x="319.2295081967213" y="180.0" type="curve" smooth="yes"/>
      <point x="301.3606557377049" y="196.8688524590164"/>
      <point x="289.2295081967213" y="213.60655737704917"/>
      <point x="289.2295081967213" y="219.11475409836066" type="curve" smooth="yes"/>
      <point x="289.2295081967213" y="228.11475409836066"/>
      <point x="297.8688524590164" y="237.11475409836066"/>
      <point x="325.2295081967213" y="252.98360655737704" type="curve" smooth="yes"/>
      <point x="344.73770491803276" y="264.11475409836066"/>
      <point x="375.11475409836066" y="280.24590163934425"/>
      <point x="407.0" y="295.75409836065575" type="curve" smooth="yes"/>
      <point x="446.75409836065575" y="315.5081967213115"/>
      <point x="473.0" y="330.0"/>
      <point x="473.0" y="353.9836065573771" type="curve" smooth="yes"/>
      <point x="473.0" y="378.8524590163934"/>
      <point x="456.0" y="403.45901639344265"/>
      <point x="426.0" y="403.45901639344265" type="curve" smooth="yes"/>
      <point x="404.62295081967216" y="403.45901639344265"/>
      <point x="363.72131147540983" y="384.1967213114754"/>
      <point x="330.5081967213115" y="367.21311475409834" type="curve" smooth="yes"/>
      <point x="277.11475409836066" y="339.95081967213116"/>
      <point x="256.39344262295083" y="325.9672131147541"/>
      <point x="243.77049180327867" y="317.344262295082" type="curve" smooth="yes"/>
      <point x="191.52459016393442" y="281.72131147540983"/>
      <point x="178.77049180327867" y="248.8688524590164"/>
      <point x="178.77049180327867" y="222.0" type="curve" smooth="yes"/>
      <point x="178.77049180327867" y="193.0"/>
      <point x="193.65573770491804" y="173.36065573770492"/>
      <point x="212.65573770491804" y="150.86885245901638" type="curve" smooth="yes"/>
      <point x="226.91803278688525" y="134.36065573770492"/>
      <point x="244.54098360655738" y="114.0"/>
      <point x="244.54098360655738" y="103.0" type="curve" smooth="yes"/>
      <point x="244.54098360655738" y="74.09836065573771"/>
      <point x="175.14754098360658" y="56.459016393442624"/>
      <point x="90.0" y="56.459016393442624" type="curve" smooth="yes"/>
      <point x="64.37704918032787" y="56.459016393442624"/>
      <point x="43.377049180327866" y="62.459016393442624"/>
      <point x="27.0" y="67.45901639344262" type="curve" smooth="yes"/>
      <point x="11.0" y="72.45901639344262"/>
      <point x="1.0" y="75.45901639344262"/>
      <point x="-10.0" y="75.45901639344262" type="curve" smooth="yes"/>
      <point x="-35.0" y="75.45901639344262"/>
      <point x="-56.0" y="50.47540983606557"/>
      <point x="-56.0" y="18.114754098360656" type="curve" smooth="yes"/>
      <point x="-56.0" y="-9.0"/>
      <point x="-36.0" y="-25.0"/>
      <point x="-9.0" y="-34.0" type="curve" smooth="yes"/>
      <point x="13.0" y="-41.0"/>
      <point x="39.0" y="-44.0"/>
    </contour>
  </outline>
</glyph>
<glyph name="uni078F" format="2">
  <advance width="728.8524590163935"/>
  <unicode hex="078F"/>
  <outline>
    <contour>
      <point x="278.45901639344265" y="-156.0" type="curve" smooth="yes"/>
      <point x="355.1639344262295" y="-156.0"/>
      <point x="419.7049180327869" y="-148.24590163934425"/>
      <point x="454.7049180327869" y="-136.75409836065575" type="curve" smooth="yes"/>
      <point x="483.45901639344265" y="-127.50819672131148"/>
      <point x="499.0983606557377" y="-111.39344262295081"/>
      <point x="499.0983606557377" y="-90.01639344262296" type="curve" smooth="yes"/>
      <point x="499.0983606557377" y="-61.14754098360656"/>
      <point x="480.73770491803276" y="-45.0327868852459"/>
      <point x="454.37704918032784" y="-45.0327868852459" type="curve" smooth="yes"/>
      <point x="432.5081967213115" y="-45.0327868852459"/>
      <point x="413.2622950819672" y="-48.40983606557377"/>
      <point x="394.2622950819672" y="-50.40983606557377" type="curve" smooth="yes"/>
      <point x="366.1475409836066" y="-53.40983606557377"/>
      <point x="336.7704918032787" y="-56.786885245901644"/>
      <point x="284.4590163934426" y="-56.786885245901644" type="curve" smooth="yes"/>
      <point x="199.80327868852459" y="-56.786885245901644"/>
      <point x="161.9344262295082" y="-34.52459016393442"/>
      <point x="161.9344262295082" y="9.606557377049185" type="curve" smooth="yes"/>
      <point x="161.9344262295082" y="74.75409836065573"/>
      <point x="219.77049180327867" y="141.14754098360655"/>
      <point x="287.1311475409836" y="183.88524590163934" type="curve"/>
      <point x="299.88524590163934" y="173.2622950819672"/>
      <point x="318.8688524590164" y="162.14754098360655"/>
      <point x="333.8524590163934" y="162.14754098360655" type="curve" smooth="yes"/>
      <point x="360.60655737704917" y="162.14754098360655"/>
      <point x="390.37704918032784" y="179.39344262295083"/>
      <point x="419.6393442622951" y="219.29508196721312" type="curve"/>
      <point x="435.37704918032784" y="178.9016393442623"/>
      <point x="453.1803278688525" y="154.52459016393442"/>
      <point x="491.9016393442623" y="154.52459016393442" type="curve" smooth="yes"/>
      <point x="539.2459016393443" y="154.52459016393442"/>
      <point x="582.8360655737705" y="194.47540983606558"/>
      <point x="640.5573770491803" y="247.81967213114754" type="curve" smooth="yes"/>
      <point x="678.7049180327868" y="282.21311475409834"/>
      <point x="701.360655737705" y="311.9672131147541"/>
      <point x="701.360655737705" y="343.11475409836066" type="curve" smooth="yes"/>
      <point x="701.360655737705" y="368.8524590163934"/>
      <point x="686.8688524590164" y="385.344262295082"/>
      <point x="656.016393442623" y="385.344262295082" type="curve" smooth="yes"/>
      <point x="636.639344262295" y="385.344262295082"/>
      <point x="620.7704918032787" y="380.72131147540983"/>
      <point x="605.9016393442623" y="368.344262295082" type="curve" smooth="yes"/>
      <point x="594.655737704918" y="358.9672131147541"/>
      <point x="584.9180327868853" y="345.72131147540983"/>
      <point x="571.032786885246" y="323.45901639344265" type="curve" smooth="yes"/>
      <point x="549.655737704918" y="287.59016393442624"/>
      <point x="524.1311475409836" y="255.60655737704917"/>
      <point x="512.2622950819672" y="255.60655737704917" type="curve" smooth="yes"/>
      <point x="501.1311475409836" y="255.60655737704917"/>
      <point x="494.73770491803276" y="293.4262295081967"/>
      <point x="491.73770491803276" y="336.0" type="curve" smooth="yes"/>
      <point x="490.3606557377049" y="353.62295081967216"/>
      <point x="480.3606557377049" y="370.344262295082"/>
      <point x="455.7704918032787" y="370.344262295082" type="curve" smooth="yes"/>
      <point x="445.0327868852459" y="370.344262295082"/>
      <point x="433.78688524590166" y="357.9836065573771"/>
      <point x="422.78688524590166" y="345.11475409836066" type="curve" smooth="yes"/>
      <point x="386.95081967213116" y="303.42622950819674"/>
      <point x="366.5409836065574" y="282.0"/>
      <point x="352.26229508196724" y="282.0" type="curve" smooth="yes"/>
      <point x="343.62295081967216" y="282.0"/>
      <point x="332.2295081967213" y="306.5081967213115"/>
      <point x="318.59016393442624" y="331.39344262295083" type="curve" smooth="yes"/>
      <point x="306.4754098360656" y="354.983606557377"/>
      <point x="291.8688524590164" y="370.72131147540983"/>
      <point x="274.1311475409836" y="370.72131147540983" type="curve" smooth="yes"/>
      <point x="220.9016393442623" y="370.72131147540983"/>
      <point x="173.78688524590166" y="324.62295081967216"/>
      <point x="173.78688524590166" y="287.88524590163934" type="curve" smooth="yes"/>
      <point x="173.78688524590166" y="269.7704918032787"/>
      <point x="183.27868852459017" y="260.26229508196724"/>
      <point x="196.39344262295083" y="250.63934426229508" type="curve" smooth="yes"/>
      <point x="203.77049180327867" y="244.50819672131146"/>
      <point x="214.39344262295083" y="238.13114754098362"/>
      <point x="222.77049180327867" y="233.37704918032787" type="curve"/>
      <point x="134.4262295081967" y="179.14754098360655"/>
      <point x="49.0" y="94.11475409836066"/>
      <point x="49.0" y="-1.3934426229508183" type="curve" smooth="yes"/>
      <point x="49.0" y="-95.72131147540983"/>
      <point x="120.68852459016394" y="-156.0"/>
    </contour>
  </outline>
</glyph>
<glyph name="uni0791" format="2">
  <advance width="398.0983606557377"/>
  <unicode hex="0791"/>
  <outline>
    <contour>
      <point x="251.13114754098362" y="-44.0" type="curve" smooth="yes"/>
      <point x="306.0" y="-44.0"/>
      <point x="329.4754098360656" y="-24.868852459016395"/>
      <point x="329.4754098360656" y="10.229508196721312" type="curve" smooth="yes"/>
      <point x="329.4754098360656" y="41.96721311475409"/>
      <point x="315.9836065573771" y="57.34426229508196"/>
      <point x="284.75409836065575" y="57.34426229508196" type="curve" smooth="yes"/>
      <point x="266.1311475409836" y="57.34426229508196"/>
      <point x="252.2622950819672" y="55.96721311475409"/>
      <point x="235.63934426229508" y="55.96721311475409" type="curve" smooth="yes"/>
      <point x="184.22950819672133" y="55.96721311475409"/>
      <point x="138.34426229508196" y="79.98360655737704"/>
      <point x="138.34426229508196" y="96.36065573770492" type="curve" smooth="yes"/>
      <point x="138.34426229508196" y="103.73770491803279"/>
      <point x="161.78688524590163" y="119.40983606557377"/>
      <point x="190.85245901639345" y="132.80327868852459" type="curve" smooth="yes"/>
      <point x="241.70491803278688" y="159.14754098360655"/>
      <point x="280.344262295082" y="170.80327868852459"/>
      <point x="280.344262295082" y="213.8688524590164" type="curve" smooth="yes"/>
      <point x="280.344262295082" y="231.98360655737704"/>
      <point x="269.344262295082" y="243.85245901639342"/>
      <point x="247.7377049180328" y="251.85245901639342" type="curve" smooth="yes"/>
      <point x="211.39344262295083" y="265.8524590163934"/>
      <point x="182.60655737704917" y="272.4754098360656"/>
      <point x="167.72131147540983" y="276.60655737704917" type="curve"/>
      <point x="175.7377049180328" y="281.8688524590164"/>
      <point x="202.22950819672133" y="300.11475409836066"/>
      <point x="222.0983606557377" y="316.62295081967216" type="curve" smooth="yes"/>
      <point x="238.08196721311475" y="329.8688524590164"/>
      <point x="244.8360655737705" y="337.88524590163934"/>
      <point x="244.8360655737705" y="354.62295081967216" type="curve" smooth="yes"/>
      <point x="244.8360655737705" y="374.73770491803276"/>
      <point x="230.0983606557377" y="393.8524590163934"/>
      <point x="200.49180327868854" y="393.8524590163934" type="curve" smooth="yes"/>
      <point x="187.47540983606558" y="393.8524590163934"/>
      <point x="168.8360655737705" y="383.9672131147541"/>
      <point x="149.5737704918033" y="370.95081967213116" type="curve" smooth="yes"/>
      <point x="118.31147540983606" y="350.1803278688525"/>
      <point x="87.44262295081967" y="323.1803278688525"/>
      <point x="68.32786885245902" y="303.55737704918033" type="curve" smooth="yes"/>
      <point x="49.606557377049185" y="285.327868852459"/>
      <point x="39.0" y="274.3114754098361"/>
      <point x="39.0" y="252.60655737704917" type="curve" smooth="yes"/>
      <point x="39.0" y="232.11475409836066"/>
      <point x="53.62295081967213" y="219.24590163934425"/>
      <point x="81.34426229508196" y="212.37704918032787" type="curve" smooth="yes"/>
      <point x="111.85245901639344" y="204.62295081967213"/>
      <point x="135.37704918032787" y="201.62295081967213"/>
      <point x="147.1311475409836" y="199.11475409836066" type="curve"/>
      <point x="96.0655737704918" y="176.1311475409836"/>
      <point x="24.0" y="146.39344262295083"/>
      <point x="24.0" y="84.22950819672131" type="curve" smooth="yes"/>
      <point x="24.0" y="9.475409836065573"/>
      <point x="161.37704918032787" y="-44.0"/>
    </contour>
  </outline>
</glyph>
<glyph name="uni0792" format="2">
  <advance width="573.7377049180328"/>
  <unicode hex="0792"/>
  <outline>
    <contour>
      <point x="263.37704918032784" y="-156.0" type="curve" smooth="yes"/>
      <point x="312.21311475409834" y="-156.0"/>
      <point x="354.7049180327869" y="-151.37704918032787"/>
      <point x="385.7049180327869" y="-141.88524590163934" type="curve" smooth="yes"/>
      <point x="418.45901639344265" y="-132.01639344262296"/>
      <point x="438.344262295082" y="-116.39344262295081"/>
      <point x="438.344262295082" y="-93.39344262295081" type="curve" smooth="yes"/>
      <point x="438.344262295082" y="-63.1639344262295"/>
      <point x="422.72131147540983" y="-48.67213114754098"/>
      <point x="399.2295081967213" y="-48.67213114754098" type="curve" smooth="yes"/>
      <point x="379.4918032786885" y="-48.67213114754098"/>
      <point x="361.37704918032784" y="-51.540983606557376"/>
      <point x="345.1311475409836" y="-53.16393442622951" type="curve" smooth="yes"/>
      <point x="322.5081967213115" y="-55.40983606557377"/>
      <point x="298.26229508196724" y="-56.78688524590163"/>
      <point x="270.37704918032784" y="-56.78688524590163" type="curve" smooth="yes"/>
      <point x="194.75409836065575" y="-56.78688524590163"/>
      <point x="161.9344262295082" y="-43.1639344262295"/>
      <point x="161.9344262295082" y="-14.393442622950822" type="curve" smooth="yes"/>
      <point x="161.9344262295082" y="16.37704918032787"/>
      <point x="195.1639344262295" y="66.01639344262296"/>
      <point x="282.1311475409836" y="123.8688524590164" type="curve"/>
      <point x="304.62295081967216" y="111.24590163934427"/>
      <point x="330.3606557377049" y="100.0"/>
      <point x="355.0983606557377" y="93.37704918032787" type="curve" smooth="yes"/>
      <point x="372.60655737704917" y="88.62295081967213"/>
      <point x="389.4918032786885" y="85.62295081967213"/>
      <point x="405.62295081967216" y="85.62295081967213" type="curve" smooth="yes"/>
      <point x="445.4754098360656" y="85.62295081967213"/>
      <point x="460.344262295082" y="107.73770491803279"/>
      <point x="460.344262295082" y="134.47540983606558" type="curve" smooth="yes"/>
      <point x="460.344262295082" y="157.9672131147541"/>
      <point x="447.8360655737705" y="168.11475409836066"/>
      <point x="418.0983606557377" y="176.98360655737704" type="curve" smooth="yes"/>
      <point x="407.59016393442624" y="180.36065573770492"/>
      <point x="397.8360655737705" y="183.60655737704917"/>
      <point x="388.08196721311475" y="187.98360655737704" type="curve"/>
      <point x="429.7049180327869" y="213.22950819672133"/>
      <point x="465.3114754098361" y="235.0983606557377"/>
      <point x="505.21311475409834" y="252.36065573770492" type="curve" smooth="yes"/>
      <point x="538.4918032786885" y="266.62295081967216"/>
      <point x="549.360655737705" y="282.11475409836066"/>
      <point x="549.360655737705" y="309.60655737704917" type="curve" smooth="yes"/>
      <point x="549.360655737705" y="339.2295081967213"/>
      <point x="524.4918032786885" y="353.8360655737705"/>
      <point x="503.0163934426229" y="353.8360655737705" type="curve" smooth="yes"/>
      <point x="488.39344262295083" y="353.8360655737705"/>
      <point x="463.0163934426229" y="344.45901639344265"/>
      <point x="430.5245901639344" y="329.21311475409834" type="curve" smooth="yes"/>
      <point x="393.6393442622951" y="311.45901639344265"/>
      <point x="348.1311475409836" y="285.95081967213116"/>
      <point x="301.0163934426229" y="257.08196721311475" type="curve"/>
      <point x="294.39344262295083" y="263.95081967213116"/>
      <point x="283.26229508196724" y="274.95081967213116"/>
      <point x="276.88524590163934" y="281.7049180327869" type="curve" smooth="yes"/>
      <point x="264.2622950819672" y="295.45901639344265"/>
      <point x="255.88524590163934" y="303.8360655737705"/>
      <point x="232.2622950819672" y="303.8360655737705" type="curve" smooth="yes"/>
      <point x="203.5081967213115" y="303.8360655737705"/>
      <point x="179.0327868852459" y="271.59016393442624"/>
      <point x="179.0327868852459" y="244.47540983606558" type="curve" smooth="yes"/>
      <point x="179.0327868852459" y="222.11475409836066"/>
      <point x="190.39344262295083" y="205.98360655737704"/>
      <point x="204.63934426229508" y="187.7377049180328" type="curve"/>
      <point x="120.27868852459017" y="129.75409836065575"/>
      <point x="49.622950819672134" y="68.11475409836066"/>
      <point x="49.622950819672134" y="-26.770491803278688" type="curve" smooth="yes"/>
      <point x="49.622950819672134" y="-96.98360655737704"/>
      <point x="112.85245901639344" y="-156.0"/>
    </contour>
  </outline>
</glyph>
<glyph name="uni0793" format="2">
  <advance width="678.4754098360655"/>
  <unicode hex="0793"/>
  <outline>
    <contour>
      <point x="285.59016393442624" y="-156.0" type="curve" smooth="yes"/>
      <point x="348.8032786885246" y="-156.0"/>
      <point x="413.8688524590164" y="-151.0"/>
      <point x="455.0163934426229" y="-136.60655737704917" type="curve" smooth="yes"/>
      <point x="492.8524590163934" y="-124.36065573770492"/>
      <point x="512.2131147540983" y="-106.0"/>
      <point x="512.2131147540983" y="-81.01639344262296" type="curve" smooth="yes"/>
      <point x="512.2131147540983" y="-53.0327868852459"/>
      <point x="493.8524590163934" y="-40.786885245901644"/>
      <point x="466.8688524590164" y="-40.786885245901644" type="curve" smooth="yes"/>
      <point x="446.54098360655735" y="-40.786885245901644"/>
      <point x="437.2950819672131" y="-44.03278688524591"/>
      <point x="416.672131147541" y="-48.03278688524591" type="curve" smooth="yes"/>
      <point x="394.40983606557376" y="-52.40983606557377"/>
      <point x="358.75409836065575" y="-56.786885245901644"/>
      <point x="284.344262295082" y="-56.786885245901644" type="curve" smooth="yes"/>
      <point x="194.04918032786884" y="-56.786885245901644"/>
      <point x="158.19672131147541" y="-39.14754098360655"/>
      <point x="158.19672131147541" y="10.360655737704917" type="curve" smooth="yes"/>
      <point x="158.19672131147541" y="38.0327868852459"/>
      <point x="184.2622950819672" y="68.0327868852459"/>
      <point x="258.4918032786885" y="105.39344262295081" type="curve"/>
      <point x="283.8688524590164" y="101.39344262295081"/>
      <point x="310.1311475409836" y="98.77049180327869"/>
      <point x="343.5081967213115" y="98.77049180327869" type="curve" smooth="yes"/>
      <point x="489.1475409836066" y="98.77049180327869"/>
      <point x="649.4754098360655" y="175.52459016393442"/>
      <point x="649.4754098360655" y="288.24590163934425" type="curve" smooth="yes"/>
      <point x="649.4754098360655" y="348.8524590163934"/>
      <point x="608.3770491803278" y="387.2295081967213"/>
      <point x="532.3934426229508" y="387.2295081967213" type="curve" smooth="yes"/>
      <point x="473.75409836065575" y="387.2295081967213"/>
      <point x="426.4918032786885" y="365.45901639344265"/>
      <point x="379.1311475409836" y="328.59016393442624" type="curve"/>
      <point x="345.8688524590164" y="357.11475409836066"/>
      <point x="299.4754098360656" y="371.4754098360656"/>
      <point x="264.88524590163934" y="371.4754098360656" type="curve" smooth="yes"/>
      <point x="154.1311475409836" y="371.4754098360656"/>
      <point x="90.91803278688525" y="301.4754098360656"/>
      <point x="90.91803278688525" y="238.0" type="curve" smooth="yes"/>
      <point x="90.91803278688525" y="192.77049180327867"/>
      <point x="117.26229508196721" y="158.14754098360655"/>
      <point x="153.40983606557376" y="139.37704918032787" type="curve"/>
      <point x="88.60655737704919" y="98.21311475409836"/>
      <point x="45.885245901639344" y="57.950819672131146"/>
      <point x="45.885245901639344" y="-10.393442622950815" type="curve" smooth="yes"/>
      <point x="45.885245901639344" y="-100.98360655737704"/>
      <point x="126.32786885245902" y="-156.0"/>
    </contour>
    <contour>
      <point x="240.1639344262295" y="193.62295081967213" type="curve"/>
      <point x="208.01639344262296" y="201.62295081967213"/>
      <point x="193.5081967213115" y="216.62295081967213"/>
      <point x="193.5081967213115" y="237.37704918032787" type="curve" smooth="yes"/>
      <point x="193.5081967213115" y="258.2295081967213"/>
      <point x="211.11475409836066" y="284.0"/>
      <point x="257.5245901639344" y="284.0" type="curve" smooth="yes"/>
      <point x="278.54098360655735" y="284.0"/>
      <point x="295.0327868852459" y="275.37704918032784"/>
      <point x="307.54098360655735" y="262.24590163934425" type="curve"/>
      <point x="282.91803278688525" y="238.0"/>
      <point x="253.31147540983608" y="206.9016393442623"/>
    </contour>
    <contour>
      <point x="350.7704918032787" y="183.5081967213115" type="curve"/>
      <point x="402.39344262295083" y="238.37704918032787"/>
      <point x="465.0" y="301.8688524590164"/>
      <point x="510.39344262295083" y="301.8688524590164" type="curve" smooth="yes"/>
      <point x="531.0327868852459" y="301.8688524590164"/>
      <point x="538.4098360655738" y="290.7377049180328"/>
      <point x="538.4098360655738" y="282.3606557377049" type="curve" smooth="yes"/>
      <point x="538.4098360655738" y="227.54098360655738"/>
      <point x="439.4590163934426" y="188.1311475409836"/>
    </contour>
  </outline>
</glyph>
<glyph name="uni0794" format="2">
  <advance width="732.360655737705"/>
  <unicode hex="0794"/>
  <outline>
    <contour>
      <point x="12.344262295081968" y="-78.0" type="curve" smooth="yes"/>
      <point x="35.9672131147541" y="-78.0"/>
      <point x="79.62295081967213" y="-65.11475409836066"/>
      <point x="141.95081967213116" y="-31.934426229508198" type="curve" smooth="yes"/>
      <point x="242.40983606557376" y="20.311475409836063"/>
      <point x="341.4918032786885" y="125.26229508196721"/>
      <point x="420.6393442622951" y="218.2622950819672" type="curve"/>
      <point x="467.40983606557376" y="223.2622950819672"/>
      <point x="510.0327868852459" y="236.14754098360655"/>
      <point x="552.4262295081967" y="253.655737704918" type="curve"/>
      <point x="540.1967213114754" y="193.27868852459017"/>
      <point x="497.40983606557376" y="147.22950819672133"/>
      <point x="471.1803278688525" y="115.49180327868852" type="curve" smooth="yes"/>
      <point x="459.9344262295082" y="101.49180327868852"/>
      <point x="451.04918032786884" y="87.88524590163934"/>
      <point x="451.04918032786884" y="65.0" type="curve" smooth="yes"/>
      <point x="451.04918032786884" y="38.26229508196721"/>
      <point x="472.78688524590166" y="20.393442622950822"/>
      <point x="506.39344262295083" y="20.393442622950822" type="curve" smooth="yes"/>
      <point x="531.6229508196722" y="20.393442622950822"/>
      <point x="556.983606557377" y="38.50819672131148"/>
      <point x="577.327868852459" y="67.45901639344262" type="curve" smooth="yes"/>
      <point x="629.327868852459" y="138.9344262295082"/>
      <point x="669.360655737705" y="228.21311475409837"/>
      <point x="669.360655737705" y="312.4918032786885" type="curve" smooth="yes"/>
      <point x="669.360655737705" y="377.95081967213116"/>
      <point x="656.2622950819672" y="399.72131147540983"/>
      <point x="627.3770491803278" y="399.72131147540983" type="curve" smooth="yes"/>
      <point x="612.6229508196722" y="399.72131147540983"/>
      <point x="595.7540983606557" y="393.8360655737705"/>
      <point x="578.6229508196722" y="383.08196721311475" type="curve" smooth="yes"/>
      <point x="532.4262295081967" y="355.3606557377049"/>
      <point x="498.54098360655735" y="335.2295081967213"/>
      <point x="450.37704918032784" y="329.8524590163934" type="curve"/>
      <point x="431.1311475409836" y="362.0983606557377"/>
      <point x="404.24590163934425" y="385.344262295082"/>
      <point x="361.5081967213115" y="385.344262295082" type="curve" smooth="yes"/>
      <point x="298.9016393442623" y="385.344262295082"/>
      <point x="264.1639344262295" y="342.2295081967213"/>
      <point x="264.1639344262295" y="295.4918032786885" type="curve" smooth="yes"/>
      <point x="264.1639344262295" y="268.4918032786885"/>
      <point x="278.1803278688525" y="245.49180327868854"/>
      <point x="307.9344262295082" y="231.0" type="curve"/>
      <point x="247.21311475409834" y="167.9016393442623"/>
      <point x="182.08196721311475" y="118.26229508196721"/>
      <point x="107.67213114754098" y="84.11475409836066" type="curve" smooth="yes"/>
      <point x="72.90163934426229" y="67.85245901639344"/>
      <point x="37.0" y="55.9672131147541"/>
      <point x="-3.0327868852459012" y="46.459016393442624" type="curve" smooth="yes"/>
      <point x="-39.26229508196721" y="38.21311475409837"/>
      <point x="-59.0" y="16.721311475409834"/>
      <point x="-59.0" y="-15.393442622950815" type="curve" smooth="yes"/>
      <point x="-59.0" y="-53.131147540983605"/>
      <point x="-34.885245901639344" y="-78.0"/>
    </contour>
  </outline>
</glyph>
<glyph name="uni0796" format="2">
  <advance width="589.8524590163935"/>
  <unicode hex="0796"/>
  <outline>
    <contour>
      <point x="273.0983606557377" y="-156.0" type="curve" smooth="yes"/>
      <point x="336.91803278688525" y="-156.0"/>
      <point x="399.7049180327869" y="-151.13114754098362"/>
      <point x="442.60655737704917" y="-137.24590163934425" type="curve" smooth="yes"/>
      <point x="480.21311475409834" y="-125.0"/>
      <point x="500.9672131147541" y="-106.26229508196721"/>
      <point x="500.9672131147541" y="-81.01639344262296" type="curve" smooth="yes"/>
      <point x="500.9672131147541" y="-53.0327868852459"/>
      <point x="478.8688524590164" y="-38.91803278688525"/>
      <point x="456.8688524590164" y="-38.91803278688525" type="curve" smooth="yes"/>
      <point x="444.1475409836066" y="-38.91803278688525"/>
      <point x="423.9016393442623" y="-44.1639344262295"/>
      <point x="405.26229508196724" y="-47.540983606557376" type="curve" smooth="yes"/>
      <point x="381.1311475409836" y="-51.540983606557376"/>
      <point x="344.62295081967216" y="-56.786885245901644"/>
      <point x="273.0983606557377" y="-56.786885245901644" type="curve" smooth="yes"/>
      <point x="181.55737704918033" y="-56.786885245901644"/>
      <point x="150.31147540983608" y="-37.278688524590166"/>
      <point x="150.31147540983608" y="12.229508196721312" type="curve" smooth="yes"/>
      <point x="150.31147540983608" y="42.868852459016395"/>
      <point x="178.5737704918033" y="68.0"/>
      <point x="209.2622950819672" y="86.27868852459017" type="curve"/>
      <point x="232.0327868852459" y="82.14754098360656"/>
      <point x="257.54098360655735" y="80.90163934426229"/>
      <point x="278.0163934426229" y="80.90163934426229" type="curve" smooth="yes"/>
      <point x="397.0983606557377" y="80.90163934426229"/>
      <point x="502.8524590163934" y="148.36065573770492"/>
      <point x="502.8524590163934" y="249.62295081967213" type="curve" smooth="yes"/>
      <point x="502.8524590163934" y="282.27868852459017"/>
      <point x="483.57377049180326" y="314.5245901639344"/>
      <point x="459.60655737704917" y="323.88524590163934" type="curve"/>
      <point x="499.59016393442624" y="335.0163934426229"/>
      <point x="525.8524590163935" y="354.24590163934425"/>
      <point x="525.8524590163935" y="378.75409836065575" type="curve" smooth="yes"/>
      <point x="525.8524590163935" y="404.4918032786885"/>
      <point x="505.73770491803276" y="423.983606557377"/>
      <point x="477.1311475409836" y="423.983606557377" type="curve" smooth="yes"/>
      <point x="458.4918032786885" y="423.983606557377"/>
      <point x="448.2295081967213" y="410.344262295082"/>
      <point x="402.75409836065575" y="390.3606557377049" type="curve" smooth="yes"/>
      <point x="361.7377049180328" y="372.9836065573771"/>
      <point x="317.1475409836065" y="371.3606557377049"/>
      <point x="317.1475409836065" y="330.1311475409836" type="curve" smooth="yes"/>
      <point x="317.1475409836065" y="306.0163934426229"/>
      <point x="328.655737704918" y="299.0163934426229"/>
      <point x="355.6393442622951" y="286.7704918032787" type="curve" smooth="yes"/>
      <point x="377.1311475409836" y="277.1475409836066"/>
      <point x="388.0327868852459" y="270.655737704918"/>
      <point x="388.0327868852459" y="247.62295081967213" type="curve" smooth="yes"/>
      <point x="388.0327868852459" y="205.7377049180328"/>
      <point x="342.27868852459017" y="183.36065573770492"/>
      <point x="305.0163934426229" y="183.36065573770492" type="curve" smooth="yes"/>
      <point x="289.5081967213115" y="183.36065573770492"/>
      <point x="268.7704918032787" y="185.36065573770492"/>
      <point x="256.26229508196724" y="188.4918032786885" type="curve"/>
      <point x="247.77049180327867" y="217.0983606557377"/>
      <point x="227.14754098360655" y="245.85245901639342"/>
      <point x="189.672131147541" y="245.85245901639342" type="curve" smooth="yes"/>
      <point x="155.9344262295082" y="245.85245901639342"/>
      <point x="114.42622950819673" y="223.88524590163934"/>
      <point x="114.42622950819673" y="170.0" type="curve" smooth="yes"/>
      <point x="114.42622950819673" y="156.8688524590164"/>
      <point x="120.29508196721312" y="140.75409836065575"/>
      <point x="130.78688524590166" y="130.75409836065575" type="curve"/>
      <point x="74.98360655737704" y="94.45901639344262"/>
      <point x="39.62295081967213" y="45.60655737704918"/>
      <point x="39.62295081967213" y="-10.393442622950815" type="curve" smooth="yes"/>
      <point x="39.62295081967213" y="-100.98360655737704"/>
      <point x="113.8360655737705" y="-156.0"/>
    </contour>
  </outline>
</glyph>
<glyph name="uni0797" format="2">
  <advance width="642.8852459016393"/>
  <unicode hex="0797"/>
  <outline>
    <contour>
      <point x="21.721311475409834" y="-157.24590163934425" type="curve" smooth="yes"/>
      <point x="43.721311475409834" y="-157.24590163934425"/>
      <point x="80.88524590163934" y="-143.2295081967213"/>
      <point x="131.04918032786884" y="-111.19672131147541" type="curve" smooth="yes"/>
      <point x="200.5737704918033" y="-67.37704918032787"/>
      <point x="231.98360655737704" y="-23.114754098360656"/>
      <point x="231.98360655737704" y="21.75409836065574" type="curve" smooth="yes"/>
      <point x="231.98360655737704" y="40.75409836065574"/>
      <point x="220.36065573770492" y="60.49180327868852"/>
      <point x="203.37704918032787" y="76.22950819672131" type="curve" smooth="yes"/>
      <point x="189.37704918032787" y="89.36065573770492"/>
      <point x="179.98360655737704" y="98.11475409836066"/>
      <point x="179.98360655737704" y="103.0" type="curve" smooth="yes"/>
      <point x="179.98360655737704" y="108.77049180327869"/>
      <point x="195.60655737704917" y="123.88524590163934"/>
      <point x="211.86885245901638" y="136.39344262295083" type="curve"/>
      <point x="241.36065573770492" y="84.75409836065573"/>
      <point x="291.60655737704917" y="60.62295081967213"/>
      <point x="358.60655737704917" y="60.62295081967213" type="curve" smooth="yes"/>
      <point x="434.55737704918033" y="60.62295081967213"/>
      <point x="527.0655737704918" y="117.08196721311475"/>
      <point x="527.0655737704918" y="200.47540983606558" type="curve" smooth="yes"/>
      <point x="527.0655737704918" y="254.62295081967213"/>
      <point x="496.91803278688525" y="299.11475409836066"/>
      <point x="447.91803278688525" y="314.9672131147541" type="curve"/>
      <point x="511.88524590163934" y="354.1475409836066"/>
      <point x="608.7704918032787" y="410.27868852459017"/>
      <point x="644.2622950819672" y="435.5081967213115" type="curve" smooth="yes"/>
      <point x="676.7540983606557" y="458.11475409836066"/>
      <point x="688.016393442623" y="473.24590163934425"/>
      <point x="688.016393442623" y="486.75409836065575" type="curve" smooth="yes"/>
      <point x="688.016393442623" y="514.2622950819672"/>
      <point x="671.1147540983607" y="525.4918032786885"/>
      <point x="647.7704918032787" y="525.4918032786885" type="curve" smooth="yes"/>
      <point x="633.5245901639345" y="525.4918032786885"/>
      <point x="617.7704918032787" y="523.1147540983607"/>
      <point x="600.639344262295" y="515.2295081967213" type="curve" smooth="yes"/>
      <point x="541.360655737705" y="488.6885245901639"/>
      <point x="466.7049180327869" y="438.6885245901639"/>
      <point x="353.9344262295082" y="361.2622950819672" type="curve" smooth="yes"/>
      <point x="159.5737704918033" y="228.11475409836066"/>
      <point x="68.0327868852459" y="138.1639344262295"/>
      <point x="68.0327868852459" y="92.37704918032787" type="curve" smooth="yes"/>
      <point x="68.0327868852459" y="80.0"/>
      <point x="80.90163934426229" y="65.75409836065575"/>
      <point x="96.01639344262296" y="50.01639344262295" type="curve" smooth="yes"/>
      <point x="108.01639344262296" y="38.01639344262295"/>
      <point x="116.14754098360656" y="28.262295081967213"/>
      <point x="116.14754098360656" y="21.377049180327866" type="curve" smooth="yes"/>
      <point x="116.14754098360656" y="-5.016393442622956"/>
      <point x="61.213114754098356" y="-22.163934426229503"/>
      <point x="7.967213114754099" y="-36.540983606557376" type="curve" smooth="yes"/>
      <point x="-29.508196721311474" y="-46.786885245901644"/>
      <point x="-49.0" y="-67.52459016393442"/>
      <point x="-49.0" y="-99.63934426229508" type="curve" smooth="yes"/>
      <point x="-49.0" y="-136.75409836065575"/>
      <point x="-24.885245901639344" y="-157.24590163934425"/>
    </contour>
    <contour>
      <point x="352.75409836065575" y="154.21311475409837" type="curve" smooth="yes"/>
      <point x="315.62295081967216" y="154.21311475409837"/>
      <point x="297.75409836065575" y="174.0983606557377"/>
      <point x="289.1311475409836" y="205.9672131147541" type="curve"/>
      <point x="319.62295081967216" y="233.21311475409837"/>
      <point x="347.24590163934425" y="246.21311475409837"/>
      <point x="370.62295081967216" y="246.21311475409837" type="curve" smooth="yes"/>
      <point x="401.0" y="246.21311475409837"/>
      <point x="414.75409836065575" y="229.8360655737705"/>
      <point x="414.75409836065575" y="207.8360655737705" type="curve" smooth="yes"/>
      <point x="414.75409836065575" y="176.08196721311475"/>
      <point x="386.0" y="154.21311475409837"/>
    </contour>
  </outline>
</glyph>
<glyph name="uni0798" format="2">
  <advance width="642.2950819672132"/>
  <unicode hex="0798"/>
  <outline>
    <contour>
      <point x="88.90163934426229" y="-44.0" type="curve" smooth="yes"/>
      <point x="183.36065573770492" y="-44.0"/>
      <point x="291.40983606557376" y="6.245901639344263"/>
      <point x="291.40983606557376" y="80.37704918032787" type="curve" smooth="yes"/>
      <point x="291.40983606557376" y="104.1311475409836"/>
      <point x="275.78688524590166" y="122.50819672131148"/>
      <point x="256.42622950819674" y="140.62295081967213" type="curve" smooth="yes"/>
      <point x="240.55737704918033" y="155.8688524590164"/>
      <point x="228.80327868852459" y="166.4918032786885"/>
      <point x="228.80327868852459" y="171.0" type="curve" smooth="yes"/>
      <point x="228.80327868852459" y="178.50819672131146"/>
      <point x="244.9344262295082" y="194.0"/>
      <point x="260.327868852459" y="205.5081967213115" type="curve"/>
      <point x="293.11475409836066" y="171.11475409836066"/>
      <point x="355.4754098360656" y="148.01639344262296"/>
      <point x="402.3114754098361" y="148.01639344262296" type="curve" smooth="yes"/>
      <point x="486.1639344262295" y="148.01639344262296"/>
      <point x="581.1639344262295" y="206.86885245901638"/>
      <point x="581.1639344262295" y="303.11475409836066" type="curve" smooth="yes"/>
      <point x="581.1639344262295" y="364.4754098360656"/>
      <point x="541.0819672131148" y="399.72131147540983"/>
      <point x="473.8524590163934" y="399.72131147540983" type="curve" smooth="yes"/>
      <point x="356.8196721311475" y="399.72131147540983"/>
      <point x="123.57377049180327" y="262.8032786885246"/>
      <point x="123.57377049180327" y="158.47540983606558" type="curve" smooth="yes"/>
      <point x="123.57377049180327" y="145.72131147540983"/>
      <point x="134.34426229508196" y="132.60655737704917"/>
      <point x="154.95081967213116" y="118.49180327868852" type="curve" smooth="yes"/>
      <point x="168.57377049180326" y="108.49180327868852"/>
      <point x="178.95081967213116" y="99.49180327868852"/>
      <point x="178.95081967213116" y="90.22950819672131" type="curve" smooth="yes"/>
      <point x="178.95081967213116" y="65.59016393442623"/>
      <point x="146.65573770491804" y="54.213114754098356"/>
      <point x="91.90163934426229" y="54.213114754098356" type="curve" smooth="yes"/>
      <point x="77.40983606557377" y="54.213114754098356"/>
      <point x="61.90163934426229" y="58.459016393442624"/>
      <point x="47.40983606557377" y="62.459016393442624" type="curve" smooth="yes"/>
      <point x="37.032786885245905" y="65.8360655737705"/>
      <point x="26.40983606557377" y="68.21311475409836"/>
      <point x="14.278688524590166" y="68.21311475409836" type="curve" smooth="yes"/>
      <point x="-21.573770491803277" y="68.21311475409836"/>
      <point x="-36.0655737704918" y="47.9672131147541"/>
      <point x="-36.0655737704918" y="16.229508196721312" type="curve" smooth="yes"/>
      <point x="-36.0655737704918" y="-8.0"/>
      <point x="-17.83606557377049" y="-25.737704918032787"/>
      <point x="14.49180327868853" y="-34.36065573770492" type="curve" smooth="yes"/>
      <point x="35.0" y="-40.622950819672134"/>
      <point x="61.016393442622956" y="-44.0"/>
    </contour>
    <contour>
      <point x="391.11475409836066" y="238.4918032786885" type="curve" smooth="yes"/>
      <point x="368.60655737704917" y="238.4918032786885"/>
      <point x="345.4918032786885" y="246.24590163934425"/>
      <point x="325.37704918032784" y="261.11475409836066" type="curve"/>
      <point x="366.0327868852459" y="285.1311475409836"/>
      <point x="421.9016393442623" y="313.11475409836066"/>
      <point x="453.4754098360656" y="313.11475409836066" type="curve" smooth="yes"/>
      <point x="461.60655737704917" y="313.11475409836066"/>
      <point x="470.0983606557377" y="309.8688524590164"/>
      <point x="470.0983606557377" y="301.3606557377049" type="curve" smooth="yes"/>
      <point x="470.0983606557377" y="264.0"/>
      <point x="441.75409836065575" y="238.4918032786885"/>
    </contour>
    <contour>
      <point x="457.62295081967216" y="554.7049180327868" type="curve" smooth="yes"/>
      <point x="487.11475409836066" y="554.7049180327868"/>
      <point x="516.6065573770492" y="578.5737704918033"/>
      <point x="516.6065573770492" y="612.688524590164" type="curve" smooth="yes"/>
      <point x="516.6065573770492" y="642.1803278688525"/>
      <point x="494.73770491803276" y="665.0491803278688"/>
      <point x="464.24590163934425" y="665.0491803278688" type="curve" smooth="yes"/>
      <point x="433.75409836065575" y="665.0491803278688"/>
      <point x="406.2622950819672" y="640.1803278688525"/>
      <point x="406.2622950819672" y="606.0655737704918" type="curve" smooth="yes"/>
      <point x="406.2622950819672" y="576.5737704918033"/>
      <point x="428.1311475409836" y="554.7049180327868"/>
    </contour>
    <contour>
      <point x="347.88524590163934" y="416.8688524590164" type="curve" smooth="yes"/>
      <point x="377.37704918032784" y="416.8688524590164"/>
      <point x="406.8688524590164" y="440.7377049180328"/>
      <point x="406.8688524590164" y="474.8524590163934" type="curve" smooth="yes"/>
      <point x="406.8688524590164" y="504.344262295082"/>
      <point x="385.0" y="527.2131147540983"/>
      <point x="354.5081967213115" y="527.2131147540983" type="curve" smooth="yes"/>
      <point x="325.0163934426229" y="527.2131147540983"/>
      <point x="296.5245901639344" y="502.344262295082"/>
      <point x="296.5245901639344" y="468.2295081967213" type="curve" smooth="yes"/>
      <point x="296.5245901639344" y="438.73770491803276"/>
      <point x="318.39344262295083" y="416.8688524590164"/>
    </contour>
    <contour>
      <point x="543.4918032786885" y="416.8688524590164" type="curve" smooth="yes"/>
      <point x="573.983606557377" y="416.8688524590164"/>
      <point x="603.4754098360655" y="440.7377049180328"/>
      <point x="603.4754098360655" y="474.8524590163934" type="curve" smooth="yes"/>
      <point x="603.4754098360655" y="504.344262295082"/>
      <point x="580.6065573770492" y="527.2131147540983"/>
      <point x="551.1147540983607" y="527.2131147540983" type="curve" smooth="yes"/>
      <point x="520.0" y="527.2131147540983"/>
      <point x="493.1311475409836" y="502.344262295082"/>
      <point x="493.1311475409836" y="468.2295081967213" type="curve" smooth="yes"/>
      <point x="493.1311475409836" y="438.73770491803276"/>
      <point x="514.0" y="416.8688524590164"/>
    </contour>
  </outline>
</glyph>
<glyph name="uni079B" format="2">
  <advance width="633.3770491803278"/>
  <unicode hex="079B"/>
  <outline>
    <contour>
      <point x="8.344262295081961" y="-78.0" type="curve" smooth="yes"/>
      <point x="31.950819672131146" y="-78.0"/>
      <point x="77.8688524590164" y="-64.98360655737704"/>
      <point x="141.39344262295083" y="-19.34426229508197" type="curve" smooth="yes"/>
      <point x="223.0655737704918" y="39.721311475409834"/>
      <point x="250.77049180327867" y="65.04918032786885"/>
      <point x="314.88524590163934" y="141.40983606557376" type="curve"/>
      <point x="332.39344262295083" y="138.40983606557376"/>
      <point x="348.7704918032787" y="138.0327868852459"/>
      <point x="361.5245901639344" y="138.0327868852459" type="curve" smooth="yes"/>
      <point x="485.21311475409834" y="138.0327868852459"/>
      <point x="585.983606557377" y="206.11475409836066"/>
      <point x="585.983606557377" y="307.37704918032784" type="curve" smooth="yes"/>
      <point x="585.983606557377" y="341.27868852459017"/>
      <point x="564.5901639344262" y="374.7704918032787"/>
      <point x="543.360655737705" y="384.75409836065575" type="curve"/>
      <point x="571.8852459016393" y="395.88524590163934"/>
      <point x="604.0" y="410.1311475409836"/>
      <point x="604.0" y="439.62295081967216" type="curve" smooth="yes"/>
      <point x="604.0" y="465.3606557377049"/>
      <point x="586.1311475409836" y="484.60655737704917"/>
      <point x="559.639344262295" y="484.60655737704917" type="curve" smooth="yes"/>
      <point x="538.8852459016393" y="484.60655737704917"/>
      <point x="521.1475409836065" y="472.45901639344265"/>
      <point x="496.1475409836066" y="458.72131147540983" type="curve" smooth="yes"/>
      <point x="460.6393442622951" y="439.9836065573771"/>
      <point x="397.54098360655735" y="441.8524590163934"/>
      <point x="397.54098360655735" y="391.62295081967216" type="curve" smooth="yes"/>
      <point x="397.54098360655735" y="372.0"/>
      <point x="412.78688524590166" y="358.39344262295083"/>
      <point x="438.24590163934425" y="349.9016393442623" type="curve" smooth="yes"/>
      <point x="456.1311475409836" y="343.0163934426229"/>
      <point x="471.78688524590166" y="331.0327868852459"/>
      <point x="471.78688524590166" y="305.37704918032784" type="curve" smooth="yes"/>
      <point x="471.78688524590166" y="257.88524590163934"/>
      <point x="431.0163934426229" y="240.4918032786885"/>
      <point x="387.5245901639344" y="240.4918032786885" type="curve" smooth="yes"/>
      <point x="372.26229508196724" y="240.4918032786885"/>
      <point x="357.75409836065575" y="241.8688524590164"/>
      <point x="346.0" y="245.62295081967213" type="curve"/>
      <point x="336.5081967213115" y="274.8524590163934"/>
      <point x="311.0163934426229" y="300.4918032786885"/>
      <point x="276.75409836065575" y="300.4918032786885" type="curve" smooth="yes"/>
      <point x="234.27868852459017" y="300.4918032786885"/>
      <point x="201.2950819672131" y="272.8688524590164"/>
      <point x="201.2950819672131" y="227.52459016393442" type="curve" smooth="yes"/>
      <point x="201.2950819672131" y="210.77049180327867"/>
      <point x="208.04918032786884" y="194.88524590163934"/>
      <point x="220.04918032786884" y="182.63934426229508" type="curve"/>
      <point x="177.4262295081967" y="139.01639344262296"/>
      <point x="145.0655737704918" y="113.39344262295083"/>
      <point x="100.26229508196721" y="86.85245901639344" type="curve" smooth="yes"/>
      <point x="68.0" y="68.21311475409837"/>
      <point x="31.836065573770494" y="55.459016393442624"/>
      <point x="-3.0491803278688536" y="44.70491803278688" type="curve" smooth="yes"/>
      <point x="-38.77049180327869" y="33.213114754098356"/>
      <point x="-59.0" y="13.967213114754102"/>
      <point x="-59.0" y="-15.393442622950815" type="curve" smooth="yes"/>
      <point x="-59.0" y="-55.131147540983605"/>
      <point x="-35.885245901639344" y="-78.0"/>
    </contour>
    <contour>
      <point x="491.62295081967216" y="527.1147540983607" type="curve" smooth="yes"/>
      <point x="523.6065573770492" y="527.1147540983607"/>
      <point x="555.5901639344262" y="552.8524590163935"/>
      <point x="555.5901639344262" y="588.4590163934427" type="curve" smooth="yes"/>
      <point x="555.5901639344262" y="621.0655737704918"/>
      <point x="530.8524590163935" y="646.8032786885246"/>
      <point x="498.8688524590164" y="646.8032786885246" type="curve" smooth="yes"/>
      <point x="465.26229508196724" y="646.8032786885246"/>
      <point x="435.9016393442623" y="619.4426229508197"/>
      <point x="435.9016393442623" y="582.8360655737705" type="curve" smooth="yes"/>
      <point x="435.9016393442623" y="550.8524590163935"/>
      <point x="458.6393442622951" y="527.1147540983607"/>
    </contour>
  </outline>
</glyph>
<glyph name="uni079C" format="2">
  <advance width="650.8688524590164"/>
  <unicode hex="079C"/>
  <outline>
    <contour>
      <point x="12.344262295081968" y="-78.0" type="curve" smooth="yes"/>
      <point x="39.950819672131146" y="-78.0"/>
      <point x="102.81967213114754" y="-52.885245901639344"/>
      <point x="173.672131147541" y="-5.918032786885245" type="curve" smooth="yes"/>
      <point x="246.5737704918033" y="41.704918032786885"/>
      <point x="310.4918032786885" y="104.01639344262296"/>
      <point x="388.37704918032784" y="173.63934426229508" type="curve"/>
      <point x="433.37704918032784" y="159.2622950819672"/>
      <point x="481.1311475409836" y="150.88524590163934"/>
      <point x="522.7540983606557" y="150.88524590163934" type="curve" smooth="yes"/>
      <point x="576.7213114754098" y="150.88524590163934"/>
      <point x="612.0983606557377" y="167.24590163934425"/>
      <point x="612.0983606557377" y="196.11475409836066" type="curve" smooth="yes"/>
      <point x="612.0983606557377" y="229.85245901639342"/>
      <point x="582.0" y="244.22950819672133"/>
      <point x="539.016393442623" y="244.22950819672133" type="curve" smooth="yes"/>
      <point x="518.2459016393443" y="244.22950819672133"/>
      <point x="499.3606557377049" y="246.36065573770492"/>
      <point x="485.0983606557377" y="250.49180327868854" type="curve"/>
      <point x="524.8852459016393" y="282.7704918032787"/>
      <point x="553.344262295082" y="302.37704918032784"/>
      <point x="584.0983606557377" y="323.11475409836066" type="curve" smooth="yes"/>
      <point x="612.2295081967213" y="342.2295081967213"/>
      <point x="635.8688524590164" y="359.9836065573771"/>
      <point x="635.8688524590164" y="375.11475409836066" type="curve" smooth="yes"/>
      <point x="635.8688524590164" y="402.24590163934425"/>
      <point x="615.8524590163935" y="414.344262295082"/>
      <point x="587.5245901639345" y="414.344262295082" type="curve" smooth="yes"/>
      <point x="538.655737704918" y="414.344262295082"/>
      <point x="472.5245901639344" y="373.60655737704917"/>
      <point x="394.1475409836066" y="309.8524590163934" type="curve"/>
      <point x="376.39344262295083" y="326.4918032786885"/>
      <point x="347.54098360655735" y="345.60655737704917"/>
      <point x="315.5245901639344" y="345.60655737704917" type="curve" smooth="yes"/>
      <point x="269.655737704918" y="345.60655737704917"/>
      <point x="253.1639344262295" y="317.59016393442624"/>
      <point x="253.1639344262295" y="287.73770491803276" type="curve" smooth="yes"/>
      <point x="253.1639344262295" y="262.73770491803276"/>
      <point x="267.29508196721315" y="240.7377049180328"/>
      <point x="292.672131147541" y="221.11475409836066" type="curve"/>
      <point x="216.8360655737705" y="152.14754098360655"/>
      <point x="153.57377049180326" y="107.37704918032787"/>
      <point x="91.1311475409836" y="78.09836065573771" type="curve" smooth="yes"/>
      <point x="59.131147540983605" y="63.09836065573771"/>
      <point x="28.114754098360656" y="52.59016393442623"/>
      <point x="-1.7868852459016367" y="45.08196721311475" type="curve" smooth="yes"/>
      <point x="-38.885245901639344" y="35.8360655737705"/>
      <point x="-59.0" y="16.098360655737707"/>
      <point x="-59.0" y="-15.393442622950822" type="curve" smooth="yes"/>
      <point x="-59.0" y="-53.131147540983605"/>
      <point x="-34.885245901639344" y="-78.0"/>
    </contour>
    <contour>
      <point x="506.37704918032784" y="426.88524590163934" type="curve" smooth="yes"/>
      <point x="538.360655737705" y="426.88524590163934"/>
      <point x="570.344262295082" y="452.62295081967216"/>
      <point x="570.344262295082" y="488.2295081967213" type="curve" smooth="yes"/>
      <point x="570.344262295082" y="520.8360655737705"/>
      <point x="545.6065573770492" y="546.5737704918033"/>
      <point x="513.6229508196722" y="546.5737704918033" type="curve" smooth="yes"/>
      <point x="480.0163934426229" y="546.5737704918033"/>
      <point x="450.655737704918" y="519.2131147540983"/>
      <point x="450.655737704918" y="482.60655737704917" type="curve" smooth="yes"/>
      <point x="450.655737704918" y="450.62295081967216"/>
      <point x="473.39344262295083" y="426.88524590163934"/>
    </contour>
  </outline>
</glyph>
<glyph name="uni079D" format="2">
  <advance width="1019.0"/>
  <unicode hex="079D"/>
  <outline>
    <contour>
      <point x="87.45901639344262" y="40.393442622950815" type="curve" smooth="yes"/>
      <point x="111.9344262295082" y="40.393442622950815"/>
      <point x="136.29508196721312" y="50.885245901639344"/>
      <point x="169.13114754098362" y="77.21311475409836" type="curve" smooth="yes"/>
      <point x="211.01639344262296" y="108.81967213114754"/>
      <point x="241.45901639344262" y="141.49180327868854"/>
      <point x="258.9672131147541" y="180.01639344262296" type="curve"/>
      <point x="371.57377049180326" y="166.9016393442623"/>
      <point x="439.26229508196724" y="161.01639344262296"/>
      <point x="555.4426229508197" y="161.01639344262296" type="curve" smooth="yes"/>
      <point x="692.360655737705" y="161.01639344262296"/>
      <point x="823.1475409836065" y="168.63934426229508"/>
      <point x="912.7704918032787" y="231.2622950819672" type="curve" smooth="yes"/>
      <point x="941.5081967213115" y="251.37704918032787"/>
      <point x="964.0" y="275.4918032786885"/>
      <point x="980.0" y="303.11475409836066" type="curve" smooth="yes"/>
      <point x="992.0" y="324.73770491803276"/>
      <point x="999.3770491803278" y="345.60655737704917"/>
      <point x="999.3770491803278" y="367.4918032786885" type="curve" smooth="yes"/>
      <point x="999.3770491803278" y="395.60655737704917"/>
      <point x="987.5081967213115" y="414.344262295082"/>
      <point x="954.655737704918" y="414.344262295082" type="curve" smooth="yes"/>
      <point x="926.7868852459017" y="414.344262295082"/>
      <point x="911.8032786885246" y="398.8524590163934"/>
      <point x="897.1803278688525" y="370.4754098360656" type="curve" smooth="yes"/>
      <point x="884.2950819672132" y="345.327868852459"/>
      <point x="862.9016393442623" y="314.45901639344265"/>
      <point x="830.3934426229508" y="296.59016393442624" type="curve" smooth="yes"/>
      <point x="794.2459016393443" y="276.59016393442624"/>
      <point x="701.8688524590164" y="261.4754098360656"/>
      <point x="541.0983606557377" y="261.4754098360656" type="curve" smooth="yes"/>
      <point x="436.8360655737705" y="261.4754098360656"/>
      <point x="350.8360655737705" y="265.60655737704917"/>
      <point x="277.45901639344265" y="275.983606557377" type="curve"/>
      <point x="275.95081967213116" y="326.0"/>
      <point x="243.44262295081967" y="371.0983606557377"/>
      <point x="188.08196721311475" y="371.0983606557377" type="curve" smooth="yes"/>
      <point x="138.47540983606558" y="371.0983606557377"/>
      <point x="100.73770491803279" y="325.3606557377049"/>
      <point x="100.73770491803279" y="286.4918032786885" type="curve" smooth="yes"/>
      <point x="100.73770491803279" y="252.47540983606558"/>
      <point x="115.14754098360656" y="230.98360655737704"/>
      <point x="160.11475409836066" y="206.37704918032787" type="curve"/>
      <point x="148.37704918032787" y="175.62295081967213"/>
      <point x="108.73770491803279" y="150.11475409836066"/>
      <point x="75.24590163934425" y="138.11475409836066" type="curve" smooth="yes"/>
      <point x="43.868852459016395" y="126.73770491803279"/>
      <point x="27.114754098360656" y="112.75409836065575"/>
      <point x="27.114754098360656" y="89.62295081967213" type="curve" smooth="yes"/>
      <point x="27.114754098360656" y="59.885245901639344"/>
      <point x="50.22950819672131" y="40.393442622950815"/>
    </contour>
    <contour>
      <point x="575.6229508196722" y="469.24590163934425" type="curve" smooth="yes"/>
      <point x="605.1147540983607" y="469.24590163934425"/>
      <point x="634.6065573770492" y="493.11475409836066"/>
      <point x="634.6065573770492" y="527.2295081967213" type="curve" smooth="yes"/>
      <point x="634.6065573770492" y="556.7213114754098"/>
      <point x="612.7377049180328" y="579.5901639344262"/>
      <point x="582.2459016393443" y="579.5901639344262" type="curve" smooth="yes"/>
      <point x="551.7540983606557" y="579.5901639344262"/>
      <point x="524.2622950819672" y="554.7213114754098"/>
      <point x="524.2622950819672" y="520.6065573770492" type="curve" smooth="yes"/>
      <point x="524.2622950819672" y="491.11475409836066"/>
      <point x="546.1311475409836" y="469.24590163934425"/>
    </contour>
    <contour>
      <point x="465.88524590163934" y="331.40983606557376" type="curve" smooth="yes"/>
      <point x="495.37704918032784" y="331.40983606557376"/>
      <point x="524.8688524590164" y="355.27868852459017"/>
      <point x="524.8688524590164" y="389.39344262295083" type="curve" smooth="yes"/>
      <point x="524.8688524590164" y="418.88524590163934"/>
      <point x="503.0" y="441.75409836065575"/>
      <point x="472.5081967213115" y="441.75409836065575" type="curve" smooth="yes"/>
      <point x="443.0163934426229" y="441.75409836065575"/>
      <point x="414.5245901639344" y="416.88524590163934"/>
      <point x="414.5245901639344" y="382.7704918032787" type="curve" smooth="yes"/>
      <point x="414.5245901639344" y="353.27868852459017"/>
      <point x="436.39344262295083" y="331.40983606557376"/>
    </contour>
    <contour>
      <point x="661.4918032786885" y="331.40983606557376" type="curve" smooth="yes"/>
      <point x="691.983606557377" y="331.40983606557376"/>
      <point x="721.4754098360655" y="355.27868852459017"/>
      <point x="721.4754098360655" y="389.39344262295083" type="curve" smooth="yes"/>
      <point x="721.4754098360655" y="418.88524590163934"/>
      <point x="698.6065573770492" y="441.75409836065575"/>
      <point x="669.1147540983607" y="441.75409836065575" type="curve" smooth="yes"/>
      <point x="638.0" y="441.75409836065575"/>
      <point x="611.1311475409836" y="416.88524590163934"/>
      <point x="611.1311475409836" y="382.7704918032787" type="curve" smooth="yes"/>
      <point x="611.1311475409836" y="353.27868852459017"/>
      <point x="632.0" y="331.40983606557376"/>
    </contour>
  </outline>
</glyph>
<glyph name="uni07A0" format="2">
  <advance width="653.983606557377"/>
  <unicode hex="07A0"/>
  <outline>
    <contour>
      <point x="100.9672131147541" y="-44.0" type="curve" smooth="yes"/>
      <point x="195.4262295081967" y="-44.0"/>
      <point x="303.4754098360656" y="6.245901639344263"/>
      <point x="303.4754098360656" y="80.37704918032787" type="curve" smooth="yes"/>
      <point x="303.4754098360656" y="104.1311475409836"/>
      <point x="287.8524590163934" y="122.50819672131148"/>
      <point x="268.4918032786885" y="140.62295081967213" type="curve" smooth="yes"/>
      <point x="252.62295081967213" y="155.8688524590164"/>
      <point x="240.8688524590164" y="166.4918032786885"/>
      <point x="240.8688524590164" y="171.0" type="curve" smooth="yes"/>
      <point x="240.8688524590164" y="178.50819672131146"/>
      <point x="257.0" y="194.0"/>
      <point x="272.39344262295083" y="205.5081967213115" type="curve"/>
      <point x="305.1803278688525" y="171.11475409836066"/>
      <point x="367.54098360655735" y="148.01639344262296"/>
      <point x="414.37704918032784" y="148.01639344262296" type="curve" smooth="yes"/>
      <point x="498.2295081967213" y="148.01639344262296"/>
      <point x="593.2295081967213" y="206.86885245901638"/>
      <point x="593.2295081967213" y="303.11475409836066" type="curve" smooth="yes"/>
      <point x="593.2295081967213" y="364.4754098360656"/>
      <point x="553.1475409836065" y="399.72131147540983"/>
      <point x="485.91803278688525" y="399.72131147540983" type="curve" smooth="yes"/>
      <point x="368.88524590163934" y="399.72131147540983"/>
      <point x="135.63934426229508" y="262.8032786885246"/>
      <point x="135.63934426229508" y="158.47540983606558" type="curve" smooth="yes"/>
      <point x="135.63934426229508" y="145.72131147540983"/>
      <point x="146.40983606557376" y="132.60655737704917"/>
      <point x="167.01639344262296" y="118.49180327868852" type="curve" smooth="yes"/>
      <point x="180.63934426229508" y="108.49180327868852"/>
      <point x="191.01639344262296" y="99.49180327868852"/>
      <point x="191.01639344262296" y="90.22950819672131" type="curve" smooth="yes"/>
      <point x="191.01639344262296" y="65.59016393442623"/>
      <point x="158.72131147540983" y="54.213114754098356"/>
      <point x="103.9672131147541" y="54.213114754098356" type="curve" smooth="yes"/>
      <point x="89.47540983606558" y="54.213114754098356"/>
      <point x="73.9672131147541" y="58.459016393442624"/>
      <point x="59.47540983606557" y="62.459016393442624" type="curve" smooth="yes"/>
      <point x="49.09836065573771" y="65.8360655737705"/>
      <point x="38.47540983606557" y="68.21311475409836"/>
      <point x="26.34426229508197" y="68.21311475409836" type="curve" smooth="yes"/>
      <point x="-9.508196721311474" y="68.21311475409836"/>
      <point x="-24.0" y="47.9672131147541"/>
      <point x="-24.0" y="16.229508196721312" type="curve" smooth="yes"/>
      <point x="-24.0" y="-8.0"/>
      <point x="-5.770491803278688" y="-25.737704918032787"/>
      <point x="26.55737704918033" y="-34.36065573770492" type="curve" smooth="yes"/>
      <point x="47.06557377049181" y="-40.622950819672134"/>
      <point x="73.08196721311475" y="-44.0"/>
    </contour>
    <contour>
      <point x="403.1803278688525" y="238.4918032786885" type="curve" smooth="yes"/>
      <point x="380.672131147541" y="238.4918032786885"/>
      <point x="357.55737704918033" y="246.24590163934425"/>
      <point x="337.44262295081967" y="261.11475409836066" type="curve"/>
      <point x="378.0983606557377" y="285.1311475409836"/>
      <point x="433.9672131147541" y="313.11475409836066"/>
      <point x="465.54098360655735" y="313.11475409836066" type="curve" smooth="yes"/>
      <point x="473.672131147541" y="313.11475409836066"/>
      <point x="482.1639344262295" y="309.8688524590164"/>
      <point x="482.1639344262295" y="301.3606557377049" type="curve" smooth="yes"/>
      <point x="482.1639344262295" y="264.0"/>
      <point x="453.8196721311475" y="238.4918032786885"/>
    </contour>
    <contour>
      <point x="402.37704918032784" y="-70.34426229508196" type="curve" smooth="yes"/>
      <point x="434.3606557377049" y="-70.34426229508196"/>
      <point x="466.344262295082" y="-44.60655737704918"/>
      <point x="466.344262295082" y="-7.377049180327866" type="curve" smooth="yes"/>
      <point x="466.344262295082" y="24.606557377049178"/>
      <point x="441.60655737704917" y="49.34426229508196"/>
      <point x="409.62295081967216" y="49.34426229508196" type="curve" smooth="yes"/>
      <point x="376.0163934426229" y="49.34426229508196"/>
      <point x="346.655737704918" y="21.983606557377044"/>
      <point x="346.655737704918" y="-14.62295081967213" type="curve" smooth="yes"/>
      <point x="346.655737704918" y="-46.60655737704918"/>
      <point x="369.39344262295083" y="-70.34426229508196"/>
    </contour>
  </outline>
</glyph>
<glyph name="uni07A2" format="2">
  <advance width="541.7377049180328"/>
  <unicode hex="07A2"/>
  <outline>
    <contour>
      <point x="7.983606557377044" y="-10.0" type="curve" smooth="yes"/>
      <point x="42.59016393442623" y="-10.0"/>
      <point x="92.9672131147541" y="17.360655737704917"/>
      <point x="165.29508196721312" y="64.57377049180327" type="curve" smooth="yes"/>
      <point x="226.98360655737704" y="104.60655737704917"/>
      <point x="328.8360655737705" y="192.81967213114754"/>
      <point x="370.29508196721315" y="244.54098360655738" type="curve"/>
      <point x="368.40983606557376" y="196.70491803278688"/>
      <point x="348.1475409836066" y="158.81967213114754"/>
      <point x="318.4918032786885" y="114.54098360655738" type="curve" smooth="yes"/>
      <point x="300.0" y="86.31147540983608"/>
      <point x="285.5245901639344" y="66.59016393442623"/>
      <point x="285.5245901639344" y="44.22950819672131" type="curve" smooth="yes"/>
      <point x="285.5245901639344" y="17.114754098360656"/>
      <point x="307.26229508196724" y="-0.3770491803278688"/>
      <point x="340.8688524590164" y="-0.3770491803278688" type="curve" smooth="yes"/>
      <point x="366.0983606557377" y="-0.3770491803278688"/>
      <point x="390.45901639344265" y="16.98360655737705"/>
      <point x="414.5409836065574" y="55.278688524590166" type="curve" smooth="yes"/>
      <point x="456.57377049180326" y="116.1639344262295"/>
      <point x="481.4754098360656" y="185.327868852459"/>
      <point x="481.4754098360656" y="268.4918032786885" type="curve" smooth="yes"/>
      <point x="481.4754098360656" y="334.1967213114754"/>
      <point x="459.1311475409836" y="370.344262295082"/>
      <point x="406.5081967213115" y="370.344262295082" type="curve" smooth="yes"/>
      <point x="367.7377049180328" y="370.344262295082"/>
      <point x="326.0983606557377" y="337.5409836065574"/>
      <point x="291.016393442623" y="299.21311475409834" type="curve" smooth="yes"/>
      <point x="243.47540983606558" y="247.672131147541"/>
      <point x="186.21311475409834" y="201.91803278688525"/>
      <point x="121.55737704918033" y="165.29508196721312" type="curve" smooth="yes"/>
      <point x="80.32786885245902" y="141.44262295081967"/>
      <point x="36.47540983606557" y="122.45901639344262"/>
      <point x="-6.770491803278688" y="109.45901639344262" type="curve" smooth="yes"/>
      <point x="-40.131147540983605" y="99.21311475409836"/>
      <point x="-59.0" y="78.47540983606558"/>
      <point x="-59.0" y="46.98360655737705" type="curve" smooth="yes"/>
      <point x="-59.0" y="10.245901639344263"/>
      <point x="-36.131147540983605" y="-10.0"/>
    </contour>
    <contour>
      <point x="190.37704918032787" y="-111.34426229508196" type="curve" smooth="yes"/>
      <point x="222.36065573770492" y="-111.34426229508196"/>
      <point x="254.34426229508196" y="-85.60655737704919"/>
      <point x="254.34426229508196" y="-48.377049180327866" type="curve" smooth="yes"/>
      <point x="254.34426229508196" y="-16.393442622950822"/>
      <point x="229.60655737704917" y="8.344262295081961"/>
      <point x="197.62295081967213" y="8.344262295081961" type="curve" smooth="yes"/>
      <point x="164.01639344262296" y="8.344262295081961"/>
      <point x="134.65573770491804" y="-19.016393442622956"/>
      <point x="134.65573770491804" y="-55.62295081967213" type="curve" smooth="yes"/>
      <point x="134.65573770491804" y="-87.60655737704919"/>
      <point x="157.39344262295083" y="-111.34426229508196"/>
    </contour>
  </outline>
</glyph>
<glyph name="uni07A5" format="2">
  <advance width="538.3934426229508"/>
  <unicode hex="07A5"/>
  <outline>
    <contour>
      <point x="-0.34426229508196116" y="-78.0" type="curve" smooth="yes"/>
      <point x="24.40983606557377" y="-78.0"/>
      <point x="95.24590163934427" y="-52.32786885245902"/>
      <point x="164.34426229508196" y="-9.836065573770492" type="curve" smooth="yes"/>
      <point x="248.81967213114754" y="42.0327868852459"/>
      <point x="383.4754098360656" y="146.9672131147541"/>
      <point x="436.8688524590164" y="213.8360655737705" type="curve" smooth="yes"/>
      <point x="466.26229508196724" y="250.9672131147541"/>
      <point x="483.39344262295083" y="290.8524590163934"/>
      <point x="483.39344262295083" y="331.4918032786885" type="curve" smooth="yes"/>
      <point x="483.39344262295083" y="386.9836065573771"/>
      <point x="436.78688524590166" y="414.344262295082"/>
      <point x="367.81967213114757" y="414.344262295082" type="curve" smooth="yes"/>
      <point x="260.1967213114754" y="414.344262295082"/>
      <point x="139.88524590163934" y="322.3606557377049"/>
      <point x="139.88524590163934" y="229.63934426229508" type="curve" smooth="yes"/>
      <point x="139.88524590163934" y="191.39344262295083"/>
      <point x="158.88524590163934" y="156.9016393442623"/>
      <point x="200.11475409836066" y="139.63934426229508" type="curve"/>
      <point x="179.31147540983608" y="125.98360655737704"/>
      <point x="147.0" y="107.95081967213115"/>
      <point x="117.80327868852459" y="93.91803278688525" type="curve" smooth="yes"/>
      <point x="66.60655737704919" y="68.57377049180329"/>
      <point x="13.16393442622951" y="48.96721311475409"/>
      <point x="-15.0983606557377" y="41.34426229508196" type="curve" smooth="yes"/>
      <point x="-50.08196721311475" y="31.229508196721312"/>
      <point x="-71.0655737704918" y="14.721311475409834"/>
      <point x="-71.0655737704918" y="-17.393442622950815" type="curve" smooth="yes"/>
      <point x="-71.0655737704918" y="-54.131147540983605"/>
      <point x="-47.57377049180327" y="-78.0"/>
    </contour>
    <contour>
      <point x="300.327868852459" y="208.4918032786885" type="curve"/>
      <point x="274.95081967213116" y="211.7377049180328"/>
      <point x="252.19672131147541" y="220.60655737704917"/>
      <point x="252.19672131147541" y="239.75409836065575" type="curve" smooth="yes"/>
      <point x="252.19672131147541" y="280.88524590163934"/>
      <point x="306.95081967213116" y="324.37704918032784"/>
      <point x="348.8196721311475" y="324.37704918032784" type="curve" smooth="yes"/>
      <point x="367.45901639344265" y="324.37704918032784"/>
      <point x="371.21311475409834" y="314.75409836065575"/>
      <point x="371.21311475409834" y="306.8688524590164" type="curve" smooth="yes"/>
      <point x="371.21311475409834" y="275.9836065573771"/>
      <point x="345.04918032786884" y="244.59016393442624"/>
    </contour>
    <contour>
      <point x="355.60655737704917" y="433.11475409836066" type="curve" smooth="yes"/>
      <point x="387.59016393442624" y="433.11475409836066"/>
      <point x="419.57377049180326" y="458.8524590163934"/>
      <point x="419.57377049180326" y="494.4590163934426" type="curve" smooth="yes"/>
      <point x="419.57377049180326" y="527.0655737704918"/>
      <point x="394.8360655737705" y="552.8032786885246"/>
      <point x="362.8524590163934" y="552.8032786885246" type="curve" smooth="yes"/>
      <point x="329.24590163934425" y="552.8032786885246"/>
      <point x="299.88524590163934" y="525.4426229508197"/>
      <point x="299.88524590163934" y="488.8360655737705" type="curve" smooth="yes"/>
      <point x="299.88524590163934" y="456.8524590163934"/>
      <point x="322.62295081967216" y="433.11475409836066"/>
    </contour>
  </outline>
</glyph>
<glyph name="uni07A6" format="2">
  <unicode hex="07A6"/>
  <outline>
    <contour>
      <point x="51.22950819672131" y="434.3606557377049" type="curve" smooth="yes"/>
      <point x="67.72131147540983" y="434.3606557377049"/>
      <point x="87.21311475409836" y="437.983606557377"/>
      <point x="114.68852459016394" y="448.72131147540983" type="curve" smooth="yes"/>
      <point x="166.9672131147541" y="468.0983606557377"/>
      <point x="293.9836065573771" y="536.4918032786885"/>
      <point x="327.37704918032784" y="567.639344262295" type="curve" smooth="yes"/>
      <point x="348.3606557377049" y="586.7540983606557"/>
      <point x="356.11475409836066" y="605.4918032786885"/>
      <point x="356.11475409836066" y="624.360655737705" type="curve" smooth="yes"/>
      <point x="356.11475409836066" y="646.4754098360655"/>
      <point x="342.37704918032784" y="661.344262295082"/>
      <point x="318.0" y="661.344262295082" type="curve" smooth="yes"/>
      <point x="299.5081967213115" y="661.344262295082"/>
      <point x="281.39344262295083" y="654.7213114754098"/>
      <point x="260.88524590163934" y="638.8360655737705" type="curve" smooth="yes"/>
      <point x="196.22950819672133" y="588.4262295081967"/>
      <point x="122.55737704918033" y="545.9344262295082"/>
      <point x="56.73770491803278" y="529.1967213114754" type="curve" smooth="yes"/>
      <point x="21.131147540983605" y="519.9508196721312"/>
      <point x="0.0" y="504.344262295082"/>
      <point x="0.0" y="475.59016393442624" type="curve" smooth="yes"/>
      <point x="0.0" y="447.72131147540983"/>
      <point x="23.0" y="434.3606557377049"/>
    </contour>
  </outline>
</glyph>
<glyph name="uni07A7" format="2">
  <unicode hex="07A7"/>
  <outline>
    <contour>
      <point x="48.114754098360656" y="561.6065573770492" type="curve" smooth="yes"/>
      <point x="64.60655737704919" y="561.6065573770492"/>
      <point x="84.09836065573771" y="565.2295081967213"/>
      <point x="111.57377049180329" y="575.9672131147541" type="curve" smooth="yes"/>
      <point x="157.72131147540983" y="593.7213114754098"/>
      <point x="270.8688524590164" y="657.1311475409836"/>
      <point x="304.26229508196724" y="688.655737704918" type="curve" smooth="yes"/>
      <point x="325.24590163934425" y="707.7704918032787"/>
      <point x="333.0" y="726.5081967213115"/>
      <point x="333.0" y="745.3770491803278" type="curve" smooth="yes"/>
      <point x="333.0" y="767.4918032786885"/>
      <point x="319.26229508196724" y="782.360655737705"/>
      <point x="294.88524590163934" y="782.360655737705" type="curve" smooth="yes"/>
      <point x="275.7704918032787" y="782.360655737705"/>
      <point x="258.9016393442623" y="775.1147540983607"/>
      <point x="237.77049180327867" y="759.8524590163935" type="curve" smooth="yes"/>
      <point x="176.49180327868854" y="715.5573770491803"/>
      <point x="112.95081967213115" y="671.9344262295082"/>
      <point x="53.62295081967213" y="656.4426229508197" type="curve" smooth="yes"/>
      <point x="18.01639344262295" y="646.8196721311475"/>
      <point x="-3.114754098360656" y="631.5901639344262"/>
      <point x="-3.114754098360656" y="602.8360655737705" type="curve" smooth="yes"/>
      <point x="-3.114754098360656" y="574.9672131147541"/>
      <point x="19.885245901639344" y="561.6065573770492"/>
    </contour>
    <contour>
      <point x="105.22950819672131" y="434.3606557377049" type="curve" smooth="yes"/>
      <point x="121.72131147540983" y="434.3606557377049"/>
      <point x="141.21311475409834" y="437.9836065573771"/>
      <point x="168.68852459016392" y="448.72131147540983" type="curve" smooth="yes"/>
      <point x="214.8360655737705" y="466.8524590163934"/>
      <point x="327.9836065573771" y="529.8852459016393"/>
      <point x="361.37704918032784" y="561.4098360655738" type="curve" smooth="yes"/>
      <point x="382.3606557377049" y="580.5245901639345"/>
      <point x="390.11475409836066" y="599.2622950819672"/>
      <point x="390.11475409836066" y="618.1311475409836" type="curve" smooth="yes"/>
      <point x="390.11475409836066" y="640.2459016393443"/>
      <point x="376.37704918032784" y="655.1147540983607"/>
      <point x="352.0" y="655.1147540983607" type="curve" smooth="yes"/>
      <point x="332.88524590163934" y="655.1147540983607"/>
      <point x="315.6393442622951" y="648.2459016393443"/>
      <point x="294.88524590163934" y="632.6065573770492" type="curve" smooth="yes"/>
      <point x="235.98360655737704" y="587.1803278688525"/>
      <point x="170.0655737704918" y="545.311475409836"/>
      <point x="110.73770491803279" y="529.1967213114754" type="curve" smooth="yes"/>
      <point x="75.1311475409836" y="519.5737704918033"/>
      <point x="54.0" y="504.344262295082"/>
      <point x="54.0" y="475.59016393442624" type="curve" smooth="yes"/>
      <point x="54.0" y="447.72131147540983"/>
      <point x="77.0" y="434.3606557377049"/>
    </contour>
  </outline>
</glyph>
<glyph name="uni07A8" format="2">
  <unicode hex="07A8"/>
  <outline>
    <contour>
      <point x="-16.37704918032787" y="-294.88524590163934" type="curve" smooth="yes"/>
      <point x="0.11475409836065609" y="-294.88524590163934"/>
      <point x="19.606557377049185" y="-291.26229508196724"/>
      <point x="47.08196721311475" y="-280.5245901639344" type="curve" smooth="yes"/>
      <point x="98.60655737704919" y="-260.7704918032787"/>
      <point x="226.37704918032787" y="-193.13114754098362"/>
      <point x="259.7704918032787" y="-161.60655737704917" type="curve" smooth="yes"/>
      <point x="280.75409836065575" y="-142.49180327868854"/>
      <point x="288.5081967213115" y="-123.75409836065573"/>
      <point x="288.5081967213115" y="-104.88524590163934" type="curve" smooth="yes"/>
      <point x="288.5081967213115" y="-82.77049180327869"/>
      <point x="274.7704918032787" y="-67.90163934426229"/>
      <point x="250.39344262295083" y="-67.90163934426229" type="curve" smooth="yes"/>
      <point x="231.27868852459017" y="-67.90163934426229"/>
      <point x="214.40983606557376" y="-75.14754098360656"/>
      <point x="193.27868852459017" y="-90.40983606557377" type="curve" smooth="yes"/>
      <point x="126.75409836065575" y="-138.327868852459"/>
      <point x="55.32786885245902" y="-183.31147540983608"/>
      <point x="-10.868852459016395" y="-200.04918032786884" type="curve" smooth="yes"/>
      <point x="-46.47540983606557" y="-209.2950819672131"/>
      <point x="-67.60655737704919" y="-224.9016393442623"/>
      <point x="-67.60655737704919" y="-253.65573770491804" type="curve" smooth="yes"/>
      <point x="-67.60655737704919" y="-281.5245901639344"/>
      <point x="-44.60655737704918" y="-294.88524590163934"/>
    </contour>
  </outline>
</glyph>
<glyph name="uni07A9" format="2">
  <unicode hex="07A9"/>
  <outline>
    <contour>
      <point x="48.114754098360656" y="-286.1311475409836" type="curve" smooth="yes"/>
      <point x="64.60655737704919" y="-286.1311475409836"/>
      <point x="84.09836065573771" y="-282.5081967213115"/>
      <point x="111.57377049180329" y="-271.7704918032787" type="curve" smooth="yes"/>
      <point x="157.72131147540983" y="-254.01639344262296"/>
      <point x="270.8688524590164" y="-190.60655737704917"/>
      <point x="304.26229508196724" y="-159.08196721311475" type="curve" smooth="yes"/>
      <point x="325.24590163934425" y="-139.9672131147541"/>
      <point x="333.0" y="-121.22950819672131"/>
      <point x="333.0" y="-102.36065573770492" type="curve" smooth="yes"/>
      <point x="333.0" y="-80.24590163934425"/>
      <point x="319.26229508196724" y="-65.37704918032787"/>
      <point x="294.88524590163934" y="-65.37704918032787" type="curve" smooth="yes"/>
      <point x="275.7704918032787" y="-65.37704918032787"/>
      <point x="258.9016393442623" y="-72.62295081967213"/>
      <point x="237.77049180327867" y="-87.88524590163934" type="curve" smooth="yes"/>
      <point x="176.49180327868854" y="-132.18032786885246"/>
      <point x="112.95081967213115" y="-175.80327868852459"/>
      <point x="53.62295081967213" y="-191.29508196721312" type="curve" smooth="yes"/>
      <point x="18.01639344262295" y="-200.91803278688525"/>
      <point x="-3.114754098360656" y="-216.14754098360655"/>
      <point x="-3.114754098360656" y="-244.9016393442623" type="curve" smooth="yes"/>
      <point x="-3.114754098360656" y="-272.7704918032787"/>
      <point x="19.885245901639344" y="-286.1311475409836"/>
    </contour>
    <contour>
      <point x="105.22950819672131" y="-413.37704918032784" type="curve" smooth="yes"/>
      <point x="121.72131147540983" y="-413.37704918032784"/>
      <point x="141.21311475409834" y="-409.75409836065575"/>
      <point x="168.68852459016392" y="-399.0163934426229" type="curve" smooth="yes"/>
      <point x="214.8360655737705" y="-381.26229508196724"/>
      <point x="327.9836065573771" y="-317.8524590163934"/>
      <point x="361.37704918032784" y="-286.327868852459" type="curve" smooth="yes"/>
      <point x="382.3606557377049" y="-267.21311475409834"/>
      <point x="390.11475409836066" y="-248.47540983606558"/>
      <point x="390.11475409836066" y="-229.60655737704917" type="curve" smooth="yes"/>
      <point x="390.11475409836066" y="-207.4918032786885"/>
      <point x="376.37704918032784" y="-192.62295081967213"/>
      <point x="352.0" y="-192.62295081967213" type="curve" smooth="yes"/>
      <point x="332.88524590163934" y="-192.62295081967213"/>
      <point x="316.0163934426229" y="-199.8688524590164"/>
      <point x="294.88524590163934" y="-215.1311475409836" type="curve" smooth="yes"/>
      <point x="233.60655737704917" y="-259.42622950819674"/>
      <point x="170.0655737704918" y="-303.04918032786884"/>
      <point x="110.73770491803279" y="-318.54098360655735" type="curve" smooth="yes"/>
      <point x="75.1311475409836" y="-328.1639344262295"/>
      <point x="54.0" y="-343.39344262295083"/>
      <point x="54.0" y="-372.1475409836066" type="curve" smooth="yes"/>
      <point x="54.0" y="-400.0163934426229"/>
      <point x="77.0" y="-413.37704918032784"/>
    </contour>
  </outline>
</glyph>
<glyph name="uni07AA" format="2">
  <unicode hex="07AA"/>
  <outline>
    <contour>
      <point x="60.983606557377044" y="435.60655737704917" type="curve" smooth="yes"/>
      <point x="93.36065573770492" y="435.60655737704917"/>
      <point x="140.85245901639345" y="450.0"/>
      <point x="210.60655737704917" y="494.1311475409836" type="curve" smooth="yes"/>
      <point x="280.9836065573771" y="538.8852459016393"/>
      <point x="310.08196721311475" y="578.7540983606557"/>
      <point x="310.08196721311475" y="622.360655737705" type="curve" smooth="yes"/>
      <point x="310.08196721311475" y="667.2295081967213"/>
      <point x="225.19672131147541" y="696.2131147540983"/>
      <point x="141.60655737704917" y="696.2131147540983" type="curve" smooth="yes"/>
      <point x="79.63934426229508" y="696.2131147540983"/>
      <point x="38.75409836065574" y="681.2295081967213"/>
      <point x="38.75409836065574" y="644.983606557377" type="curve" smooth="yes"/>
      <point x="38.75409836065574" y="614.5081967213115"/>
      <point x="55.60655737704918" y="601.7540983606557"/>
      <point x="98.60655737704919" y="601.7540983606557" type="curve" smooth="yes"/>
      <point x="114.36065573770492" y="601.7540983606557"/>
      <point x="130.60655737704917" y="602.7540983606557"/>
      <point x="149.60655737704917" y="602.7540983606557" type="curve" smooth="yes"/>
      <point x="166.62295081967213" y="602.7540983606557"/>
      <point x="190.0327868852459" y="598.2459016393443"/>
      <point x="204.63934426229508" y="593.4918032786885" type="curve"/>
      <point x="172.65573770491804" y="568.8524590163935"/>
      <point x="99.49180327868852" y="543.7540983606557"/>
      <point x="46.77049180327869" y="526.7213114754098" type="curve" smooth="yes"/>
      <point x="15.754098360655739" y="516.5901639344262"/>
      <point x="0.754098360655739" y="507.8360655737705"/>
      <point x="0.754098360655739" y="480.45901639344265" type="curve" smooth="yes"/>
      <point x="0.754098360655739" y="450.72131147540983"/>
      <point x="21.24590163934426" y="435.60655737704917"/>
    </contour>
  </outline>
</glyph>
<glyph name="uni07AB" format="2">
  <unicode hex="07AB"/>
  <outline>
    <contour>
      <point x="353.9836065573771" y="435.60655737704917" type="curve" smooth="yes"/>
      <point x="386.3606557377049" y="435.60655737704917"/>
      <point x="434.4754098360656" y="450.62295081967216"/>
      <point x="503.60655737704917" y="494.1311475409836" type="curve" smooth="yes"/>
      <point x="574.360655737705" y="538.2622950819672"/>
      <point x="603.0819672131148" y="578.7540983606557"/>
      <point x="603.0819672131148" y="622.360655737705" type="curve" smooth="yes"/>
      <point x="603.0819672131148" y="667.2295081967213"/>
      <point x="518.1967213114754" y="696.2131147540983"/>
      <point x="434.60655737704917" y="696.2131147540983" type="curve" smooth="yes"/>
      <point x="372.6393442622951" y="696.2131147540983"/>
      <point x="331.75409836065575" y="681.2295081967213"/>
      <point x="331.75409836065575" y="644.983606557377" type="curve" smooth="yes"/>
      <point x="331.75409836065575" y="614.5081967213115"/>
      <point x="348.60655737704917" y="601.7540983606557"/>
      <point x="391.60655737704917" y="601.7540983606557" type="curve" smooth="yes"/>
      <point x="407.9836065573771" y="601.7540983606557"/>
      <point x="423.2295081967213" y="602.7540983606557"/>
      <point x="442.60655737704917" y="602.7540983606557" type="curve" smooth="yes"/>
      <point x="455.5081967213115" y="602.7540983606557"/>
      <point x="476.8032786885246" y="599.4918032786885"/>
      <point x="497.6393442622951" y="593.4918032786885" type="curve"/>
      <point x="465.0327868852459" y="568.8524590163935"/>
      <point x="393.11475409836066" y="544.3770491803278"/>
      <point x="339.7704918032787" y="526.7213114754098" type="curve" smooth="yes"/>
      <point x="308.75409836065575" y="516.5901639344262"/>
      <point x="293.75409836065575" y="507.8360655737705"/>
      <point x="293.75409836065575" y="480.45901639344265" type="curve" smooth="yes"/>
      <point x="293.75409836065575" y="450.72131147540983"/>
      <point x="314.24590163934425" y="435.60655737704917"/>
    </contour>
    <contour>
      <point x="60.983606557377044" y="435.60655737704917" type="curve" smooth="yes"/>
      <point x="93.36065573770492" y="435.60655737704917"/>
      <point x="141.47540983606558" y="450.37704918032784"/>
      <point x="210.60655737704917" y="494.1311475409836" type="curve" smooth="yes"/>
      <point x="280.73770491803276" y="538.8852459016393"/>
      <point x="310.08196721311475" y="578.7540983606557"/>
      <point x="310.08196721311475" y="622.360655737705" type="curve" smooth="yes"/>
      <point x="310.08196721311475" y="667.2295081967213"/>
      <point x="225.19672131147541" y="696.2131147540983"/>
      <point x="141.60655737704917" y="696.2131147540983" type="curve" smooth="yes"/>
      <point x="79.63934426229508" y="696.2131147540983"/>
      <point x="38.75409836065574" y="681.2295081967213"/>
      <point x="38.75409836065574" y="644.983606557377" type="curve" smooth="yes"/>
      <point x="38.75409836065574" y="614.5081967213115"/>
      <point x="55.60655737704918" y="601.7540983606557"/>
      <point x="98.60655737704919" y="601.7540983606557" type="curve" smooth="yes"/>
      <point x="114.98360655737704" y="601.7540983606557"/>
      <point x="130.60655737704917" y="602.7540983606557"/>
      <point x="149.60655737704917" y="602.7540983606557" type="curve" smooth="yes"/>
      <point x="162.88524590163934" y="602.7540983606557"/>
      <point x="183.80327868852459" y="599.4918032786885"/>
      <point x="204.63934426229508" y="593.4918032786885" type="curve"/>
      <point x="172.65573770491804" y="568.8524590163935"/>
      <point x="100.11475409836065" y="543.7540983606557"/>
      <point x="46.77049180327869" y="526.7213114754098" type="curve" smooth="yes"/>
      <point x="15.754098360655739" y="516.5901639344262"/>
      <point x="0.754098360655739" y="507.8360655737705"/>
      <point x="0.754098360655739" y="480.45901639344265" type="curve" smooth="yes"/>
      <point x="0.754098360655739" y="450.72131147540983"/>
      <point x="21.24590163934426" y="435.60655737704917"/>
    </contour>
  </outline>
</glyph>
<glyph name="uni07AD" format="2">
  <unicode hex="07AD"/>
  <outline>
    <contour>
      <point x="445.9672131147541" y="435.60655737704917" type="curve" smooth="yes"/>
      <point x="508.1639344262295" y="435.60655737704917"/>
      <point x="556.5737704918033" y="445.4754098360656"/>
      <point x="556.5737704918033" y="484.2295081967213" type="curve" smooth="yes"/>
      <point x="556.5737704918033" y="520.9344262295082"/>
      <point x="544.8524590163935" y="533.4590163934427"/>
      <point x="511.9672131147541" y="533.4590163934427" type="curve" smooth="yes"/>
      <point x="495.4754098360656" y="533.4590163934427"/>
      <point x="471.9836065573771" y="529.0819672131148"/>
      <point x="459.8524590163934" y="529.0819672131148" type="curve" smooth="yes"/>
      <point x="433.1967213114754" y="529.0819672131148"/>
      <point x="418.8032786885246" y="534.4754098360655"/>
      <point x="405.3114754098361" y="544.0983606557377" type="curve"/>
      <point x="418.1803278688525" y="561.6229508196722"/>
      <point x="483.5081967213115" y="598.0983606557377"/>
      <point x="517.6229508196722" y="619.7868852459017" type="curve" smooth="yes"/>
      <point x="537.2131147540983" y="634.1311475409836"/>
      <point x="546.360655737705" y="644.7540983606557"/>
      <point x="546.360655737705" y="660.1475409836065" type="curve" smooth="yes"/>
      <point x="546.360655737705" y="689.1311475409836"/>
      <point x="526.8688524590164" y="702.6229508196722"/>
      <point x="500.75409836065575" y="702.6229508196722" type="curve" smooth="yes"/>
      <point x="469.0" y="702.6229508196722"/>
      <point x="429.4754098360656" y="683.2295081967213"/>
      <point x="385.95081967213116" y="649.7049180327868" type="curve" smooth="yes"/>
      <point x="312.8524590163934" y="594.2131147540983"/>
      <point x="291.11475409836066" y="579.0655737704918"/>
      <point x="291.11475409836066" y="537.9672131147541" type="curve" smooth="yes"/>
      <point x="291.11475409836066" y="487.24590163934425"/>
      <point x="355.7049180327869" y="435.60655737704917"/>
    </contour>
    <contour>
      <point x="154.85245901639345" y="435.60655737704917" type="curve" smooth="yes"/>
      <point x="217.04918032786884" y="435.60655737704917"/>
      <point x="265.08196721311475" y="445.4754098360656"/>
      <point x="265.08196721311475" y="484.2295081967213" type="curve" smooth="yes"/>
      <point x="265.08196721311475" y="520.9344262295082"/>
      <point x="253.7377049180328" y="533.4590163934427"/>
      <point x="220.85245901639345" y="533.4590163934427" type="curve" smooth="yes"/>
      <point x="204.36065573770492" y="533.4590163934427"/>
      <point x="180.86885245901638" y="529.0819672131148"/>
      <point x="168.7377049180328" y="529.0819672131148" type="curve" smooth="yes"/>
      <point x="142.08196721311475" y="529.0819672131148"/>
      <point x="127.68852459016394" y="534.4754098360655"/>
      <point x="114.19672131147541" y="544.0983606557377" type="curve"/>
      <point x="127.06557377049181" y="561.6229508196722"/>
      <point x="192.39344262295083" y="598.7213114754098"/>
      <point x="226.50819672131146" y="619.7868852459017" type="curve" smooth="yes"/>
      <point x="246.0983606557377" y="633.5081967213115"/>
      <point x="255.24590163934425" y="644.7540983606557"/>
      <point x="255.24590163934425" y="660.1475409836065" type="curve" smooth="yes"/>
      <point x="255.24590163934425" y="689.1311475409836"/>
      <point x="235.75409836065575" y="702.6229508196722"/>
      <point x="209.63934426229508" y="702.6229508196722" type="curve" smooth="yes"/>
      <point x="177.88524590163934" y="702.6229508196722"/>
      <point x="138.36065573770492" y="683.6065573770492"/>
      <point x="94.8360655737705" y="649.7049180327868" type="curve" smooth="yes"/>
      <point x="21.737704918032787" y="594.2131147540983"/>
      <point x="0.0" y="579.0655737704918"/>
      <point x="0.0" y="537.9672131147541" type="curve" smooth="yes"/>
      <point x="0.0" y="487.24590163934425"/>
      <point x="64.59016393442623" y="435.60655737704917"/>
    </contour>
  </outline>
</glyph>
<glyph name="uni07AE" format="2">
  <unicode hex="07AE"/>
  <outline>
    <contour>
      <point x="60.983606557377044" y="435.60655737704917" type="curve" smooth="yes"/>
      <point x="99.45901639344262" y="435.60655737704917"/>
      <point x="147.81967213114754" y="455.2295081967213"/>
      <point x="213.5737704918033" y="495.983606557377" type="curve"/>
      <point x="237.31147540983608" y="462.11475409836066"/>
      <point x="288.672131147541" y="435.60655737704917"/>
      <point x="353.55737704918033" y="435.60655737704917" type="curve" smooth="yes"/>
      <point x="416.1311475409836" y="435.60655737704917"/>
      <point x="463.54098360655735" y="445.4754098360656"/>
      <point x="463.54098360655735" y="484.2295081967213" type="curve" smooth="yes"/>
      <point x="463.54098360655735" y="520.9344262295082"/>
      <point x="452.44262295081967" y="533.4590163934427"/>
      <point x="418.9344262295082" y="533.4590163934427" type="curve" smooth="yes"/>
      <point x="403.0655737704918" y="533.4590163934427"/>
      <point x="378.95081967213116" y="529.0819672131148"/>
      <point x="367.8196721311475" y="529.0819672131148" type="curve" smooth="yes"/>
      <point x="340.1639344262295" y="529.0819672131148"/>
      <point x="326.1475409836066" y="534.4754098360655"/>
      <point x="312.27868852459017" y="544.0983606557377" type="curve"/>
      <point x="325.5245901639344" y="561.6229508196722"/>
      <point x="390.4754098360656" y="598.7213114754098"/>
      <point x="424.59016393442624" y="619.7868852459017" type="curve" smooth="yes"/>
      <point x="445.1803278688525" y="634.5081967213115"/>
      <point x="453.95081967213116" y="644.7540983606557"/>
      <point x="453.95081967213116" y="660.1475409836065" type="curve" smooth="yes"/>
      <point x="453.95081967213116" y="689.1311475409836"/>
      <point x="434.8360655737705" y="702.6229508196722"/>
      <point x="408.72131147540983" y="702.6229508196722" type="curve" smooth="yes"/>
      <point x="377.0983606557377" y="702.6229508196722"/>
      <point x="340.327868852459" y="685.7377049180328"/>
      <point x="295.95081967213116" y="651.983606557377" type="curve"/>
      <point x="268.1967213114754" y="679.4754098360655"/>
      <point x="204.95081967213116" y="696.2131147540983"/>
      <point x="141.60655737704917" y="696.2131147540983" type="curve" smooth="yes"/>
      <point x="79.63934426229508" y="696.2131147540983"/>
      <point x="38.75409836065574" y="681.2295081967213"/>
      <point x="38.75409836065574" y="644.983606557377" type="curve" smooth="yes"/>
      <point x="38.75409836065574" y="614.5081967213115"/>
      <point x="55.60655737704918" y="601.7540983606557"/>
      <point x="98.60655737704919" y="601.7540983606557" type="curve" smooth="yes"/>
      <point x="114.98360655737704" y="601.7540983606557"/>
      <point x="130.60655737704917" y="602.7540983606557"/>
      <point x="149.60655737704917" y="602.7540983606557" type="curve" smooth="yes"/>
      <point x="162.88524590163934" y="602.7540983606557"/>
      <point x="183.80327868852459" y="599.4918032786885"/>
      <point x="204.63934426229508" y="593.4918032786885" type="curve"/>
      <point x="172.65573770491804" y="568.8524590163935"/>
      <point x="99.49180327868852" y="543.7540983606557"/>
      <point x="46.77049180327869" y="526.7213114754098" type="curve" smooth="yes"/>
      <point x="15.754098360655737" y="516.5901639344262"/>
      <point x="0.754098360655739" y="507.8360655737705"/>
      <point x="0.754098360655739" y="480.45901639344265" type="curve" smooth="yes"/>
      <point x="0.754098360655739" y="450.72131147540983"/>
      <point x="21.24590163934426" y="435.60655737704917"/>
    </contour>
  </outline>
</glyph>
<glyph name="uni07AF" format="2">
  <unicode hex="07AF"/>
  <outline>
    <contour>
      <point x="144.85245901639345" y="435.60655737704917" type="curve" smooth="yes"/>
      <point x="240.52459016393442" y="435.60655737704917"/>
      <point x="307.4754098360656" y="478.75409836065575"/>
      <point x="307.4754098360656" y="522.2295081967213" type="curve" smooth="yes"/>
      <point x="307.4754098360656" y="544.5901639344262"/>
      <point x="293.3606557377049" y="557.4590163934427"/>
      <point x="271.24590163934425" y="557.4590163934427" type="curve" smooth="yes"/>
      <point x="242.62295081967213" y="557.4590163934427"/>
      <point x="199.672131147541" y="527.1967213114754"/>
      <point x="148.85245901639345" y="527.1967213114754" type="curve" smooth="yes"/>
      <point x="121.60655737704919" y="527.1967213114754"/>
      <point x="102.45901639344262" y="540.0655737704918"/>
      <point x="102.45901639344262" y="575.5901639344262" type="curve" smooth="yes"/>
      <point x="102.45901639344262" y="636.9672131147541"/>
      <point x="247.54098360655738" y="757.5409836065573"/>
      <point x="320.7704918032787" y="757.5409836065573" type="curve" smooth="yes"/>
      <point x="335.54098360655735" y="757.5409836065573"/>
      <point x="339.78688524590166" y="748.5245901639345"/>
      <point x="339.78688524590166" y="742.1475409836065" type="curve" smooth="yes"/>
      <point x="339.78688524590166" y="724.2622950819672"/>
      <point x="323.7704918032787" y="711.0"/>
      <point x="309.5245901639344" y="700.6229508196722" type="curve" smooth="yes"/>
      <point x="288.8688524590164" y="685.344262295082"/>
      <point x="277.88524590163934" y="673.2295081967213"/>
      <point x="277.88524590163934" y="652.2295081967213" type="curve" smooth="yes"/>
      <point x="277.88524590163934" y="626.4918032786885"/>
      <point x="299.37704918032784" y="605.0"/>
      <point x="324.73770491803276" y="605.0" type="curve" smooth="yes"/>
      <point x="340.4754098360656" y="605.0"/>
      <point x="359.11475409836066" y="616.7540983606557"/>
      <point x="385.44262295081967" y="642.0819672131148" type="curve" smooth="yes"/>
      <point x="419.6885245901639" y="674.1967213114754"/>
      <point x="444.7377049180328" y="709.327868852459"/>
      <point x="444.7377049180328" y="763.1475409836065" type="curve" smooth="yes"/>
      <point x="444.7377049180328" y="817.8852459016393"/>
      <point x="397.37704918032784" y="851.0"/>
      <point x="331.9836065573771" y="851.0" type="curve" smooth="yes"/>
      <point x="189.27868852459017" y="851.0"/>
      <point x="0.0" y="698.7540983606557"/>
      <point x="0.0" y="559.5901639344262" type="curve" smooth="yes"/>
      <point x="0.0" y="475.57377049180326"/>
      <point x="66.52459016393442" y="435.60655737704917"/>
    </contour>
  </outline>
</glyph>
<glyph name="uni07B0" format="2">
  <unicode hex="07B0"/>
  <outline>
    <contour>
      <point x="130.22950819672133" y="435.60655737704917" type="curve" smooth="yes"/>
      <point x="229.22950819672133" y="435.60655737704917"/>
      <point x="321.72131147540983" y="519.360655737705"/>
      <point x="321.72131147540983" y="624.8688524590164" type="curve" smooth="yes"/>
      <point x="321.72131147540983" y="691.8524590163935"/>
      <point x="285.3606557377049" y="728.360655737705"/>
      <point x="205.98360655737704" y="728.360655737705" type="curve" smooth="yes"/>
      <point x="97.72131147540983" y="728.360655737705"/>
      <point x="0.0" y="648.327868852459"/>
      <point x="0.0" y="556.0983606557377" type="curve" smooth="yes"/>
      <point x="0.0" y="485.60655737704917"/>
      <point x="42.26229508196721" y="435.60655737704917"/>
    </contour>
    <contour>
      <point x="141.8360655737705" y="523.327868852459" type="curve" smooth="yes"/>
      <point x="109.68852459016394" y="523.327868852459"/>
      <point x="97.34426229508196" y="537.6065573770492"/>
      <point x="97.34426229508196" y="561.0983606557377" type="curve" smooth="yes"/>
      <point x="97.34426229508196" y="607.2295081967213"/>
      <point x="134.08196721311475" y="644.1311475409836"/>
      <point x="194.85245901639345" y="644.1311475409836" type="curve" smooth="yes"/>
      <point x="215.85245901639342" y="644.1311475409836"/>
      <point x="227.8688524590164" y="626.6229508196722"/>
      <point x="227.8688524590164" y="608.7377049180328" type="curve" smooth="yes"/>
      <point x="227.8688524590164" y="560.0983606557377"/>
      <point x="184.7377049180328" y="523.327868852459"/>
    </contour>
  </outline>
</glyph>
<glyph name="uni07B1" format="2">
  <advance width="509.1311475409836"/>
  <unicode hex="07B1"/>
  <outline>
    <contour>
      <point x="231.59016393442624" y="-176.0" type="curve" smooth="yes"/>
      <point x="292.9344262295082" y="-176.0"/>
      <point x="347.78688524590166" y="-162.63934426229508"/>
      <point x="386.40983606557376" y="-139.14754098360655" type="curve" smooth="yes"/>
      <point x="418.8032786885246" y="-119.39344262295081"/>
      <point x="437.55737704918033" y="-97.77049180327869"/>
      <point x="437.55737704918033" y="-74.39344262295083" type="curve" smooth="yes"/>
      <point x="437.55737704918033" y="-46.655737704918025"/>
      <point x="420.0655737704918" y="-31.163934426229503"/>
      <point x="391.8360655737705" y="-31.163934426229503" type="curve" smooth="yes"/>
      <point x="380.0983606557377" y="-31.163934426229503"/>
      <point x="365.9836065573771" y="-36.0327868852459"/>
      <point x="350.2295081967213" y="-47.0327868852459" type="curve" smooth="yes"/>
      <point x="314.3114754098361" y="-71.18032786885246"/>
      <point x="282.8196721311475" y="-84.40983606557377"/>
      <point x="236.59016393442624" y="-84.40983606557377" type="curve" smooth="yes"/>
      <point x="170.19672131147541" y="-84.40983606557377"/>
      <point x="135.68852459016392" y="-72.40983606557377"/>
      <point x="135.68852459016392" y="-36.39344262295082" type="curve" smooth="yes"/>
      <point x="135.68852459016392" y="-10.114754098360656"/>
      <point x="177.7377049180328" y="18.262295081967213"/>
      <point x="256.9344262295082" y="60.803278688524586" type="curve" smooth="yes"/>
      <point x="382.0327868852459" y="127.47540983606558"/>
      <point x="459.8196721311475" y="192.11475409836066"/>
      <point x="459.8196721311475" y="277.8688524590164" type="curve" smooth="yes"/>
      <point x="459.8196721311475" y="350.75409836065575"/>
      <point x="390.9344262295082" y="399.72131147540983"/>
      <point x="306.4754098360656" y="399.72131147540983" type="curve" smooth="yes"/>
      <point x="207.52459016393442" y="399.72131147540983"/>
      <point x="113.88524590163934" y="335.37704918032784"/>
      <point x="113.88524590163934" y="254.86885245901638" type="curve" smooth="yes"/>
      <point x="113.88524590163934" y="192.34426229508196"/>
      <point x="156.18032786885246" y="156.7377049180328"/>
      <point x="227.40983606557376" y="138.75409836065575" type="curve"/>
      <point x="198.54098360655738" y="121.1311475409836"/>
      <point x="168.78688524590166" y="104.50819672131148"/>
      <point x="139.54098360655738" y="86.88524590163934" type="curve" smooth="yes"/>
      <point x="69.55737704918033" y="45.77049180327869"/>
      <point x="29.622950819672134" y="8.508196721311478"/>
      <point x="29.622950819672134" y="-41.39344262295082" type="curve" smooth="yes"/>
      <point x="29.622950819672134" y="-128.78688524590163"/>
      <point x="118.27868852459017" y="-176.0"/>
    </contour>
    <contour>
      <point x="328.11475409836066" y="213.47540983606558" type="curve"/>
      <point x="268.7704918032787" y="215.47540983606558"/>
      <point x="223.95081967213116" y="225.8360655737705"/>
      <point x="223.95081967213116" y="253.49180327868854" type="curve" smooth="yes"/>
      <point x="223.95081967213116" y="286.0"/>
      <point x="271.08196721311475" y="306.88524590163934"/>
      <point x="302.4754098360656" y="306.88524590163934" type="curve" smooth="yes"/>
      <point x="333.62295081967216" y="306.88524590163934"/>
      <point x="349.1311475409836" y="290.37704918032784"/>
      <point x="349.1311475409836" y="273.4918032786885" type="curve" smooth="yes"/>
      <point x="349.1311475409836" y="246.36065573770492"/>
      <point x="343.62295081967216" y="229.60655737704917"/>
    </contour>
  </outline>
</glyph>
